<?xml version="1.0" encoding="UTF-8"?>
<svg width="457px" height="160px" viewBox="0 0 457 160" version="1.1" xmlns="http://www.w3.org/2000/svg" xmlns:xlink="http://www.w3.org/1999/xlink">
    <!-- Generator: Sketch 42 (36781) - http://www.bohemiancoding.com/sketch -->
    <title>illustration@1x</title>
    <desc>Created with Sketch.</desc>
    <defs>
        <rect id="path-1" x="0" y="0" width="265" height="160" rx="4"></rect>
        <mask id="mask-2" maskContentUnits="userSpaceOnUse" maskUnits="objectBoundingBox" x="0" y="0" width="265" height="160" fill="white">
            <use xlink:href="#path-1"></use>
        </mask>
    </defs>
    <g id="Symbols" stroke="none" stroke-width="1" fill="none" fill-rule="evenodd">
        <g id="illustration">
            <g>
                <use id="Rectangle" stroke="#D7DADD" mask="url(#mask-2)" stroke-width="2" fill-opacity="0.4" fill="#E6E9ED" xlink:href="#path-1"></use>
                <circle id="Oval" fill="#E6EAEE" cx="58.5" cy="19.5" r="7.5"></circle>
                <rect id="Rectangle-2" fill="#E6EAEE" x="11" y="12" width="33" height="15" rx="4"></rect>
                <circle id="Oval" fill="#E6EAEE" cx="78.5" cy="19.5" r="7.5"></circle>
                <circle id="Oval" fill="#E6EAEE" cx="98.5" cy="19.5" r="7.5"></circle>
                <g id="Group-6" transform="translate(241.000000, 72.000000)">
                    <circle id="Oval" fill="#E6EAEE" cx="7.5" cy="27.5" r="7.5"></circle>
                    <circle id="Oval" fill="#E6EAEE" cx="7.5" cy="7.5" r="7.5"></circle>
                    <circle id="Oval" fill="#FF861B" cx="7.5" cy="47.5" r="7.5"></circle>
                    <circle id="Oval" fill="#E6EAEE" cx="7.5" cy="67.5" r="7.5"></circle>
                    <circle id="Oval-2" fill="#FFFFFF" cx="3.5" cy="47.5" r="1.5"></circle>
                    <circle id="Oval-2" fill="#FFFFFF" cx="7.5" cy="47.5" r="1.5"></circle>
                    <circle id="Oval-2" fill="#FFFFFF" cx="11.5" cy="47.5" r="1.5"></circle>
                </g>
                <path d="M439,130 L439,3.99499651 C439,1.796875 437.209144,0 435.00001,0 L291.99999,0 C289.78768,0 288,1.78862086 288,3.99499651 L288,156.005003 C288,158.203125 289.790856,160 291.99999,160 L435.00001,160 C437.21232,160 439,158.211379 439,156.005003 L439,148 L457,148 L439,130 Z" id="Combined-Shape" fill="#E6EAEE" opacity="0.4"></path>
                <g id="Group-2" transform="translate(300.000000, 65.000000)">
                    <path d="M2.366,6.262 L5.124,6.262 L4.69,4.862 C4.368,3.84 4.074,2.832 3.78,1.768 L3.724,1.768 C3.43,2.832 3.136,3.84 2.814,4.862 L2.366,6.262 Z M6.3,10 L5.418,7.2 L2.072,7.2 L1.19,10 L0,10 L3.108,0.816 L4.424,0.816 L7.532,10 L6.3,10 Z M8.19,6.612 C8.19,4.4 9.59,3.028 11.144,3.028 C11.928,3.028 12.446,3.322 13.048,3.812 L12.992,2.65 L12.992,0.032 L14.154,0.032 L14.154,10 L13.202,10 L13.104,9.202 L13.062,9.202 C12.53,9.72 11.802,10.168 11.004,10.168 C9.296,10.168 8.19,8.88 8.19,6.612 Z M9.38,6.598 C9.38,8.222 10.066,9.202 11.256,9.202 C11.886,9.202 12.432,8.894 12.992,8.264 L12.992,4.708 C12.418,4.19 11.9,3.994 11.34,3.994 C10.248,3.994 9.38,5.044 9.38,6.598 Z M17.92,10 L19.264,10 L21.672,3.196 L20.538,3.196 L19.25,7.06 C19.054,7.732 18.83,8.418 18.634,9.062 L18.578,9.062 C18.368,8.418 18.144,7.732 17.948,7.06 L16.66,3.196 L15.47,3.196 L17.92,10 Z M22.372,8.236 C22.372,6.752 23.66,6.01 26.558,5.688 C26.558,4.82 26.264,3.98 25.158,3.98 C24.36,3.98 23.66,4.344 23.128,4.708 L22.666,3.91 C23.296,3.504 24.248,3.028 25.34,3.028 C27.006,3.028 27.706,4.134 27.706,5.828 L27.706,10 L26.754,10 L26.656,9.188 L26.628,9.188 C25.97,9.72 25.214,10.168 24.374,10.168 C23.226,10.168 22.372,9.454 22.372,8.236 Z M23.506,8.152 C23.506,8.922 24.024,9.244 24.696,9.244 C25.354,9.244 25.9,8.922 26.558,8.334 L26.558,6.444 C24.276,6.724 23.506,7.284 23.506,8.152 Z M29.876,10 L31.024,10 L31.024,5.072 C31.71,4.386 32.186,4.022 32.886,4.022 C33.782,4.022 34.174,4.568 34.174,5.842 L34.174,10 L35.322,10 L35.322,5.688 C35.322,3.952 34.678,3.028 33.25,3.028 C32.312,3.028 31.612,3.532 30.968,4.176 L30.926,4.176 L30.828,3.196 L29.876,3.196 L29.876,10 Z M37.03,6.612 C37.03,8.866 38.416,10.168 40.222,10.168 C41.034,10.168 41.818,9.832 42.434,9.286 L41.916,8.53 C41.51,8.894 40.964,9.216 40.32,9.216 C39.074,9.216 38.22,8.166 38.22,6.612 C38.22,5.044 39.116,3.98 40.348,3.98 C40.894,3.98 41.314,4.232 41.72,4.582 L42.294,3.84 C41.832,3.406 41.202,3.028 40.306,3.028 C38.556,3.028 37.03,4.33 37.03,6.612 Z M43.12,6.612 C43.12,4.386 44.618,3.028 46.172,3.028 C47.908,3.028 48.888,4.274 48.888,6.22 C48.888,6.458 48.874,6.682 48.846,6.85 L44.254,6.85 C44.338,8.32 45.22,9.244 46.522,9.244 C47.166,9.244 47.712,9.034 48.216,8.712 L48.622,9.468 C48.034,9.846 47.306,10.168 46.382,10.168 C44.562,10.168 43.12,8.838 43.12,6.612 Z M44.24,6.094 L47.88,6.094 C47.88,4.708 47.264,3.938 46.2,3.938 C45.248,3.938 44.38,4.722 44.24,6.094 Z M50.078,6.612 C50.078,4.4 51.478,3.028 53.032,3.028 C53.816,3.028 54.334,3.322 54.936,3.812 L54.88,2.65 L54.88,0.032 L56.042,0.032 L56.042,10 L55.09,10 L54.992,9.202 L54.95,9.202 C54.418,9.72 53.69,10.168 52.892,10.168 C51.184,10.168 50.078,8.88 50.078,6.612 Z M51.268,6.598 C51.268,8.222 51.954,9.202 53.144,9.202 C53.774,9.202 54.32,8.894 54.88,8.264 L54.88,4.708 C54.306,4.19 53.788,3.994 53.228,3.994 C52.136,3.994 51.268,5.044 51.268,6.598 Z M60.662,6.612 C60.662,4.33 62.146,3.028 63.812,3.028 C65.478,3.028 66.962,4.33 66.962,6.612 C66.962,8.866 65.478,10.168 63.812,10.168 C62.146,10.168 60.662,8.866 60.662,6.612 Z M61.852,6.612 C61.852,8.166 62.65,9.216 63.812,9.216 C64.988,9.216 65.772,8.166 65.772,6.612 C65.772,5.044 64.988,3.98 63.812,3.98 C62.65,3.98 61.852,5.044 61.852,6.612 Z M69.874,9.384 L69.902,10.574 L69.902,12.87 L68.754,12.87 L68.754,3.196 L69.706,3.196 L69.804,3.98 L69.846,3.98 C70.462,3.462 71.218,3.028 72.016,3.028 C73.766,3.028 74.704,4.386 74.704,6.5 C74.704,8.81 73.318,10.168 71.764,10.168 C71.134,10.168 70.504,9.874 69.874,9.384 Z M69.902,8.488 C70.518,9.006 71.12,9.202 71.568,9.202 C72.688,9.202 73.514,8.18 73.514,6.5 C73.514,5.002 73.01,3.994 71.722,3.994 C71.148,3.994 70.574,4.316 69.902,4.918 L69.902,8.488 Z M76.72,7.9 C76.72,9.244 77.21,10.168 78.666,10.168 C79.086,10.168 79.548,10.042 79.926,9.916 L79.702,9.048 C79.478,9.132 79.17,9.23 78.932,9.23 C78.148,9.23 77.882,8.754 77.882,7.914 L77.882,4.134 L79.716,4.134 L79.716,3.196 L77.882,3.196 L77.882,1.292 L76.916,1.292 L76.776,3.196 L75.712,3.266 L75.712,4.134 L76.72,4.134 L76.72,7.9 Z M81.844,1.796 C82.292,1.796 82.642,1.488 82.642,1.054 C82.642,0.606 82.292,0.312 81.844,0.312 C81.396,0.312 81.046,0.606 81.046,1.054 C81.046,1.488 81.396,1.796 81.844,1.796 Z M81.256,10 L82.404,10 L82.404,3.196 L81.256,3.196 L81.256,10 Z M84.196,6.612 C84.196,4.33 85.68,3.028 87.346,3.028 C89.012,3.028 90.496,4.33 90.496,6.612 C90.496,8.866 89.012,10.168 87.346,10.168 C85.68,10.168 84.196,8.866 84.196,6.612 Z M85.386,6.612 C85.386,8.166 86.184,9.216 87.346,9.216 C88.522,9.216 89.306,8.166 89.306,6.612 C89.306,5.044 88.522,3.98 87.346,3.98 C86.184,3.98 85.386,5.044 85.386,6.612 Z M92.288,10 L93.436,10 L93.436,5.072 C94.122,4.386 94.598,4.022 95.298,4.022 C96.194,4.022 96.586,4.568 96.586,5.842 L96.586,10 L97.734,10 L97.734,5.688 C97.734,3.952 97.09,3.028 95.662,3.028 C94.724,3.028 94.024,3.532 93.38,4.176 L93.338,4.176 L93.24,3.196 L92.288,3.196 L92.288,10 Z M99.19,9.23 C99.834,9.762 100.758,10.168 101.724,10.168 C103.334,10.168 104.216,9.244 104.216,8.138 C104.216,6.85 103.124,6.444 102.144,6.08 C101.374,5.786 100.632,5.534 100.632,4.904 C100.632,4.386 101.024,3.924 101.878,3.924 C102.48,3.924 102.97,4.176 103.432,4.526 L103.978,3.798 C103.46,3.378 102.718,3.028 101.864,3.028 C100.394,3.028 99.526,3.868 99.526,4.96 C99.526,6.108 100.59,6.57 101.556,6.92 C102.298,7.2 103.11,7.508 103.11,8.208 C103.11,8.796 102.662,9.272 101.766,9.272 C100.954,9.272 100.352,8.936 99.764,8.46 L99.19,9.23 Z" id="Advanced-options" fill="#5D6671"></path>
                    <path d="M1.044,63 L1.044,55.128 L3.468,55.128 C5.208,55.128 6.372,55.716 6.372,57.444 C6.372,59.1 5.184,59.88 3.468,59.88 L2.052,59.88 L2.052,63 L1.044,63 Z M2.052,59.064 L3.336,59.064 C4.716,59.064 5.376,58.56 5.376,57.444 C5.376,56.304 4.692,55.932 3.336,55.932 L2.052,55.932 L2.052,59.064 Z M7.836,63 L8.82,63 L8.82,58.776 C9.408,58.188 9.816,57.876 10.416,57.876 C11.184,57.876 11.52,58.344 11.52,59.436 L11.52,63 L12.504,63 L12.504,59.304 C12.504,57.816 11.952,57.024 10.728,57.024 C9.924,57.024 9.336,57.456 8.784,57.984 L8.82,56.784 L8.82,54.456 L7.836,54.456 L7.836,63 Z M13.932,60.096 C13.932,58.14 15.204,57.024 16.632,57.024 C18.06,57.024 19.332,58.14 19.332,60.096 C19.332,62.028 18.06,63.144 16.632,63.144 C15.204,63.144 13.932,62.028 13.932,60.096 Z M14.952,60.096 C14.952,61.428 15.636,62.328 16.632,62.328 C17.64,62.328 18.312,61.428 18.312,60.096 C18.312,58.752 17.64,57.84 16.632,57.84 C15.636,57.84 14.952,58.752 14.952,60.096 Z M21.036,61.2 C21.036,62.352 21.456,63.144 22.704,63.144 C23.064,63.144 23.46,63.036 23.784,62.928 L23.592,62.184 C23.4,62.256 23.136,62.34 22.932,62.34 C22.26,62.34 22.032,61.932 22.032,61.212 L22.032,57.972 L23.604,57.972 L23.604,57.168 L22.032,57.168 L22.032,55.536 L21.204,55.536 L21.084,57.168 L20.172,57.228 L20.172,57.972 L21.036,57.972 L21.036,61.2 Z M24.372,60.096 C24.372,58.14 25.644,57.024 27.072,57.024 C28.5,57.024 29.772,58.14 29.772,60.096 C29.772,62.028 28.5,63.144 27.072,63.144 C25.644,63.144 24.372,62.028 24.372,60.096 Z M25.392,60.096 C25.392,61.428 26.076,62.328 27.072,62.328 C28.08,62.328 28.752,61.428 28.752,60.096 C28.752,58.752 28.08,57.84 27.072,57.84 C26.076,57.84 25.392,58.752 25.392,60.096 Z M33.732,63 L34.704,63 L34.704,61.464 L35.796,60.192 L37.5,63 L38.58,63 L36.36,59.508 L38.316,57.168 L37.224,57.168 L34.74,60.24 L34.704,60.24 L34.704,54.456 L33.732,54.456 L33.732,63 Z M39.024,60.096 C39.024,58.188 40.308,57.024 41.64,57.024 C43.128,57.024 43.968,58.092 43.968,59.76 C43.968,59.964 43.956,60.156 43.932,60.3 L39.996,60.3 C40.068,61.56 40.824,62.352 41.94,62.352 C42.492,62.352 42.96,62.172 43.392,61.896 L43.74,62.544 C43.236,62.868 42.612,63.144 41.82,63.144 C40.26,63.144 39.024,62.004 39.024,60.096 Z M39.984,59.652 L43.104,59.652 C43.104,58.464 42.576,57.804 41.664,57.804 C40.848,57.804 40.104,58.476 39.984,59.652 Z M45.072,64.608 L44.88,65.388 C45.072,65.46 45.3,65.508 45.564,65.508 C46.74,65.508 47.34,64.632 47.748,63.48 L49.944,57.168 L48.984,57.168 L47.94,60.396 C47.784,60.912 47.616,61.512 47.448,62.04 L47.4,62.04 C47.22,61.5 47.016,60.9 46.836,60.396 L45.648,57.168 L44.628,57.168 L46.968,63.012 L46.836,63.444 C46.596,64.164 46.176,64.692 45.516,64.692 C45.372,64.692 45.192,64.644 45.072,64.608 Z" id="Photo-key" fill="#5D6671"></path>
                    <path d="M0.75,78.22 C0.75,79.46 1.21,80.12 2.24,80.12 C2.91,80.12 3.39,79.77 3.84,79.24 L3.87,79.24 L3.94,80 L4.62,80 L4.62,75.14 L3.8,75.14 L3.8,78.59 C3.34,79.16 2.99,79.41 2.49,79.41 C1.85,79.41 1.58,79.02 1.58,78.11 L1.58,75.14 L0.75,75.14 L0.75,78.22 Z M7.13,77.33 L9.1,77.33 L8.79,76.33 C8.56,75.6 8.35,74.88 8.14,74.12 L8.1,74.12 C7.89,74.88 7.68,75.6 7.45,76.33 L7.13,77.33 Z M9.94,80 L9.31,78 L6.92,78 L6.29,80 L5.44,80 L7.66,73.44 L8.6,73.44 L10.82,80 L9.94,80 Z M11.64,80 L12.46,80 L12.46,76.48 C12.95,75.99 13.29,75.73 13.79,75.73 C14.43,75.73 14.71,76.12 14.71,77.03 L14.71,80 L15.53,80 L15.53,76.92 C15.53,75.68 15.07,75.02 14.05,75.02 C13.38,75.02 12.89,75.38 12.43,75.82 L12.46,74.82 L12.46,72.88 L11.64,72.88 L11.64,80 Z M17.01,78.22 C17.01,79.46 17.47,80.12 18.5,80.12 C19.17,80.12 19.65,79.77 20.1,79.24 L20.13,79.24 L20.2,80 L20.88,80 L20.88,75.14 L20.06,75.14 L20.06,78.59 C19.6,79.16 19.25,79.41 18.75,79.41 C18.11,79.41 17.84,79.02 17.84,78.11 L17.84,75.14 L17.01,75.14 L17.01,78.22 Z M22.57,80 L22.57,73.44 L24.21,73.44 C26.23,73.44 27.31,74.61 27.31,76.69 C27.31,78.78 26.23,80 24.25,80 L22.57,80 Z M23.41,79.32 L24.15,79.32 C25.69,79.32 26.45,78.35 26.45,76.69 C26.45,75.04 25.69,74.12 24.15,74.12 L23.41,74.12 L23.41,79.32 Z M29.16,76.69 C29.16,78.33 29.93,79.39 31.1,79.39 C32.27,79.39 33.04,78.33 33.04,76.69 C33.04,75.06 32.27,74.05 31.1,74.05 C29.93,74.05 29.16,75.06 29.16,76.69 Z M33.89,80.84 L34.05,81.49 C33.85,81.56 33.5,81.64 33.11,81.64 C31.9,81.64 31.07,80.99 30.69,80.09 C29.26,79.89 28.3,78.62 28.3,76.69 C28.3,74.59 29.45,73.32 31.1,73.32 C32.75,73.32 33.91,74.6 33.91,76.69 C33.91,78.58 32.98,79.84 31.59,80.08 C31.89,80.66 32.49,80.94 33.2,80.94 C33.49,80.94 33.71,80.89 33.89,80.84 Z M34.81,79.15 C35.38,79.74 36.18,80.12 37.1,80.12 C38.48,80.12 39.34,79.29 39.34,78.25 C39.34,77.28 38.75,76.83 37.99,76.5 L37.05,76.1 C36.54,75.88 35.96,75.64 35.96,75.01 C35.96,74.42 36.45,74.05 37.19,74.05 C37.79,74.05 38.28,74.29 38.68,74.67 L39.12,74.13 C38.66,73.65 37.97,73.32 37.19,73.32 C36,73.32 35.12,74.06 35.12,75.06 C35.12,76.02 35.84,76.49 36.45,76.75 L37.39,77.16 C38.01,77.44 38.49,77.65 38.49,78.32 C38.49,78.96 37.98,79.39 37.12,79.39 C36.43,79.39 35.78,79.06 35.31,78.57 L34.81,79.15 Z M40.57,80 L41.41,80 L41.41,76.91 L44.46,76.91 L44.46,80 L45.29,80 L45.29,73.44 L44.46,73.44 L44.46,76.19 L41.41,76.19 L41.41,73.44 L40.57,73.44 L40.57,80 Z M48.24,80 L49.21,80 L51.29,73.44 L50.44,73.44 L49.39,76.98 C49.17,77.76 49,78.38 48.76,79.15 L48.72,79.15 C48.48,78.38 48.32,77.76 48.09,76.98 L47.03,73.44 L46.15,73.44 L48.24,80 Z M51.51,79.15 C52.08,79.74 52.88,80.12 53.8,80.12 C55.18,80.12 56.04,79.29 56.04,78.25 C56.04,77.28 55.45,76.83 54.69,76.5 L53.75,76.1 C53.24,75.88 52.66,75.64 52.66,75.01 C52.66,74.42 53.15,74.05 53.89,74.05 C54.49,74.05 54.98,74.29 55.38,74.67 L55.82,74.13 C55.36,73.65 54.67,73.32 53.89,73.32 C52.7,73.32 51.82,74.06 51.82,75.06 C51.82,76.02 52.54,76.49 53.15,76.75 L54.09,77.16 C54.71,77.44 55.19,77.65 55.19,78.32 C55.19,78.96 54.68,79.39 53.82,79.39 C53.13,79.39 52.48,79.06 52.01,78.57 L51.51,79.15 Z M56.53,80 L57.4,80 L58.35,78.23 C58.52,77.91 58.68,77.58 58.87,77.18 L58.91,77.18 C59.12,77.58 59.3,77.91 59.47,78.23 L60.44,80 L61.36,80 L59.45,76.65 L61.23,73.44 L60.35,73.44 L59.48,75.12 C59.32,75.42 59.2,75.69 59.02,76.07 L58.98,76.07 C58.77,75.69 58.63,75.42 58.47,75.12 L57.57,73.44 L56.65,73.44 L58.44,76.61 L56.53,80 Z M63.19,74.11 L63.19,76.55 L64.29,76.55 C65.31,76.55 65.87,76.13 65.87,75.28 C65.87,74.42 65.31,74.11 64.29,74.11 L63.19,74.11 Z M66.9,80 L65.95,80 L64.37,77.23 L63.19,77.23 L63.19,80 L62.35,80 L62.35,73.44 L64.41,73.44 C65.74,73.44 66.7,73.92 66.7,75.28 C66.7,76.3 66.12,76.91 65.23,77.14 L66.9,80 Z M67.73,76.72 C67.73,78.86 68.96,80.12 70.61,80.12 C71.44,80.12 72.09,79.77 72.6,79.17 L72.13,78.66 C71.71,79.13 71.25,79.39 70.63,79.39 C69.38,79.39 68.59,78.35 68.59,76.7 C68.59,75.07 69.42,74.05 70.67,74.05 C71.21,74.05 71.63,74.29 71.98,74.66 L72.45,74.13 C72.06,73.7 71.44,73.32 70.66,73.32 C68.98,73.32 67.73,74.61 67.73,76.72 Z M73.72,80 L74.54,80 L74.54,76.48 C74.99,75.98 75.4,75.73 75.76,75.73 C76.38,75.73 76.67,76.12 76.67,77.03 L76.67,80 L77.49,80 L77.49,76.48 C77.94,75.98 78.33,75.73 78.71,75.73 C79.32,75.73 79.61,76.12 79.61,77.03 L79.61,80 L80.43,80 L80.43,76.92 C80.43,75.68 79.95,75.02 78.95,75.02 C78.36,75.02 77.86,75.4 77.35,75.95 C77.15,75.37 76.75,75.02 76.01,75.02 C75.43,75.02 74.92,75.38 74.5,75.84 L74.47,75.84 L74.4,75.14 L73.72,75.14 L73.72,80 Z M82.06,80 L82.06,73.44 L84.08,73.44 C85.53,73.44 86.5,73.93 86.5,75.37 C86.5,76.75 85.51,77.4 84.08,77.4 L82.9,77.4 L82.9,80 L82.06,80 Z M82.9,76.72 L83.97,76.72 C85.12,76.72 85.67,76.3 85.67,75.37 C85.67,74.42 85.1,74.11 83.97,74.11 L82.9,74.11 L82.9,76.72 Z M87.15,79.25 C87.59,79.69 88.22,80.12 89.24,80.12 C90.35,80.12 91.39,79.34 91.39,77.96 C91.39,76.58 90.5,75.96 89.41,75.96 C89.02,75.96 88.73,76.06 88.43,76.22 L88.6,74.33 L91.07,74.33 L91.07,73.62 L87.88,73.62 L87.67,76.69 L88.11,76.97 C88.49,76.72 88.76,76.58 89.2,76.58 C90.02,76.58 90.56,77.1 90.56,77.98 C90.56,78.87 89.94,79.44 89.16,79.44 C88.41,79.44 87.93,79.09 87.55,78.71 L87.15,79.25 Z M92.33,77.58 C92.33,75.99 93.4,75.02 94.51,75.02 C95.75,75.02 96.45,75.91 96.45,77.3 C96.45,77.47 96.44,77.63 96.42,77.75 L93.14,77.75 C93.2,78.8 93.83,79.46 94.76,79.46 C95.22,79.46 95.61,79.31 95.97,79.08 L96.26,79.62 C95.84,79.89 95.32,80.12 94.66,80.12 C93.36,80.12 92.33,79.17 92.33,77.58 Z M93.13,77.21 L95.73,77.21 C95.73,76.22 95.29,75.67 94.53,75.67 C93.85,75.67 93.23,76.23 93.13,77.21 Z M97.3,77.58 C97.3,76 98.3,75.02 99.41,75.02 C99.97,75.02 100.36,75.22 100.8,75.6 L100.82,75.6 L100.9,75.14 L101.56,75.14 L101.56,82.05 L100.73,82.05 L100.73,80.32 L100.77,79.46 C100.38,79.82 99.87,80.12 99.31,80.12 C98.09,80.12 97.3,79.2 97.3,77.58 Z M98.15,77.57 C98.15,78.73 98.64,79.43 99.49,79.43 C99.94,79.43 100.33,79.21 100.73,78.76 L100.73,76.22 C100.32,75.85 99.95,75.71 99.55,75.71 C98.77,75.71 98.15,76.46 98.15,77.57 Z M103.2,80 L104.04,80 L104.04,76.91 L107.09,76.91 L107.09,80 L107.92,80 L107.92,73.44 L107.09,73.44 L107.09,76.19 L104.04,76.19 L104.04,73.44 L103.2,73.44 L103.2,80 Z M109.62,80 L110.44,80 L110.44,76.48 C110.89,75.98 111.3,75.73 111.66,75.73 C112.28,75.73 112.57,76.12 112.57,77.03 L112.57,80 L113.39,80 L113.39,76.48 C113.84,75.98 114.23,75.73 114.61,75.73 C115.22,75.73 115.51,76.12 115.51,77.03 L115.51,80 L116.33,80 L116.33,76.92 C116.33,75.68 115.85,75.02 114.85,75.02 C114.26,75.02 113.76,75.4 113.25,75.95 C113.05,75.37 112.65,75.02 111.91,75.02 C111.33,75.02 110.82,75.38 110.4,75.84 L110.37,75.84 L110.3,75.14 L109.62,75.14 L109.62,80 Z" id="uAhuDQSHVSXRCmP5eqHm" fill="#FF861B"></path>
                </g>
                <rect id="Rectangle-8" fill="#E6EAEE" x="300" y="84" width="99" height="7" rx="2"></rect>
                <rect id="Rectangle-8" fill="#E6EAEE" x="300" y="96" width="99" height="7" rx="2"></rect>
            </g>
        </g>
    </g>
</svg>