<?xml version="1.0" encoding="UTF-8"?>
<svg width="300px" height="85px" viewBox="0 0 300 85" version="1.1" xmlns="http://www.w3.org/2000/svg" xmlns:xlink="http://www.w3.org/1999/xlink">
    <!-- Generator: Sketch 42 (36781) - http://www.bohemiancoding.com/sketch -->
    <title>photostories_logo_big@1x</title>
    <desc>Created with Sketch.</desc>
    <defs></defs>
    <g id="Symbols" stroke="none" stroke-width="1" fill="none" fill-rule="evenodd">
        <g id="photostories_logo_big">
            <g id="logo">
                <g>
                    <path d="M114.801656,2.84693009 L114.801656,44.9566974 L106.661038,44.9566974 L106.661038,23.049882 L97.5028429,44.9566974 L93.0733891,44.9566974 L83.9151941,23.049882 L83.9151941,44.9566974 L75.7745764,44.9566974 L75.7745764,2.84693009 L84.1546241,2.84693009 L95.288116,29.3785176 L106.421608,2.84693009 L114.801656,2.84693009 L114.801656,2.84693009 Z M150.328003,12.0356221 L157.451043,12.0356221 L157.451043,14.773974 C157.929906,13.8003329 158.887616,12.9686936 160.324203,12.2790311 C161.760789,11.5893687 163.337021,11.2445426 165.052944,11.2445426 C166.689057,11.2445426 168.225383,11.6197945 169.66197,12.3703095 C171.098557,13.1208246 172.345575,14.2262963 173.403063,15.686758 C174.46055,17.1472196 175.298547,18.9524854 175.917077,21.1026095 C176.535607,23.2527336 176.844868,25.7070838 176.844868,28.4657336 C176.844868,31.3055201 176.545584,33.8004381 175.947006,35.9505622 C175.348428,38.1006863 174.530384,39.9059521 173.492849,41.3664137 C172.455314,42.8268754 171.228248,43.9222052 169.811614,44.652436 C168.39498,45.3826669 166.848677,45.7477768 165.172659,45.7477768 C163.376925,45.7477768 161.930384,45.4638024 160.832991,44.8958451 C159.735599,44.3278878 158.947483,43.6179518 158.468621,42.7660158 L158.468621,55.8896974 L150.328003,57.6646169 L150.328003,12.0356221 L150.328003,12.0356221 Z M163.137504,37.8978346 C167.088118,37.8978346 169.063395,34.7741163 169.063395,28.5265859 C169.063395,25.4839574 168.574564,23.1715945 167.596887,21.5894277 C166.61921,20.0072609 165.212573,19.2161893 163.376934,19.2161893 C162.020158,19.2161893 160.892853,19.6928606 159.994986,20.6462176 C159.09712,21.5995745 158.408766,22.7253301 157.929903,24.0235183 L157.929903,33.394767 C158.488576,34.8957971 159.236787,36.0215527 160.174559,36.7720677 C161.112331,37.5225828 162.099969,37.8978346 163.137504,37.8978346 L163.137504,37.8978346 L163.137504,37.8978346 Z M188.576935,12.0356221 L188.576935,44.9566974 L180.37646,44.9566974 L180.37646,12.0356221 L188.576935,12.0356221 L188.576935,12.0356221 Z M180.37646,4.7333503 C180.37646,3.55686729 180.755553,2.54267302 181.513752,1.69073705 C182.27195,0.838801087 183.249613,0.412839492 184.446768,0.412839492 C185.564114,0.412839492 186.5318,0.838801087 187.349856,1.69073705 C188.167913,2.54267302 188.576935,3.55686729 188.576935,4.7333503 C188.576935,5.86926492 188.167913,6.83274948 187.349856,7.62383288 C186.5318,8.41491628 185.564114,8.81045204 184.446768,8.81045204 C183.249613,8.81045204 182.27195,8.41491628 181.513752,7.62383288 C180.755553,6.83274948 180.37646,5.86926492 180.37646,4.7333503 L180.37646,4.7333503 L180.37646,4.7333503 Z M192.826816,3.39460047 L200.967434,0.595396287 L200.967434,44.9566974 L192.826816,44.9566974 L192.826816,3.39460047 L192.826816,3.39460047 Z M205.217315,3.39460047 L213.357933,0.595396287 L213.357933,44.9566974 L205.217315,44.9566974 L205.217315,3.39460047 L205.217315,3.39460047 Z M257.531169,12.0356221 L257.531169,14.2871559 C258.089841,13.3540832 259.007647,12.6137213 260.284613,12.0660482 C261.561579,11.5183751 262.898383,11.2445426 264.295064,11.2445426 C265.212884,11.2445426 266.100761,11.3865298 266.958722,11.6705085 C267.816684,11.9544871 268.485086,12.4210165 268.963948,13.0701106 L266.030931,20.4332346 C265.033302,19.5407303 263.935926,19.0944848 262.73877,19.0944848 C261.74114,19.0944848 260.833311,19.4697367 260.015254,20.2202517 C259.197198,20.9707667 258.528796,22.1370901 258.010029,23.7192569 L258.010029,44.9566974 L249.869411,44.9566974 L249.869411,12.0356221 L257.531169,12.0356221 L257.531169,12.0356221 Z M237.448692,42.556084 C235.279551,44.4712547 232.75236,45.8002376 230.055108,45.8002376 C220.71339,45.8002376 216.797659,38.0907737 216.797659,28.5806681 C216.797659,19.0705625 220.71339,11.3610986 230.055108,11.3610986 C232.958688,11.3610986 235.426403,12.6000059 237.448692,14.460208 L237.448692,11.8074272 L245.744399,11.8074272 L245.744399,45.353909 L237.448692,45.353909 L237.448692,42.556084 L237.448692,42.556084 Z M237.448692,34.2419751 C236.409958,36.5285979 234.573608,37.9566382 231.919523,38.0033075 C226.900564,38.0915607 224.975058,33.8920166 224.8846,28.6714422 C224.794142,23.4508677 226.572986,19.1861876 231.591945,19.0979351 C234.179379,19.0524381 236.277269,20.7182281 237.448692,23.3981199 L237.448692,34.2419751 L237.448692,34.2419751 Z M138.820674,42.556084 C136.651533,44.4712547 134.124343,45.8002376 131.42709,45.8002376 C122.085372,45.8002376 118.169641,38.0907737 118.169641,28.5806681 C118.169641,19.0705625 122.085372,11.3610986 131.42709,11.3610986 C134.33067,11.3610986 136.798385,12.6000059 138.820674,14.460208 L138.820674,11.8074272 L147.116381,11.8074272 L147.116381,45.353909 L138.820674,45.353909 L138.820674,42.556084 L138.820674,42.556084 L138.820674,42.556084 Z M138.820674,34.2419751 C137.781941,36.5285979 135.94559,37.9566382 133.291505,38.0033075 C128.272546,38.0915607 126.347041,33.8920166 126.256582,28.6714422 C126.166124,23.4508677 127.944969,19.1861876 132.963927,19.0979351 C135.551361,19.0524381 137.649251,20.7182281 138.820674,23.3981199 L138.820674,34.2419751 L138.820674,34.2419751 L138.820674,34.2419751 Z M283.987383,56.6403322 L275.48762,56.6403322 L280.575506,42.0966409 L269.920874,12.0356221 L278.899497,12.0356221 L284.945103,31.1432332 L290.990709,12.0356221 L299.789759,12.0356221 L283.987383,56.6403322 L283.987383,56.6403322 Z" id="Mapillary" fill="#474A4E"></path>
                    <path d="M25.0872436,47.8148201 C20.5593603,45.4734523 15.5198194,44.2694682 10.4117861,44.3087432 C7.51726515,44.3355186 4.63784739,44.7254936 1.84238949,45.4693424 C1.41687328,45.6054641 0.951243935,45.5313929 0.590206508,45.270148 C0.229169082,45.0089032 0.016475945,44.5921437 0.0182263944,44.1493873 L0.0182263944,3.95200889 C0.0179811725,3.37279216 0.381436119,2.85446916 0.929623334,2.65226597 C4.00257868,1.71286409 7.19595007,1.21566276 10.4117861,1.1759128 C16.1636849,1.10784548 21.8169974,2.65736948 26.7147381,5.64441073 C27.1471751,5.9298861 27.4056145,6.41155842 27.4024557,6.92615987 L27.4024557,46.4963439 C27.3985231,47.0405352 27.1032576,47.5417963 26.6268127,47.8131241 C26.1503677,48.0844519 25.5642971,48.0850975 25.0872436,47.8148201 L25.0872436,47.8148201 Z M57.2761603,3.95188564 L57.2761603,44.1493873 C57.2779108,44.5921437 57.0652176,45.0089032 56.7041802,45.270148 C56.3431428,45.5313929 55.8775134,45.6054641 55.4519972,45.4693424 C52.6565393,44.7254936 49.7771216,44.3355186 46.8826006,44.3087432 C41.7745691,44.2694834 36.7350319,45.4734666 32.2071432,47.8148201 C31.7300512,48.0851184 31.1439283,48.084449 30.6674674,47.8130614 C30.1910066,47.5416739 29.8957758,47.0403327 29.8919311,46.4960974 L29.8919311,6.92615987 C29.8887722,6.41155842 30.1472116,5.9298861 30.5796486,5.64441073 C35.4773893,2.65736948 41.1307018,1.10784548 46.8826006,1.1759128 C50.0985169,1.21567838 53.2919682,1.7128791 56.3650123,2.65226597 C56.9130783,2.85457984 57.2764081,3.37286602 57.2761603,3.95200889 L57.2761603,3.95188564 Z" id="Shape" fill="#36AF6D" fill-rule="nonzero"></path>
                    <path d="M124.390755,61.3425997 C126.293355,61.3425997 127.81821,61.8368953 128.965366,62.8255013 C130.112522,63.8141073 130.686091,65.269015 130.686091,67.1902681 C130.686091,69.1301742 130.112522,70.5944083 128.965366,71.5830142 C127.81821,72.5716202 126.293355,73.0659158 124.390755,73.0659158 L119.718216,73.0659158 L119.718216,80.7042578 L116.948267,80.7042578 L116.948267,61.3425997 L124.390755,61.3425997 Z M119.718216,70.435864 L124.446713,70.435864 C125.509931,70.435864 126.372617,70.1793899 127.034796,69.6664339 C127.696975,69.153478 128.02806,68.337424 128.02806,67.2182474 C128.02806,66.1177238 127.692312,65.3203224 127.020806,64.8260194 C126.3493,64.3317164 125.491278,64.0845686 124.446713,64.0845686 L119.718216,64.0845686 L119.718216,70.435864 Z M142.29749,71.6949313 C142.29749,69.4379252 141.448794,68.3094391 139.751376,68.3094391 C139.005259,68.3094391 138.352415,68.4959657 137.792827,68.8690246 C137.233239,69.2420835 136.757596,69.8856003 136.365884,70.7995946 L136.365884,80.7042578 L133.595936,80.7042578 L133.595936,61.2586619 L136.365884,60.3073666 L136.365884,67.274206 C136.850861,66.6400059 137.42443,66.1783525 138.086609,65.8892319 C138.748789,65.6001112 139.480906,65.4555531 140.282983,65.4555531 C140.954488,65.4555531 141.579353,65.5767954 142.157594,65.8192837 C142.735835,66.0617719 143.24412,66.4208357 143.682464,66.8964857 C144.120809,67.3721358 144.46122,67.9643579 144.703708,68.6731697 C144.946196,69.3819815 145.067438,70.212025 145.067438,71.1633251 L145.067438,80.7042578 L142.29749,80.7042578 L142.29749,71.6949313 Z M155.000081,65.4555531 C155.914075,65.4555531 156.762771,65.6234271 157.546195,65.95918 C158.329619,66.294933 159.010441,66.7892286 159.588682,67.4420816 C160.166923,68.0949346 160.614587,68.9109886 160.931687,69.8902681 C161.248787,70.8695476 161.407335,72.0026969 161.407335,73.28975 C161.407335,74.5768031 161.248787,75.7052892 160.931687,76.6752422 C160.614587,77.6451953 160.166923,78.4565861 159.588682,79.1094391 C159.010441,79.7622921 158.329619,80.2565877 157.546195,80.5923407 C156.762771,80.9280936 155.914075,81.0959676 155.000081,81.0959676 C154.067434,81.0959676 153.214074,80.9280936 152.439977,80.5923407 C151.66588,80.2565877 150.989721,79.7622921 150.41148,79.1094391 C149.833239,78.4565861 149.385575,77.6451953 149.068475,76.6752422 C148.751375,75.7052892 148.592827,74.5768031 148.592827,73.28975 C148.592827,72.0026969 148.751375,70.8695476 149.068475,69.8902681 C149.385575,68.9109886 149.833239,68.0949346 150.41148,67.4420816 C150.989721,66.7892286 151.66588,66.294933 152.439977,65.95918 C153.214074,65.6234271 154.067434,65.4555531 155.000081,65.4555531 Z M155.000081,68.197522 C153.880904,68.197522 152.99024,68.6218701 152.32806,69.470579 C151.665881,70.3192879 151.334796,71.5923322 151.334796,73.28975 C151.334796,74.9871678 151.665881,76.2602121 152.32806,77.108921 C152.99024,77.9576299 153.880904,78.381978 155.000081,78.381978 C156.119258,78.381978 157.014585,77.9576299 157.686091,77.108921 C158.357597,76.2602121 158.693345,74.9871678 158.693345,73.28975 C158.693345,71.5923322 158.357597,70.3192879 157.686091,69.470579 C157.014585,68.6218701 156.119258,68.197522 155.000081,68.197522 Z M168.374174,80.8441541 C167.982462,80.8441541 167.590756,80.7695435 167.199045,80.6203199 C166.807333,80.4710964 166.457595,80.2519276 166.149822,79.962807 C165.842048,79.6736864 165.594901,79.3146226 165.408371,78.8856049 C165.221842,78.4565872 165.128578,77.9529653 165.128578,77.3747241 L165.128578,68.197522 L163.309926,68.197522 L163.309926,65.8472629 L165.128578,65.8472629 L165.128578,61.678351 L167.926506,60.7270557 L167.926506,65.8472629 L170.920288,65.8472629 L170.920288,68.197522 L167.926506,68.197522 L167.926506,76.8990764 C167.926506,77.3280941 168.066401,77.6451894 168.346195,77.8503718 C168.625989,78.0555541 168.943084,78.1581438 169.29749,78.1581438 C169.689202,78.1581438 170.071582,78.0695436 170.444641,77.8923407 C170.817699,77.7151377 171.153447,77.4586636 171.451894,77.1229106 L170.86433,80.116693 C170.659147,80.3218754 170.328063,80.4944125 169.871065,80.6343096 C169.414068,80.7742067 168.91511,80.8441541 168.374174,80.8441541 Z M180.181428,65.4555531 C181.095422,65.4555531 181.944118,65.6234271 182.727542,65.95918 C183.510966,66.294933 184.191788,66.7892286 184.770029,67.4420816 C185.34827,68.0949346 185.795934,68.9109886 186.113034,69.8902681 C186.430134,70.8695476 186.588682,72.0026969 186.588682,73.28975 C186.588682,74.5768031 186.430134,75.7052892 186.113034,76.6752422 C185.795934,77.6451953 185.34827,78.4565861 184.770029,79.1094391 C184.191788,79.7622921 183.510966,80.2565877 182.727542,80.5923407 C181.944118,80.9280936 181.095422,81.0959676 180.181428,81.0959676 C179.248781,81.0959676 178.395422,80.9280936 177.621324,80.5923407 C176.847227,80.2565877 176.171068,79.7622921 175.592827,79.1094391 C175.014586,78.4565861 174.566922,77.6451953 174.249822,76.6752422 C173.932722,75.7052892 173.774174,74.5768031 173.774174,73.28975 C173.774174,72.0026969 173.932722,70.8695476 174.249822,69.8902681 C174.566922,68.9109886 175.014586,68.0949346 175.592827,67.4420816 C176.171068,66.7892286 176.847227,66.294933 177.621324,65.95918 C178.395422,65.6234271 179.248781,65.4555531 180.181428,65.4555531 Z M180.181428,68.197522 C179.062252,68.197522 178.171587,68.6218701 177.509407,69.470579 C176.847228,70.3192879 176.516143,71.5923322 176.516143,73.28975 C176.516143,74.9871678 176.847228,76.2602121 177.509407,77.108921 C178.171587,77.9576299 179.062252,78.381978 180.181428,78.381978 C181.300605,78.381978 182.195933,77.9576299 182.867438,77.108921 C183.538944,76.2602121 183.874692,74.9871678 183.874692,73.28975 C183.874692,71.5923322 183.538944,70.3192879 182.867438,69.470579 C182.195933,68.6218701 181.300605,68.197522 180.181428,68.197522 Z M194.646713,65.3716153 C195.709931,65.3716153 196.642564,65.5021839 197.444641,65.7633251 C198.246717,66.0244663 198.955518,66.4441512 199.571065,67.0223925 L198.367957,69.2607345 C198.162774,69.0182462 197.896974,68.8130669 197.570547,68.6451904 C197.244121,68.4773139 196.899047,68.3374189 196.535314,68.2255013 C196.171582,68.1135836 195.812518,68.0343098 195.458112,67.9876775 C195.103706,67.9410451 194.795937,67.9177293 194.534796,67.9177293 C193.844637,67.9177293 193.280394,68.0436347 192.84205,68.2954495 C192.403706,68.5472642 192.184537,68.9156543 192.184537,69.4006308 C192.184537,69.7177309 192.259148,69.974205 192.408371,70.1700609 C192.557595,70.3659168 192.921322,70.6037382 193.499563,70.8835324 C193.853969,71.0514089 194.236348,71.2099565 194.646713,71.35918 C195.057078,71.5084036 195.4721,71.6622881 195.891791,71.8208381 C196.311482,71.9793881 196.731167,72.1425989 197.150858,72.3104754 C197.570549,72.4783519 197.966918,72.6742048 198.339977,72.8980402 C198.936872,73.271099 199.43583,73.7327524 199.836869,74.2830142 C200.237907,74.8332761 200.438423,75.5374141 200.438423,76.3954495 C200.438423,77.3280966 200.265886,78.0928558 199.920806,78.68975 C199.575727,79.2866442 199.132726,79.7576239 198.591791,80.1027034 C198.050855,80.4477828 197.439981,80.6902674 196.759148,80.8301645 C196.078316,80.9700616 195.392831,81.0400091 194.702672,81.0400091 C193.415619,81.0400091 192.291796,80.8814614 191.331169,80.5643614 C190.370542,80.2472614 189.49853,79.7995974 188.715107,79.2213562 L189.862257,76.955035 C190.421845,77.4213585 191.130647,77.7897486 191.988682,78.0602163 C192.846717,78.330684 193.723393,78.4659158 194.618734,78.4659158 C195.700605,78.4659158 196.48868,78.3073682 196.982983,77.9902681 C197.477286,77.6731681 197.724433,77.2441568 197.724433,76.7032215 C197.724433,76.2742038 197.61718,75.9291295 197.402672,75.6679883 C197.188163,75.4068471 196.754488,75.0990782 196.101635,74.7446723 C195.765882,74.5581428 195.383503,74.3856057 194.954485,74.2270557 C194.525467,74.0685057 194.08713,73.9006317 193.639459,73.7234288 C193.191789,73.5462258 192.744125,73.355036 192.296454,73.1498536 C191.848783,72.9446712 191.419772,72.7021866 191.009407,72.4223925 C190.524431,72.1052925 190.137388,71.7135865 189.848267,71.2472629 C189.559147,70.7809394 189.414589,70.1933805 189.414589,69.4845686 C189.414589,68.6824921 189.5778,68.0203226 189.904226,67.4980402 C190.230653,66.9757577 190.650337,66.5560728 191.163293,66.2389728 C191.676249,65.9218728 192.240492,65.6980408 192.85604,65.5674702 C193.471587,65.4368996 194.068472,65.3716153 194.646713,65.3716153 Z M207.069511,80.8441541 C206.677799,80.8441541 206.286093,80.7695435 205.894381,80.6203199 C205.50267,80.4710964 205.152932,80.2519276 204.845159,79.962807 C204.537385,79.6736864 204.290237,79.3146226 204.103708,78.8856049 C203.917178,78.4565872 203.823915,77.9529653 203.823915,77.3747241 L203.823915,68.197522 L202.005262,68.197522 L202.005262,65.8472629 L203.823915,65.8472629 L203.823915,61.678351 L206.621843,60.7270557 L206.621843,65.8472629 L209.615625,65.8472629 L209.615625,68.197522 L206.621843,68.197522 L206.621843,76.8990764 C206.621843,77.3280941 206.761738,77.6451894 207.041532,77.8503718 C207.321326,78.0555541 207.638421,78.1581438 207.992827,78.1581438 C208.384539,78.1581438 208.766918,78.0695436 209.139977,77.8923407 C209.513036,77.7151377 209.848784,77.4586636 210.147231,77.1229106 L209.559666,80.116693 C209.354484,80.3218754 209.023399,80.4944125 208.566402,80.6343096 C208.109405,80.7742067 207.610446,80.8441541 207.069511,80.8441541 Z M218.876765,65.4555531 C219.790759,65.4555531 220.639455,65.6234271 221.422879,65.95918 C222.206302,66.294933 222.887125,66.7892286 223.465366,67.4420816 C224.043607,68.0949346 224.491271,68.9109886 224.808371,69.8902681 C225.125471,70.8695476 225.284019,72.0026969 225.284019,73.28975 C225.284019,74.5768031 225.125471,75.7052892 224.808371,76.6752422 C224.491271,77.6451953 224.043607,78.4565861 223.465366,79.1094391 C222.887125,79.7622921 222.206302,80.2565877 221.422879,80.5923407 C220.639455,80.9280936 219.790759,81.0959676 218.876765,81.0959676 C217.944118,81.0959676 217.090758,80.9280936 216.316661,80.5923407 C215.542564,80.2565877 214.866405,79.7622921 214.288164,79.1094391 C213.709923,78.4565861 213.262259,77.6451953 212.945159,76.6752422 C212.628059,75.7052892 212.469511,74.5768031 212.469511,73.28975 C212.469511,72.0026969 212.628059,70.8695476 212.945159,69.8902681 C213.262259,68.9109886 213.709923,68.0949346 214.288164,67.4420816 C214.866405,66.7892286 215.542564,66.294933 216.316661,65.95918 C217.090758,65.6234271 217.944118,65.4555531 218.876765,65.4555531 Z M218.876765,68.197522 C217.757588,68.197522 216.866924,68.6218701 216.204744,69.470579 C215.542565,70.3192879 215.21148,71.5923322 215.21148,73.28975 C215.21148,74.9871678 215.542565,76.2602121 216.204744,77.108921 C216.866924,77.9576299 217.757588,78.381978 218.876765,78.381978 C219.995941,78.381978 220.891269,77.9576299 221.562775,77.108921 C222.234281,76.2602121 222.570029,74.9871678 222.570029,73.28975 C222.570029,71.5923322 222.234281,70.3192879 221.562775,69.470579 C220.891269,68.6218701 219.995941,68.197522 218.876765,68.197522 Z M231.439459,65.8472629 L231.439459,67.274206 C231.737906,66.6959647 232.190233,66.2483008 232.796454,65.9312008 C233.402675,65.6141007 234.050855,65.4555531 234.741014,65.4555531 C235.132725,65.4555531 235.515105,65.5115111 235.888164,65.6234288 C236.261223,65.7353464 236.578318,65.921873 236.839459,66.1830142 L235.832205,68.6731697 C235.29127,68.3001108 234.759669,68.1135842 234.237387,68.1135842 C233.043598,68.1135842 232.157597,69.008912 231.579356,70.7995946 L231.579356,80.7042578 L228.809407,80.7042578 L228.809407,65.8472629 L231.439459,65.8472629 Z M242.379356,65.8472629 L242.379356,80.7042578 L239.581428,80.7042578 L239.581428,65.8472629 L242.379356,65.8472629 Z M239.52547,62.181978 C239.52547,61.7716132 239.660701,61.4172126 239.931169,61.1187655 C240.201637,60.8203185 240.542048,60.6710971 240.952413,60.6710971 C241.362777,60.6710971 241.712515,60.8203185 242.001635,61.1187655 C242.290756,61.4172126 242.435314,61.7716132 242.435314,62.181978 C242.435314,62.5736898 242.290756,62.9094377 242.001635,63.1892319 C241.712515,63.469026 241.362777,63.608921 240.952413,63.608921 C240.542048,63.608921 240.201637,63.469026 239.931169,63.1892319 C239.660701,62.9094377 239.52547,62.5736898 239.52547,62.181978 Z M252.395936,65.4555531 C253.30993,65.4555531 254.153963,65.6280902 254.92806,65.9731697 C255.702157,66.3182491 256.36899,66.821871 256.928578,67.4840505 C257.488167,68.14623 257.921841,68.9529577 258.229615,69.9042578 C258.537388,70.8555579 258.691273,71.9374123 258.691273,73.1498536 C258.691273,73.4296478 258.644641,73.7560694 258.551376,74.1291282 L248.786609,74.1291282 C248.879874,75.528099 249.276243,76.6052903 249.975729,77.3607345 C250.675214,78.1161786 251.584531,78.4938951 252.703708,78.4938951 C253.337908,78.4938951 253.920804,78.3679896 254.452413,78.1161749 C254.984021,77.8643601 255.436349,77.523949 255.809407,77.0949313 L257.572102,78.6617707 C257.087125,79.3705826 256.38765,79.9534783 255.473656,80.4104754 C254.559662,80.8674725 253.580397,81.0959676 252.535832,81.0959676 C251.621838,81.0959676 250.768479,80.9280936 249.975729,80.5923407 C249.182979,80.2565877 248.497493,79.7622921 247.919252,79.1094391 C247.341011,78.4565861 246.888684,77.6451953 246.562257,76.6752422 C246.235831,75.7052892 246.07262,74.5768031 246.07262,73.28975 C246.07262,72.0026969 246.226504,70.8695476 246.534278,69.8902681 C246.842051,68.9109886 247.275726,68.0949346 247.835314,67.4420816 C248.394902,66.7892286 249.061735,66.294933 249.835832,65.95918 C250.609929,65.6234271 251.463289,65.4555531 252.395936,65.4555531 Z M252.395936,68.0296464 C251.388677,68.0296464 250.581949,68.3607311 249.975729,69.0229106 C249.369508,69.6850901 249.001118,70.6596917 248.870547,71.9467448 L255.893345,71.9467448 C255.762775,70.6596917 255.389721,69.6850901 254.774174,69.0229106 C254.158627,68.3607311 253.365889,68.0296464 252.395936,68.0296464 Z M266.49749,65.3716153 C267.560708,65.3716153 268.493341,65.5021839 269.295418,65.7633251 C270.097494,66.0244663 270.806295,66.4441512 271.421843,67.0223925 L270.218734,69.2607345 C270.013551,69.0182462 269.747751,68.8130669 269.421324,68.6451904 C269.094898,68.4773139 268.749824,68.3374189 268.386091,68.2255013 C268.022359,68.1135836 267.663295,68.0343098 267.308889,67.9876775 C266.954483,67.9410451 266.646714,67.9177293 266.385573,67.9177293 C265.695414,67.9177293 265.131171,68.0436347 264.692827,68.2954495 C264.254483,68.5472642 264.035314,68.9156543 264.035314,69.4006308 C264.035314,69.7177309 264.109925,69.974205 264.259148,70.1700609 C264.408372,70.3659168 264.772099,70.6037382 265.35034,70.8835324 C265.704746,71.0514089 266.087126,71.2099565 266.49749,71.35918 C266.907855,71.5084036 267.322877,71.6622881 267.742568,71.8208381 C268.162259,71.9793881 268.581944,72.1425989 269.001635,72.3104754 C269.421327,72.4783519 269.817696,72.6742048 270.190755,72.8980402 C270.787649,73.271099 271.286607,73.7327524 271.687646,74.2830142 C272.088684,74.8332761 272.2892,75.5374141 272.2892,76.3954495 C272.2892,77.3280966 272.116663,78.0928558 271.771584,78.68975 C271.426504,79.2866442 270.983503,79.7576239 270.442568,80.1027034 C269.901633,80.4477828 269.290758,80.6902674 268.609926,80.8301645 C267.929093,80.9700616 267.243608,81.0400091 266.553449,81.0400091 C265.266396,81.0400091 264.142573,80.8814614 263.181946,80.5643614 C262.22132,80.2472614 261.349308,79.7995974 260.565884,79.2213562 L261.713034,76.955035 C262.272623,77.4213585 262.981424,77.7897486 263.839459,78.0602163 C264.697495,78.330684 265.57417,78.4659158 266.469511,78.4659158 C267.551382,78.4659158 268.339457,78.3073682 268.83376,77.9902681 C269.328063,77.6731681 269.57521,77.2441568 269.57521,76.7032215 C269.57521,76.2742038 269.467958,75.9291295 269.253449,75.6679883 C269.03894,75.4068471 268.605266,75.0990782 267.952413,74.7446723 C267.61666,74.5581428 267.23428,74.3856057 266.805262,74.2270557 C266.376245,74.0685057 265.937907,73.9006317 265.490236,73.7234288 C265.042566,73.5462258 264.594902,73.355036 264.147231,73.1498536 C263.699561,72.9446712 263.270549,72.7021866 262.860185,72.4223925 C262.375208,72.1052925 261.988165,71.7135865 261.699045,71.2472629 C261.409924,70.7809394 261.265366,70.1933805 261.265366,69.4845686 C261.265366,68.6824921 261.428577,68.0203226 261.755003,67.4980402 C262.08143,66.9757577 262.501115,66.5560728 263.014071,66.2389728 C263.527027,65.9218728 264.09127,65.6980408 264.706817,65.5674702 C265.322364,65.4368996 265.919249,65.3716153 266.49749,65.3716153 Z" id="Photostories" fill="#474A4E"></path>
                </g>
            </g>
        </g>
    </g>
</svg>