<svg xmlns="http://www.w3.org/2000/svg" width="36" height="36" viewBox="0 0 36 36"><title>hatch</title><g id="background_colors" data-name="background colors"><rect width="36" height="36" fill="#f2ede9"/></g><g id="fills"><polygon points="0 24 0 24.354 11.646 36 12 36 12.354 36 0 23.646 0 24" fill="#7f7f7f"/><polygon points="0 36 0.354 36 0 35.646 0 36" fill="#7f7f7f"/><polygon points="0 12 0 12.354 23.646 36 24 36 24.354 36 0 11.646 0 12" fill="#7f7f7f"/><polygon points="0 0 0 0.354 35.646 36 36 36 36 35.646 0.354 0 0 0" fill="#7f7f7f"/><polygon points="12 0 11.646 0 36 24.354 36 24 36 23.646 12.354 0 12 0" fill="#7f7f7f"/><polygon points="24 0 23.646 0 36 12.354 36 12 36 11.646 24.354 0 24 0" fill="#7f7f7f"/><polygon points="35.646 0 36 0.354 36 0 35.646 0" fill="#7f7f7f"/></g></svg>