<svg xmlns="http://www.w3.org/2000/svg" width="36" height="36" viewBox="0 0 36 36"><title>hatch</title><g id="background_colors" data-name="background colors"><rect width="36" height="36" fill="#f2ede9"/></g><g id="fills"><polygon points="0 20 0 20.354 15.646 36 16 36 16.354 36 0 19.646 0 20" fill="#7f7f7f"/><polygon points="0 24 0 24.354 11.646 36 12 36 12.354 36 0 23.646 0 24" fill="#7f7f7f"/><polygon points="0 28 0 28.354 7.646 36 8 36 8.354 36 0 27.646 0 28" fill="#7f7f7f"/><polygon points="0 32 0 32.354 3.646 36 4 36 4.354 36 0 31.646 0 32" fill="#7f7f7f"/><polygon points="0 36 0.354 36 0 35.646 0 36" fill="#7f7f7f"/><polygon points="0 16 0 16.354 19.646 36 20 36 20.354 36 0 15.646 0 16" fill="#7f7f7f"/><polygon points="0 12 0 12.354 23.646 36 24 36 24.354 36 0 11.646 0 12" fill="#7f7f7f"/><polygon points="0 8 0 8.354 27.646 36 28 36 28.354 36 0 7.646 0 8" fill="#7f7f7f"/><polygon points="0 4 0 4.354 31.646 36 32 36 32.354 36 0 3.646 0 4" fill="#7f7f7f"/><polygon points="0 0 0 0.354 35.646 36 36 36 36 35.646 0.354 0 0 0" fill="#7f7f7f"/><polygon points="4 0 3.646 0 36 32.354 36 32 36 31.646 4.354 0 4 0" fill="#7f7f7f"/><polygon points="8 0 7.646 0 36 28.354 36 28 36 27.646 8.354 0 8 0" fill="#7f7f7f"/><polygon points="12 0 11.646 0 36 24.354 36 24 36 23.646 12.354 0 12 0" fill="#7f7f7f"/><polygon points="16 0 15.646 0 36 20.354 36 20 36 19.646 16.354 0 16 0" fill="#7f7f7f"/><polygon points="20 0 19.646 0 36 16.354 36 16 36 15.646 20.354 0 20 0" fill="#7f7f7f"/><polygon points="24 0 23.646 0 36 12.354 36 12 36 11.646 24.354 0 24 0" fill="#7f7f7f"/><polygon points="28 0 27.646 0 36 8.354 36 8 36 7.646 28.354 0 28 0" fill="#7f7f7f"/><polygon points="32 0 31.646 0 36 4.354 36 4 36 3.646 32.354 0 32 0" fill="#7f7f7f"/><polygon points="35.646 0 36 0.354 36 0 35.646 0" fill="#7f7f7f"/></g></svg>