<svg xmlns="http://www.w3.org/2000/svg" width="36" height="36" viewBox="0 0 36 36"><title>hatch</title><g id="background_colors" data-name="background colors"><rect width="36" height="36" fill="#f2ede9"/></g><g id="fills"><path d="M36,1.125A1.1265,1.1265,0,0,1,34.875,0a1.125,1.125,0,1,1,2.25,0A1.1265,1.1265,0,0,1,36,1.125Zm0-2A.8761.8761,0,0,0,35.125,0,.8761.8761,0,0,0,36,.875.8761.8761,0,0,0,36.875,0,.8761.8761,0,0,0,36-.875Z" fill="#7f7f7f"/><path d="M36,5.625A1.125,1.125,0,1,1,37.125,4.5,1.1265,1.1265,0,0,1,36,5.625Zm0-2a.875.875,0,1,0,.875.875A.8761.8761,0,0,0,36,3.625Z" fill="#7f7f7f"/><path d="M36,10.125A1.125,1.125,0,1,1,37.125,9,1.1265,1.1265,0,0,1,36,10.125Zm0-2A.875.875,0,1,0,36.875,9,.8761.8761,0,0,0,36,8.125Z" fill="#7f7f7f"/><path d="M36,14.625A1.125,1.125,0,1,1,37.125,13.5,1.1265,1.1265,0,0,1,36,14.625Zm0-2a.875.875,0,1,0,.875.875A.8761.8761,0,0,0,36,12.625Z" fill="#7f7f7f"/><path d="M36,19.125A1.125,1.125,0,1,1,37.125,18,1.1265,1.1265,0,0,1,36,19.125Zm0-2a.875.875,0,1,0,.875.875A.8761.8761,0,0,0,36,17.125Z" fill="#7f7f7f"/><path d="M36,23.625A1.125,1.125,0,1,1,37.125,22.5,1.1265,1.1265,0,0,1,36,23.625Zm0-2a.875.875,0,1,0,.875.875A.8761.8761,0,0,0,36,21.625Z" fill="#7f7f7f"/><path d="M36,28.125A1.125,1.125,0,1,1,37.125,27,1.1265,1.1265,0,0,1,36,28.125Zm0-2a.875.875,0,1,0,.875.875A.8761.8761,0,0,0,36,26.125Z" fill="#7f7f7f"/><path d="M36,32.625A1.125,1.125,0,1,1,37.125,31.5,1.1265,1.1265,0,0,1,36,32.625Zm0-2a.875.875,0,1,0,.875.875A.8761.8761,0,0,0,36,30.625Z" fill="#7f7f7f"/><path d="M36,37.125A1.125,1.125,0,1,1,37.125,36,1.1265,1.1265,0,0,1,36,37.125Zm0-2a.875.875,0,1,0,.875.875A.8761.8761,0,0,0,36,35.125Z" fill="#7f7f7f"/><path d="M0,1.125A1.1265,1.1265,0,0,1-1.125,0,1.1265,1.1265,0,0,1,0-1.125,1.1265,1.1265,0,0,1,1.125,0,1.1265,1.1265,0,0,1,0,1.125Zm0-2A.8761.8761,0,0,0-.875,0,.8761.8761,0,0,0,0,.875.8761.8761,0,0,0,.875,0,.8761.8761,0,0,0,0-.875Z" fill="#7f7f7f"/><path d="M0,5.625a1.125,1.125,0,0,1,0-2.25A1.1265,1.1265,0,0,1,1.125,4.5,1.1265,1.1265,0,0,1,0,5.625Zm0-2a.875.875,0,0,0,0,1.75A.8761.8761,0,0,0,.875,4.5.8761.8761,0,0,0,0,3.625Z" fill="#7f7f7f"/><path d="M0,10.125a1.125,1.125,0,1,1,0-2.25A1.1265,1.1265,0,0,1,1.125,9,1.1265,1.1265,0,0,1,0,10.125Zm0-2a.875.875,0,0,0,0,1.75A.8761.8761,0,0,0,.875,9,.8761.8761,0,0,0,0,8.125Z" fill="#7f7f7f"/><path d="M0,14.625a1.125,1.125,0,0,1,0-2.25A1.1265,1.1265,0,0,1,1.125,13.5,1.1265,1.1265,0,0,1,0,14.625Zm0-2a.875.875,0,0,0,0,1.75A.8761.8761,0,0,0,.875,13.5.8761.8761,0,0,0,0,12.625Z" fill="#7f7f7f"/><path d="M0,19.125a1.125,1.125,0,0,1,0-2.25A1.1265,1.1265,0,0,1,1.125,18,1.1265,1.1265,0,0,1,0,19.125Zm0-2a.875.875,0,0,0,0,1.75A.8761.8761,0,0,0,.875,18,.8761.8761,0,0,0,0,17.125Z" fill="#7f7f7f"/><path d="M0,23.625a1.125,1.125,0,0,1,0-2.25A1.1265,1.1265,0,0,1,1.125,22.5,1.1265,1.1265,0,0,1,0,23.625Zm0-2a.875.875,0,0,0,0,1.75A.8761.8761,0,0,0,.875,22.5.8761.8761,0,0,0,0,21.625Z" fill="#7f7f7f"/><path d="M0,28.125a1.125,1.125,0,0,1,0-2.25A1.1265,1.1265,0,0,1,1.125,27,1.1265,1.1265,0,0,1,0,28.125Zm0-2a.875.875,0,0,0,0,1.75A.8761.8761,0,0,0,.875,27,.8761.8761,0,0,0,0,26.125Z" fill="#7f7f7f"/><path d="M0,32.625a1.125,1.125,0,0,1,0-2.25A1.1265,1.1265,0,0,1,1.125,31.5,1.1265,1.1265,0,0,1,0,32.625Zm0-2a.875.875,0,0,0,0,1.75A.8761.8761,0,0,0,.875,31.5.8761.8761,0,0,0,0,30.625Z" fill="#7f7f7f"/><path d="M0,37.125a1.125,1.125,0,0,1,0-2.25A1.1265,1.1265,0,0,1,1.125,36,1.1265,1.1265,0,0,1,0,37.125Zm0-2a.875.875,0,0,0,0,1.75A.8761.8761,0,0,0,.875,36,.8761.8761,0,0,0,0,35.125Z" fill="#7f7f7f"/><path d="M18,3.125A1.125,1.125,0,1,1,19.125,2,1.1265,1.1265,0,0,1,18,3.125Zm0-2A.875.875,0,1,0,18.875,2,.8761.8761,0,0,0,18,1.125Z" fill="#7f7f7f"/><path d="M18,7.625A1.125,1.125,0,1,1,19.125,6.5,1.1265,1.1265,0,0,1,18,7.625Zm0-2a.875.875,0,1,0,.875.875A.8761.8761,0,0,0,18,5.625Z" fill="#7f7f7f"/><path d="M18,12.125A1.125,1.125,0,1,1,19.125,11,1.1265,1.1265,0,0,1,18,12.125Zm0-2a.875.875,0,1,0,.875.875A.8761.8761,0,0,0,18,10.125Z" fill="#7f7f7f"/><path d="M18,16.625A1.125,1.125,0,1,1,19.125,15.5,1.1265,1.1265,0,0,1,18,16.625Zm0-2a.875.875,0,1,0,.875.875A.8761.8761,0,0,0,18,14.625Z" fill="#7f7f7f"/><path d="M18,21.125A1.125,1.125,0,1,1,19.125,20,1.1265,1.1265,0,0,1,18,21.125Zm0-2a.875.875,0,1,0,.875.875A.8761.8761,0,0,0,18,19.125Z" fill="#7f7f7f"/><path d="M18,25.625A1.125,1.125,0,1,1,19.125,24.5,1.1265,1.1265,0,0,1,18,25.625Zm0-2a.875.875,0,1,0,.875.875A.8761.8761,0,0,0,18,23.625Z" fill="#7f7f7f"/><path d="M18,30.125A1.125,1.125,0,1,1,19.125,29,1.1265,1.1265,0,0,1,18,30.125Zm0-2a.875.875,0,1,0,.875.875A.8761.8761,0,0,0,18,28.125Z" fill="#7f7f7f"/><path d="M18,34.625A1.125,1.125,0,1,1,19.125,33.5,1.1265,1.1265,0,0,1,18,34.625Zm0-2a.875.875,0,1,0,.875.875A.8761.8761,0,0,0,18,32.625Z" fill="#7f7f7f"/><path d="M6,3.125A1.125,1.125,0,1,1,7.125,2,1.1265,1.1265,0,0,1,6,3.125Zm0-2A.875.875,0,1,0,6.875,2,.8761.8761,0,0,0,6,1.125Z" fill="#7f7f7f"/><path d="M6,7.625A1.125,1.125,0,1,1,7.125,6.5,1.1265,1.1265,0,0,1,6,7.625Zm0-2a.875.875,0,1,0,.875.875A.8761.8761,0,0,0,6,5.625Z" fill="#7f7f7f"/><path d="M6,12.125A1.125,1.125,0,1,1,7.125,11,1.1265,1.1265,0,0,1,6,12.125Zm0-2A.875.875,0,1,0,6.875,11,.8761.8761,0,0,0,6,10.125Z" fill="#7f7f7f"/><path d="M6,16.625A1.125,1.125,0,1,1,7.125,15.5,1.1265,1.1265,0,0,1,6,16.625Zm0-2a.875.875,0,1,0,.875.875A.8761.8761,0,0,0,6,14.625Z" fill="#7f7f7f"/><path d="M6,21.125A1.125,1.125,0,1,1,7.125,20,1.1265,1.1265,0,0,1,6,21.125Zm0-2A.875.875,0,1,0,6.875,20,.8761.8761,0,0,0,6,19.125Z" fill="#7f7f7f"/><path d="M6,25.625A1.125,1.125,0,1,1,7.125,24.5,1.1265,1.1265,0,0,1,6,25.625Zm0-2a.875.875,0,1,0,.875.875A.8761.8761,0,0,0,6,23.625Z" fill="#7f7f7f"/><path d="M6,30.125A1.125,1.125,0,1,1,7.125,29,1.1265,1.1265,0,0,1,6,30.125Zm0-2A.875.875,0,1,0,6.875,29,.8761.8761,0,0,0,6,28.125Z" fill="#7f7f7f"/><path d="M6,34.625A1.125,1.125,0,1,1,7.125,33.5,1.1265,1.1265,0,0,1,6,34.625Zm0-2a.875.875,0,1,0,.875.875A.8761.8761,0,0,0,6,32.625Z" fill="#7f7f7f"/><path d="M12,1.125A1.1265,1.1265,0,0,1,10.875,0a1.125,1.125,0,1,1,2.25,0A1.1265,1.1265,0,0,1,12,1.125Zm0-2A.8761.8761,0,0,0,11.125,0,.8761.8761,0,0,0,12,.875.8761.8761,0,0,0,12.875,0,.8761.8761,0,0,0,12-.875Z" fill="#7f7f7f"/><path d="M12,5.625A1.125,1.125,0,1,1,13.125,4.5,1.1265,1.1265,0,0,1,12,5.625Zm0-2a.875.875,0,1,0,.875.875A.8761.8761,0,0,0,12,3.625Z" fill="#7f7f7f"/><path d="M12,10.125A1.125,1.125,0,1,1,13.125,9,1.1265,1.1265,0,0,1,12,10.125Zm0-2A.875.875,0,1,0,12.875,9,.8761.8761,0,0,0,12,8.125Z" fill="#7f7f7f"/><path d="M12,14.625A1.125,1.125,0,1,1,13.125,13.5,1.1265,1.1265,0,0,1,12,14.625Zm0-2a.875.875,0,1,0,.875.875A.8761.8761,0,0,0,12,12.625Z" fill="#7f7f7f"/><path d="M12,19.125A1.125,1.125,0,1,1,13.125,18,1.1265,1.1265,0,0,1,12,19.125Zm0-2a.875.875,0,1,0,.875.875A.8761.8761,0,0,0,12,17.125Z" fill="#7f7f7f"/><path d="M12,23.625A1.125,1.125,0,1,1,13.125,22.5,1.1265,1.1265,0,0,1,12,23.625Zm0-2a.875.875,0,1,0,.875.875A.8761.8761,0,0,0,12,21.625Z" fill="#7f7f7f"/><path d="M12,28.125A1.125,1.125,0,1,1,13.125,27,1.1265,1.1265,0,0,1,12,28.125Zm0-2a.875.875,0,1,0,.875.875A.8761.8761,0,0,0,12,26.125Z" fill="#7f7f7f"/><path d="M12,32.625A1.125,1.125,0,1,1,13.125,31.5,1.1265,1.1265,0,0,1,12,32.625Zm0-2a.875.875,0,1,0,.875.875A.8761.8761,0,0,0,12,30.625Z" fill="#7f7f7f"/><path d="M12,37.125A1.125,1.125,0,1,1,13.125,36,1.1265,1.1265,0,0,1,12,37.125Zm0-2a.875.875,0,1,0,.875.875A.8761.8761,0,0,0,12,35.125Z" fill="#7f7f7f"/><path d="M30,3.125A1.125,1.125,0,1,1,31.125,2,1.1265,1.1265,0,0,1,30,3.125Zm0-2A.875.875,0,1,0,30.875,2,.8761.8761,0,0,0,30,1.125Z" fill="#7f7f7f"/><path d="M30,7.625A1.125,1.125,0,1,1,31.125,6.5,1.1265,1.1265,0,0,1,30,7.625Zm0-2a.875.875,0,1,0,.875.875A.8761.8761,0,0,0,30,5.625Z" fill="#7f7f7f"/><path d="M30,12.125A1.125,1.125,0,1,1,31.125,11,1.1265,1.1265,0,0,1,30,12.125Zm0-2a.875.875,0,1,0,.875.875A.8761.8761,0,0,0,30,10.125Z" fill="#7f7f7f"/><path d="M30,16.625A1.125,1.125,0,1,1,31.125,15.5,1.1265,1.1265,0,0,1,30,16.625Zm0-2a.875.875,0,1,0,.875.875A.8761.8761,0,0,0,30,14.625Z" fill="#7f7f7f"/><path d="M30,21.125A1.125,1.125,0,1,1,31.125,20,1.1265,1.1265,0,0,1,30,21.125Zm0-2a.875.875,0,1,0,.875.875A.8761.8761,0,0,0,30,19.125Z" fill="#7f7f7f"/><path d="M30,25.625A1.125,1.125,0,1,1,31.125,24.5,1.1265,1.1265,0,0,1,30,25.625Zm0-2a.875.875,0,1,0,.875.875A.8761.8761,0,0,0,30,23.625Z" fill="#7f7f7f"/><path d="M30,30.125A1.125,1.125,0,1,1,31.125,29,1.1265,1.1265,0,0,1,30,30.125Zm0-2a.875.875,0,1,0,.875.875A.8761.8761,0,0,0,30,28.125Z" fill="#7f7f7f"/><path d="M30,34.625A1.125,1.125,0,1,1,31.125,33.5,1.1265,1.1265,0,0,1,30,34.625Zm0-2a.875.875,0,1,0,.875.875A.8761.8761,0,0,0,30,32.625Z" fill="#7f7f7f"/><path d="M24,1.125A1.1265,1.1265,0,0,1,22.875,0a1.125,1.125,0,1,1,2.25,0A1.1265,1.1265,0,0,1,24,1.125Zm0-2A.8761.8761,0,0,0,23.125,0,.8761.8761,0,0,0,24,.875.8761.8761,0,0,0,24.875,0,.8761.8761,0,0,0,24-.875Z" fill="#7f7f7f"/><path d="M24,5.625A1.125,1.125,0,1,1,25.125,4.5,1.1265,1.1265,0,0,1,24,5.625Zm0-2a.875.875,0,1,0,.875.875A.8761.8761,0,0,0,24,3.625Z" fill="#7f7f7f"/><path d="M24,10.125A1.125,1.125,0,1,1,25.125,9,1.1265,1.1265,0,0,1,24,10.125Zm0-2A.875.875,0,1,0,24.875,9,.8761.8761,0,0,0,24,8.125Z" fill="#7f7f7f"/><path d="M24,14.625A1.125,1.125,0,1,1,25.125,13.5,1.1265,1.1265,0,0,1,24,14.625Zm0-2a.875.875,0,1,0,.875.875A.8761.8761,0,0,0,24,12.625Z" fill="#7f7f7f"/><path d="M24,19.125A1.125,1.125,0,1,1,25.125,18,1.1265,1.1265,0,0,1,24,19.125Zm0-2a.875.875,0,1,0,.875.875A.8761.8761,0,0,0,24,17.125Z" fill="#7f7f7f"/><path d="M24,23.625A1.125,1.125,0,1,1,25.125,22.5,1.1265,1.1265,0,0,1,24,23.625Zm0-2a.875.875,0,1,0,.875.875A.8761.8761,0,0,0,24,21.625Z" fill="#7f7f7f"/><path d="M24,28.125A1.125,1.125,0,1,1,25.125,27,1.1265,1.1265,0,0,1,24,28.125Zm0-2a.875.875,0,1,0,.875.875A.8761.8761,0,0,0,24,26.125Z" fill="#7f7f7f"/><path d="M24,32.625A1.125,1.125,0,1,1,25.125,31.5,1.1265,1.1265,0,0,1,24,32.625Zm0-2a.875.875,0,1,0,.875.875A.8761.8761,0,0,0,24,30.625Z" fill="#7f7f7f"/><path d="M24,37.125A1.125,1.125,0,1,1,25.125,36,1.1265,1.1265,0,0,1,24,37.125Zm0-2a.875.875,0,1,0,.875.875A.8761.8761,0,0,0,24,35.125Z" fill="#7f7f7f"/></g></svg>