<svg xmlns="http://www.w3.org/2000/svg" viewBox="0 0 30 21" height="21" width="30"><title>at-motorway-2.svg</title><g><path fill="#3b4ba6" d="M4.5 0.75L25.5 0.75A3.75 3.75 0 0 1 29.25 4.5L29.25 16.5A3.75 3.75 0 0 1 25.5 20.25L4.5 20.25A3.75 3.75 0 0 1 0.75 16.5L0.75 4.5A3.75 3.75 0 0 1 4.5 0.75"></path><path fill="#ffffff" d="M25.5 1.5a3 3 0 0 1 3 3v12a3 3 0 0 1-3 3H4.5a3 3 0 0 1-3-3V4.5A3 3 0 0 1 4.5 1.5H25.5m0-1.5H4.5A4.5 4.5 0 0 0 0 4.5v12a4.5 4.5 0 0 0 4.5 4.5H25.5a4.5 4.5 0 0 0 4.5-4.5V4.5a4.5 4.5 0 0 0-4.5-4.5Z"></path></g></svg>