<svg xmlns="http://www.w3.org/2000/svg" viewBox="0 0 39 33" height="33" width="39"><title>br-federal-3.svg</title><path fill="none" d="M0 0L39 0 39 33 0 33z"></path><g><path fill="#ffffff" d="M19.5 32.25a0.75 0.75 0 0 1-0.5249999999999999-0.21000000000000002c-2.295-2.25-4.5-3-8.475000000000001-3-1.2449999999999999 0-2.7 0.09-4.425000000000001 0.255l-0.585 0C2.6550000000000002 29.28 0.75 27.150000000000002 0.75 24V4.5A0.75 0.75 0 0 1 1.5 3.75H37.5a0.75 0.75 0 0 1 0.75 0.75V24a5.5649999999999995 5.5649999999999995 0 0 1-1.335 3.81 4.5 4.5 0 0 1-3.3899999999999997 1.5h0l-0.615 0a33.285000000000004 33.285000000000004 0 0 0-3.75-0.22499999999999998c-4.095 0-7.005 0.96-9.149999999999999 3A0.75 0.75 0 0 1 19.5 32.25Z"></path><path fill="#222" d="M37.5 4.5V24a4.0649999999999995 4.0649999999999995 0 0 1-3.9749999999999996 4.5L33 28.5a33.75 33.75 0 0 0-3.8249999999999997-0.24c-4.11 0-7.305 0.96-9.675 3.24-2.31-2.265-4.65-3.2700000000000005-9-3.2700000000000005-1.305 0-2.79 0.09-4.5 0.27l-0.51 0C3.21 28.5 1.5 27 1.5 24V4.5H37.5m0-1.5H1.5A1.5 1.5 0 0 0 0 4.5V24c0 3.5999999999999996 2.205 6 5.49 6l0.66 0c1.71-0.165 3.12-0.255 4.35-0.255 4.2299999999999995 0 6.12 1.035 7.949999999999999 2.835a1.5 1.5 0 0 0 2.085 0c2.0100000000000002-1.92 4.755-2.82 8.64-2.82a32.46 32.46 0 0 1 3.66 0.22499999999999998l0.6900000000000001 0A5.58 5.58 0 0 0 39 24V4.5a1.5 1.5 0 0 0-1.5-1.5Z"></path></g></svg>