<svg xmlns="http://www.w3.org/2000/svg" viewBox="0 0 42 30" height="30" width="42"><title>br-state-3.svg</title><path fill="none" d="M0 0L42 0 42 30 0 30z"></path><g><path fill="#ffffff" d="M9 26.25a0.75 0.75 0 0 1-0.675-0.42000000000000004l-7.5-15a0.75 0.75 0 0 1 0.36-1.02l19.5-9a0.75 0.75 0 0 1 0.63 0l19.5 9a0.75 0.75 0 0 1 0.36 1.02l-7.5 15a0.75 0.75 0 0 1-0.675 0.42000000000000004Z"></path><path fill="#222" d="M21 1.5L40.5 10.5 33 25.5H9L1.5 10.5 21 1.5m0-1.5a1.5 1.5 0 0 0-0.63 0.135l-19.5 9A1.5 1.5 0 0 0 0.165 11.175l7.5 15A1.5 1.5 0 0 0 9 27H33a1.5 1.5 0 0 0 1.335-0.8250000000000001l7.5-15a1.5 1.5 0 0 0-0.72-2.04l-19.5-9A1.5 1.5 0 0 0 21 0Z"></path></g></svg>