<svg xmlns="http://www.w3.org/2000/svg" viewBox="0 0 30 21" height="21" width="30"><title>cz-motorway-2.svg</title><g><path fill="#cc2929" d="M4.455 0.885L25.455 0.885A3.75 3.75 0 0 1 29.205 4.635L29.205 16.634999999999998A3.75 3.75 0 0 1 25.455 20.384999999999998L4.455 20.384999999999998A3.75 3.75 0 0 1 0.705 16.634999999999998L0.705 4.635A3.75 3.75 0 0 1 4.455 0.885"></path><path fill="#ffffff" d="M25.5 1.6350000000000002a3 3 0 0 1 3 3v12a3 3 0 0 1-3 3H4.5a3 3 0 0 1-3-3v-12a3 3 0 0 1 3-3H25.5m0-1.5H4.5a4.5 4.5 0 0 0-4.5 4.5v12a4.5 4.5 0 0 0 4.5 4.5H25.5a4.5 4.5 0 0 0 4.5-4.5v-12a4.5 4.5 0 0 0-4.5-4.5Z"></path></g></svg>