<svg xmlns="http://www.w3.org/2000/svg" viewBox="0 0 42 24" height="24" width="42"><title>de-motorway-3.svg</title><g><g><path fill="#3b4ba6" d="M4.35 20.235A3.915 3.915 0 0 1 0.75 16.5V7.5A3.945 3.945 0 0 1 4.5 3.75l16.5-3 16.65 3A3.915 3.915 0 0 1 41.25 7.5v9A3.945 3.945 0 0 1 37.5 20.25l-16.5 3Z"></path><path fill="#ffffff" d="M21 1.5L37.5 4.5a3.2249999999999996 3.2249999999999996 0 0 1 3 3v9a3.2249999999999996 3.2249999999999996 0 0 1-3 3L21 22.5 4.5 19.5a3.2249999999999996 3.2249999999999996 0 0 1-3-3V7.5A3.2249999999999996 3.2249999999999996 0 0 1 4.5 4.5L21 1.5m0-1.5l-0.27 0L4.35 3A4.755 4.755 0 0 0 0 7.5v9a4.755 4.755 0 0 0 4.35 4.5l16.38 3L21 24l0.27 0L37.650000000000006 21A4.755 4.755 0 0 0 42 16.5V7.5a4.755 4.755 0 0 0-4.35-4.5L21.27 0 21 0Z"></path></g><g><path fill="#3b4ba6" d="M4.35 20.235A3.915 3.915 0 0 1 0.75 16.5V7.5A3.945 3.945 0 0 1 4.5 3.75l16.5-3 16.65 3A3.915 3.915 0 0 1 41.25 7.5v9A3.945 3.945 0 0 1 37.5 20.25l-16.5 3Z"></path><path fill="#ffffff" d="M21 1.5L37.5 4.5a3.2249999999999996 3.2249999999999996 0 0 1 3 3v9a3.2249999999999996 3.2249999999999996 0 0 1-3 3L21 22.5 4.5 19.5a3.2249999999999996 3.2249999999999996 0 0 1-3-3V7.5A3.2249999999999996 3.2249999999999996 0 0 1 4.5 4.5L21 1.5m0-1.5l-0.27 0L4.35 3A4.755 4.755 0 0 0 0 7.5v9a4.755 4.755 0 0 0 4.35 4.5l16.38 3L21 24l0.27 0L37.650000000000006 21A4.755 4.755 0 0 0 42 16.5V7.5a4.755 4.755 0 0 0-4.35-4.5L21.27 0 21 0Z"></path></g></g></svg>