<svg xmlns="http://www.w3.org/2000/svg" viewBox="0 0 57 21" height="21" width="57"><title>default-5.svg</title><g><path fill="#ffffff" d="M4.5 0.75L52.5 0.75A3.75 3.75 0 0 1 56.25 4.5L56.25 16.5A3.75 3.75 0 0 1 52.5 20.25L4.5 20.25A3.75 3.75 0 0 1 0.75 16.5L0.75 4.5A3.75 3.75 0 0 1 4.5 0.75"></path><path fill="#222" d="M52.5 1.5a3 3 0 0 1 3 3v12a3 3 0 0 1-3 3H4.5a3 3 0 0 1-3-3V4.5A3 3 0 0 1 4.5 1.5H52.5m0-1.5H4.5A4.5 4.5 0 0 0 0 4.5v12a4.5 4.5 0 0 0 4.5 4.5H52.5a4.5 4.5 0 0 0 4.5-4.5V4.5a4.5 4.5 0 0 0-4.5-4.5Z"></path></g></svg>