<svg xmlns="http://www.w3.org/2000/svg" viewBox="0 0 51 24" height="24" width="51"><title>hr-motorway-4.svg</title><g><g><path fill="#0e8c38" d="M4.38 20.235A3.93 3.93 0 0 1 0.75 16.5V7.5A3.945 3.945 0 0 1 4.5 3.75L25.125 0.75l21.495 3A3.93 3.93 0 0 1 50.25 7.5v9A3.945 3.945 0 0 1 46.5 20.25l-21.375 3Z"></path><path fill="#ffffff" d="M25.125 1.5L46.5 4.5a3.2249999999999996 3.2249999999999996 0 0 1 3 3v9a3.2249999999999996 3.2249999999999996 0 0 1-3 3L25.125 22.5 4.5 19.5a3.2249999999999996 3.2249999999999996 0 0 1-3-3V7.5A3.2249999999999996 3.2249999999999996 0 0 1 4.5 4.5L25.125 1.5m0-1.5l-0.21000000000000002 0L4.38 3A4.755 4.755 0 0 0 0 7.5v9a4.755 4.755 0 0 0 4.38 4.5l20.535 3 0.21000000000000002 0 0.21000000000000002 0 21.285-3A4.755 4.755 0 0 0 51 16.5V7.5a4.755 4.755 0 0 0-4.38-4.5L25.335 0l-0.21000000000000002 0Z"></path></g><g><path fill="#0e8c38" d="M4.38 20.235A3.93 3.93 0 0 1 0.75 16.5V7.5A3.945 3.945 0 0 1 4.5 3.75L25.125 0.75l21.495 3A3.93 3.93 0 0 1 50.25 7.5v9A3.945 3.945 0 0 1 46.5 20.25l-21.375 3Z"></path><path fill="#ffffff" d="M25.125 1.5L46.5 4.5a3.2249999999999996 3.2249999999999996 0 0 1 3 3v9a3.2249999999999996 3.2249999999999996 0 0 1-3 3L25.125 22.5 4.5 19.5a3.2249999999999996 3.2249999999999996 0 0 1-3-3V7.5A3.2249999999999996 3.2249999999999996 0 0 1 4.5 4.5L25.125 1.5m0-1.5l-0.21000000000000002 0L4.38 3A4.755 4.755 0 0 0 0 7.5v9a4.755 4.755 0 0 0 4.38 4.5l20.535 3 0.21000000000000002 0 0.21000000000000002 0 21.285-3A4.755 4.755 0 0 0 51 16.5V7.5a4.755 4.755 0 0 0-4.38-4.5L25.335 0l-0.21000000000000002 0Z"></path></g></g></svg>