<svg xmlns="http://www.w3.org/2000/svg" viewBox="0 0 57 30" height="30" width="57"><title>hu-main-5.svg</title><path fill="none" d="M0 0L57 0 57 30 0 30z"></path><g><path fill="#0e8c38" d="M28.380000000000003 29.235c-2.2199999999999998-0.34500000000000003-21.72-3.435-24.195-4.5A5.1450000000000005 5.1450000000000005 0 0 1 0.75 19.5V4.5A0.75 0.75 0 0 1 1.5 3.75H55.5a0.75 0.75 0 0 1 0.75 0.75V19.5a5.1450000000000005 5.1450000000000005 0 0 1-3.435 5.1899999999999995c-2.4749999999999996 1.125-21.975 4.215-24.195 4.5h-0.22499999999999998Z"></path><path fill="#ffffff" d="M55.5 4.5V19.5a4.5 4.5 0 0 1-3 4.5c-2.445 1.1099999999999999-24 4.5-24 4.5S6.945 25.11 4.5 24a4.5 4.5 0 0 1-3-4.5V4.5H55.5m0-1.5H1.5A1.5 1.5 0 0 0 0 4.5V19.5a6 6 0 0 0 3.885 5.865c2.505 1.1400000000000001 20.759999999999998 4.050000000000001 24.39 4.62h0.46499999999999997c3.63-0.5700000000000001 21.884999999999998-3.4799999999999995 24.39-4.62A6 6 0 0 0 57 19.5V4.5a1.5 1.5 0 0 0-1.5-1.5Z"></path></g></svg>