<svg xmlns="http://www.w3.org/2000/svg" viewBox="0 0 30 30" height="30" width="30"><title>hu-main-2.svg</title><path fill="none" d="M0 0L30 0 30 30 0 30z"></path><g><path fill="#0e8c38" d="M15 29.25a0.75 0.75 0 0 1-0.28500000000000003 0c-0.07500000000000001 0-8.084999999999999-3.4050000000000002-10.5-4.5A5.1450000000000005 5.1450000000000005 0 0 1 0.75 19.5V4.5A0.75 0.75 0 0 1 1.5 3.75H28.5a0.75 0.75 0 0 1 0.75 0.75V19.5a5.1450000000000005 5.1450000000000005 0 0 1-3.435 5.1899999999999995c-2.43 1.1099999999999999-10.5 4.5-10.5 4.5A0.75 0.75 0 0 1 15 29.25Z"></path><path fill="#ffffff" d="M28.5 4.5V19.5a4.5 4.5 0 0 1-3 4.5c-2.445 1.1099999999999999-10.5 4.5-10.5 4.5s-8.055-3.3899999999999997-10.5-4.5a4.5 4.5 0 0 1-3-4.5V4.5H28.5m0-1.5H1.5A1.5 1.5 0 0 0 0 4.5V19.5a6 6 0 0 0 3.885 5.865c2.445 1.1099999999999999 10.215 4.38 10.5 4.5a1.5 1.5 0 0 0 1.155 0c0.33-0.135 8.100000000000001-3.4050000000000002 10.5-4.5A6 6 0 0 0 30 19.5V4.5a1.5 1.5 0 0 0-1.5-1.5Z"></path></g></svg>