<svg xmlns="http://www.w3.org/2000/svg" viewBox="0 0 24 33" height="33" width="24"><title>in-national-2.svg</title><g><path fill="#ffe666" d="M12 32.25C8.459999999999999 32.25 0.75 25.875 0.75 19.5V4.5A0.75 0.75 0 0 1 1.5 3.75H7.5c1.275 0 2.8649999999999998-1.5 3.945-2.7600000000000002A0.75 0.75 0 0 1 12 0.75H12a0.75 0.75 0 0 1 0.5549999999999999 0.24c1.335 1.5 2.64 2.7600000000000002 3.945 2.7600000000000002h6a0.75 0.75 0 0 1 0.75 0.75V19.5C23.25 25.875 15.54 32.25 12 32.25Z"></path><path fill="#222" d="M12 1.5c1.5 1.5 2.88 3 4.5 3h6V19.5c0 6-7.5 12-10.5 12s-10.5-6-10.5-12V4.5H7.5C9 4.5 10.620000000000001 3 12 1.5M12 0H12a1.5 1.5 0 0 0-1.1099999999999999 0.48C9 2.565 7.995 3 7.5 3H1.5A1.5 1.5 0 0 0 0 4.5V19.5c0 6.5249999999999995 7.800000000000001 13.5 12 13.5 3.75 0 12-6.495 12-13.5V4.5a1.5 1.5 0 0 0-1.5-1.5H16.5C15.495000000000001 3 14.28 1.755 13.11 0.48A1.5 1.5 0 0 0 12 0Z"></path></g></svg>