<svg xmlns="http://www.w3.org/2000/svg" viewBox="0 0 36 33" height="33" width="36"><title>in-national-4.svg</title><g><path fill="#ffe666" d="M18 32.25C14.82 32.25 0.75 26.235 0.75 19.5V4.5A0.75 0.75 0 0 1 1.5 3.75H13.5c1.275 0 2.8649999999999998-1.5 3.945-2.7600000000000002A0.75 0.75 0 0 1 18 0.75h0a0.75 0.75 0 0 1 0.5549999999999999 0.24c1.335 1.5 2.64 2.7600000000000002 3.945 2.7600000000000002h12a0.75 0.75 0 0 1 0.75 0.75V19.5C35.25 26.235 21.18 32.25 18 32.25Z"></path><path fill="#222" d="M18 1.5c1.5 1.5 2.88 3 4.5 3h12V19.5c0 6-13.5 12-16.5 12S1.5 25.5 1.5 19.5V4.5H13.5c1.5 0 3.12-1.5 4.5-3m0-1.5h0a1.5 1.5 0 0 0-1.1099999999999999 0.48C15 2.565 13.995000000000001 3 13.5 3H1.5A1.5 1.5 0 0 0 0 4.5V19.5c0 7.245 14.580000000000002 13.5 18 13.5s18-6.195 18-13.5V4.5a1.5 1.5 0 0 0-1.5-1.5H22.5c-1.0050000000000001 0-2.2199999999999998-1.2449999999999999-3.3899999999999997-2.52A1.5 1.5 0 0 0 18 0Z"></path></g></svg>