<svg xmlns="http://www.w3.org/2000/svg" viewBox="0 0 30 33" height="33" width="30"><title>in-national-3.svg</title><g><path fill="#ffe666" d="M15 32.25C11.805 32.25 0.75 26.099999999999998 0.75 19.5V4.5A0.75 0.75 0 0 1 1.5 3.75H10.5c1.275 0 2.8649999999999998-1.5 3.945-2.7600000000000002A0.75 0.75 0 0 1 15 0.75h0a0.75 0.75 0 0 1 0.5549999999999999 0.24c1.335 1.5 2.64 2.7600000000000002 3.945 2.7600000000000002h9a0.75 0.75 0 0 1 0.75 0.75V19.5C29.25 26.099999999999998 18.195 32.25 15 32.25Z"></path><path fill="#222" d="M15 1.5c1.5 1.5 2.88 3 4.5 3h9V19.5c0 6-10.5 12-13.5 12s-13.5-6-13.5-12V4.5H10.5c1.5 0 3.12-1.5 4.5-3m0-1.5h0a1.5 1.5 0 0 0-1.1099999999999999 0.48C12 2.565 10.995000000000001 3 10.5 3H1.5A1.5 1.5 0 0 0 0 4.5V19.5c0 4.17 3.885 7.695 6.209999999999999 9.42C9.315 31.305 13.02 33 15 33s5.61-1.6949999999999998 8.745000000000001-4.0200000000000005C26.085 27.255000000000003 30 23.715 30 19.5V4.5a1.5 1.5 0 0 0-1.5-1.5H19.5c-1.0050000000000001 0-2.2199999999999998-1.2449999999999999-3.3899999999999997-2.52A1.5 1.5 0 0 0 15 0Z"></path></g></svg>