<svg xmlns="http://www.w3.org/2000/svg" viewBox="0 0 30 33" height="33" width="30"><title>in-state-3.svg</title><path fill="none" d="M0 0L30 0 30 33 0 33z"></path><path fill="#ffffff" d="M10.5 27c1.5 0 3.6450000000000005 0.18 4.5 1.5 0.855-1.32 3-1.5 4.5-1.5s7.755 0 8.625-4.5c1.02-5.295-1.125-7.5-1.125-10.5 0-4.41 1.5-6.09 1.5-7.5L25.5 1.5a11.01 11.01 0 0 1-5.25 1.5A10.5 10.5 0 0 1 15 1.5 10.68 10.68 0 0 1 9.75 3 10.11 10.11 0 0 1 4.5 1.5L1.5 4.5C1.5 6 3 7.5 3 12c0 3-2.0250000000000004 5.16-1.125 10.5C2.625 27 8.834999999999999 27 10.5 27Z"></path><path fill="#0e8c38" d="M20.25 3A10.5 10.5 0 0 1 15 1.5 10.68 10.68 0 0 1 9.75 3 10.11 10.11 0 0 1 4.5 1.5L1.5 4.5a12.09 12.09 0 0 0 0.855 3H27.645A13.575000000000001 13.575000000000001 0 0 0 28.5 4.5L25.5 1.5A11.01 11.01 0 0 1 20.25 3Z"></path><path fill="#222" d="M25.5 1.5l3 3c0 1.41-1.5 3.09-1.5 7.5 0 3 2.145 5.205 1.125 10.5-0.855 4.5-6.84 4.5-8.504999999999999 4.5H19.5c-1.5 0-3.6450000000000005 0.18-4.5 1.5-0.855-1.32-3-1.5-4.5-1.5s-7.875 0-8.625-4.5C0.9750000000000001 17.16 3 15 3 12 3 7.5 1.5 6 1.5 4.5L4.5 1.5A10.11 10.11 0 0 0 9.75 3 10.68 10.68 0 0 0 15 1.5a10.5 10.5 0 0 0 5.25 1.5A11.01 11.01 0 0 0 25.5 1.5m0-1.5a1.5 1.5 0 0 0-0.75 0.195 9.615 9.615 0 0 1-4.5 1.305 9 9 0 0 1-4.5-1.275 1.5 1.5 0 0 0-1.5 0A9.209999999999999 9.209999999999999 0 0 1 9.75 1.5a8.565 8.565 0 0 1-4.5-1.275A1.5 1.5 0 0 0 3.435 0.43499999999999994l-3 3A1.5 1.5 0 0 0 0 4.5 6.735 6.735 0 0 0 0.5549999999999999 6.855 13.26 13.26 0 0 1 1.5 12 10.5 10.5 0 0 1 0.96 14.850000000000001a16.200000000000003 16.200000000000003 0 0 0-0.5700000000000001 7.89C0.765 24.900000000000002 2.55 28.5 10.5 28.5c2.37 0 3 0.51 3.24 0.81a1.5 1.5 0 0 0 2.52 0c0.195-0.30000000000000004 0.8699999999999999-0.81 3.24-0.81h0.12c7.7250000000000005 0 9.555-3.585 9.975000000000001-5.715a15.450000000000001 15.450000000000001 0 0 0-0.5549999999999999-8.040000000000001A9.959999999999999 9.959999999999999 0 0 1 28.5 12a13.845 13.845 0 0 1 0.96-5.25A6.6000000000000005 6.6000000000000005 0 0 0 30 4.5a1.5 1.5 0 0 0-0.43499999999999994-1.065l-3-3A1.5 1.5 0 0 0 25.5 0Z"></path></svg>