<svg xmlns="http://www.w3.org/2000/svg" viewBox="0 0 24 33" height="33" width="24"><title>in-state-2.svg</title><path fill="none" d="M0 0L24 0 24 33 0 33z"></path><path fill="#ffffff" d="M7.5 27c1.5 0 3.6450000000000005 0.18 4.5 1.5 0.855-1.32 3-1.5 4.5-1.5s5.1-1.605 5.625-4.5c0.795-4.3950000000000005-1.125-7.5-1.125-10.5 0-4.41 1.5-6.09 1.5-7.5L19.5 1.5a7.1850000000000005 7.1850000000000005 0 0 1-3.75 1.5A6.84 6.84 0 0 1 12 1.5 6.9750000000000005 6.9750000000000005 0 0 1 8.25 3 6.135 6.135 0 0 1 4.5 1.5L1.5 4.5C1.5 6 3 7.5 3 12c0 3-1.995 6.165000000000001-1.125 10.5A5.91 5.91 0 0 0 7.5 27Z"></path><path fill="#0e8c38" d="M15.75 3A6.84 6.84 0 0 1 12 1.5 6.9750000000000005 6.9750000000000005 0 0 1 8.25 3 6.135 6.135 0 0 1 4.5 1.5L1.5 4.5a12.09 12.09 0 0 0 0.855 3H21.645A13.575000000000001 13.575000000000001 0 0 0 22.5 4.5L19.5 1.5A7.1850000000000005 7.1850000000000005 0 0 1 15.75 3Z"></path><path fill="#222" d="M19.5 1.5l3 3c0 1.41-1.5 3.09-1.5 7.5 0 3 1.92 6.105 1.125 10.5C21.6 25.395 18 27 16.5 27s-3.6450000000000005 0.18-4.5 1.5c-0.855-1.32-3-1.5-4.5-1.5a5.91 5.91 0 0 1-5.625-4.5C1.0050000000000001 18.165 3 15 3 12 3 7.5 1.5 6 1.5 4.5L4.5 1.5A6.135 6.135 0 0 0 8.25 3 6.9750000000000005 6.9750000000000005 0 0 0 12 1.5a6.84 6.84 0 0 0 3.75 1.5A7.1850000000000005 7.1850000000000005 0 0 0 19.5 1.5M12 0a1.5 1.5 0 0 0-0.9450000000000001 0.34500000000000003A5.595 5.595 0 0 1 8.25 1.5 4.71 4.71 0 0 1 5.535 0.42000000000000004a1.5 1.5 0 0 0-2.0999999999999996 0l-3 3A1.5 1.5 0 0 0 0 4.5 6.735 6.735 0 0 0 0.5549999999999999 6.855 13.26 13.26 0 0 1 1.5 12a13.934999999999999 13.934999999999999 0 0 1-0.5700000000000001 3.2700000000000005 16.049999999999997 16.049999999999997 0 0 0-0.5249999999999999 7.5A7.5 7.5 0 0 0 7.5 28.5c2.37 0 3 0.51 3.24 0.81a1.5 1.5 0 0 0 2.52 0C13.5 29.009999999999998 14.145 28.5 16.5 28.5c2.055 0 6.4350000000000005-2.0250000000000004 7.095000000000001-5.7299999999999995a17.384999999999998 17.384999999999998 0 0 0-0.5549999999999999-7.574999999999999A14.174999999999999 14.174999999999999 0 0 1 22.5 12a13.845 13.845 0 0 1 0.96-5.25A6.6000000000000005 6.6000000000000005 0 0 0 24 4.5a1.5 1.5 0 0 0-0.43499999999999994-1.065l-3-3a1.5 1.5 0 0 0-2.055 0A5.91 5.91 0 0 1 15.75 1.5 5.475 5.475 0 0 1 12.975000000000001 0.36 1.5 1.5 0 0 0 12 0Z"></path></svg>