<svg xmlns="http://www.w3.org/2000/svg" width="35" height="33" viewBox="0 0 35 33">
  <title>mx-federal-3</title>
  <g>
    <path d="M17.46,32.27h-.17C12.39,31.14,1,27.34,1,15.77a.75.75,0,0,1,.35-.63,2.83,2.83,0,0,0,1.42-2.37A2.83,2.83,0,0,0,1.31,10.4.75.75,0,0,1,1,9.77V6a.75.75,0,0,1,.3-.6l6-4.5a.75.75,0,0,1,1,0A7.5,7.5,0,0,0,12.59,3,7,7,0,0,0,17,1a.75.75,0,0,1,1,0,8.16,8.16,0,0,0,4.4,2,7,7,0,0,0,4.36-2,.75.75,0,0,1,1,0l6,4.5a.75.75,0,0,1,.3.6V9.77a.75.75,0,0,1-.35.63,2.84,2.84,0,0,0-1.42,2.37,2.84,2.84,0,0,0,1.42,2.37.75.75,0,0,1,.35.61c.18,12.42-16.16,16.5-16.32,16.5Z" fill="#fff"/>
    <path d="M27.21,1.52l6,4.5V9.77a3.42,3.42,0,0,0,0,6C33.36,26.56,20,30.92,17.46,31.52c-2.69-.6-15.75-3.75-15.75-15.75a3.42,3.42,0,0,0,0-6V6l6-4.5a8.11,8.11,0,0,0,4.88,2.25,7.7,7.7,0,0,0,4.87-2.25,8.56,8.56,0,0,0,4.88,2.25,7.71,7.71,0,0,0,4.87-2.25M7.71,0a1.5,1.5,0,0,0-.9.3l-6,4.5A1.5,1.5,0,0,0,.21,6V9.77A1.5,1.5,0,0,0,.9,11,2.1,2.1,0,0,1,2,12.77,2.1,2.1,0,0,1,.9,14.51a1.5,1.5,0,0,0-.69,1.26c0,4,1.65,13.78,16.92,17.25h.67C18,33,34.89,28.8,34.71,15.78A1.5,1.5,0,0,0,34,14.54,2.1,2.1,0,0,1,33,12.8,2.1,2.1,0,0,1,34,11a1.5,1.5,0,0,0,.69-1.29V6a1.5,1.5,0,0,0-.6-1.2l-6-4.5a1.5,1.5,0,0,0-1.93.12,6.27,6.27,0,0,1-3.84,1.83A7.08,7.08,0,0,1,18.42.36a1.5,1.5,0,0,0-2,0,6.27,6.27,0,0,1-3.84,1.91A6.72,6.72,0,0,1,8.74.44,1.5,1.5,0,0,0,7.71,0Z" fill="#222"/>
  </g>
  <path d="M34,7.52H1A.75.75,0,1,1,1,6H34a.75.75,0,0,1,0,1.5Z" fill="#222"/>
</svg>
