<svg xmlns="http://www.w3.org/2000/svg" viewBox="0 0 27 33" height="33" width="27"><title>mx-federal-2.svg</title><g><path fill="#ffffff" d="M13.5 32.25H13.335A16.155 16.155 0 0 1 0.75 15.75a0.75 0.75 0 0 1 0.33-0.63 2.8649999999999998 2.8649999999999998 0 0 0 1.35-2.37 2.8649999999999998 2.8649999999999998 0 0 0-1.35-2.37A0.75 0.75 0 0 1 0.75 9.75V6a0.75 0.75 0 0 1 0.12-0.42000000000000004l3-4.5A0.75 0.75 0 0 1 4.5 0.75H4.5a0.75 0.75 0 0 1 0.5249999999999999 0.22499999999999998A6.495 6.495 0 0 0 9 3 6 6 0 0 0 12.975000000000001 0.9750000000000001a0.75 0.75 0 0 1 1.02 0A6.66 6.66 0 0 0 18 3 6 6 0 0 0 21.975 0.9750000000000001 0.75 0.75 0 0 1 22.5 0.75h0a0.75 0.75 0 0 1 0.5549999999999999 0.33l3 4.5A0.75 0.75 0 0 1 26.25 6V9.75a0.75 0.75 0 0 1-0.33 0.63 2.7600000000000002 2.7600000000000002 0 0 0 0 4.755 0.75 0.75 0 0 1 0.33 0.615c0.15000000000000002 10.86-9.254999999999999 15.66-12.57 16.5Z"></path><path fill="#222" d="M22.5 1.5l3 4.5V9.75a3.51 3.51 0 0 0 0 6c0.15000000000000002 10.8-9.600000000000001 15.149999999999999-12 15.75A15.375 15.375 0 0 1 1.5 15.75a3.51 3.51 0 0 0 0-6V6L4.5 1.5A7.215 7.215 0 0 0 9 3.75 6.855 6.855 0 0 0 13.5 1.5a7.62 7.62 0 0 0 4.5 2.25A6.855 6.855 0 0 0 22.5 1.5M13.5 0a1.5 1.5 0 0 0-1.065 0.43499999999999994A5.4 5.4 0 0 1 9 2.25 5.835 5.835 0 0 1 5.5649999999999995 0.43499999999999994 1.5 1.5 0 0 0 4.5 0H4.35a1.5 1.5 0 0 0-1.095 0.66l-3 4.5A1.5 1.5 0 0 0 0 6V9.75a1.5 1.5 0 0 0 0.675 1.2449999999999999A2.13 2.13 0 0 1 1.6800000000000002 12.75 2.13 2.13 0 0 1 0.66 14.504999999999999 1.5 1.5 0 0 0 0 15.75 16.89 16.89 0 0 0 13.155 33L13.5 33a1.5 1.5 0 0 0 0.36 0C17.325000000000003 32.085 27.150000000000002 27 27 15.735a1.5 1.5 0 0 0-0.675-1.23 2.0100000000000002 2.0100000000000002 0 0 1 0-3.51A1.5 1.5 0 0 0 27 9.75V6a1.5 1.5 0 0 0-0.255-0.8250000000000001l-3-4.5A1.5 1.5 0 0 0 22.65 0H22.5a1.5 1.5 0 0 0-1.065 0.43499999999999994A5.4 5.4 0 0 1 18 2.25 6.12 6.12 0 0 1 14.49 0.375 1.5 1.5 0 0 0 13.5 0Z"></path></g><path fill="#222" d="M25.5 7.5H1.5A0.75 0.75 0 1 1 1.5 6H25.5a0.75 0.75 0 0 1 0 1.5Z"></path></svg>