<svg xmlns="http://www.w3.org/2000/svg" viewBox="0 0 42 33" height="33" width="42"><title>mx-federal-4.svg</title><g><path fill="#ffffff" d="M20.865000000000002 32.235C14.82 31.14 0.75 27.345 0.75 15.75a0.75 0.75 0 0 1 0.405-0.66A2.805 2.805 0 0 0 3 12.75 2.805 2.805 0 0 0 1.155 10.41 0.75 0.75 0 0 1 0.75 9.75V6a0.75 0.75 0 0 1 0.36-0.645l7.5-4.5a0.75 0.75 0 0 1 0.8400000000000001 0A10.379999999999999 10.379999999999999 0 0 0 15 3 9.825 9.825 0 0 0 20.535 0.8999999999999999a0.75 0.75 0 0 1 0.8699999999999999 0A11.22 11.22 0 0 0 27 3 9.825 9.825 0 0 0 32.55 0.8999999999999999a0.75 0.75 0 0 1 0.8400000000000001 0l7.5 4.5A0.75 0.75 0 0 1 41.25 6V9.75a0.75 0.75 0 0 1-0.405 0.66A2.805 2.805 0 0 0 39 12.75a2.805 2.805 0 0 0 1.785 2.34 0.75 0.75 0 0 1 0.405 0.66c0.22499999999999998 12.450000000000001-19.905 16.5-20.115000000000002 16.5h-0.27Z"></path><path fill="#222" d="M33 1.5l7.5 4.5V9.75c-2.925 1.5-2.925 4.5 0 6 0.195 10.8-16.38 15.149999999999999-19.5 15.75-3.315-0.6000000000000001-19.5-3.75-19.5-15.75 2.925-1.5 2.925-4.5 0-6V6L9 1.5a11.100000000000001 11.100000000000001 0 0 0 6 2.25A10.5 10.5 0 0 0 21 1.5a11.745000000000001 11.745000000000001 0 0 0 6 2.25A10.5 10.5 0 0 0 33 1.5M9 0a1.5 1.5 0 0 0-0.765 0.21000000000000002l-7.5 4.5A1.5 1.5 0 0 0 0 6V9.75a1.5 1.5 0 0 0 0.81 1.335c0.8699999999999999 0.44999999999999996 1.3800000000000001 1.065 1.3800000000000001 1.665s-0.51 1.23-1.3800000000000001 1.665A1.5 1.5 0 0 0 0 15.75C0 27.915 14.504999999999999 31.845 20.73 33L21 33l0.28500000000000003 0c0.21000000000000002 0 21-4.1850000000000005 20.715-17.25a1.5 1.5 0 0 0-0.81-1.305c-0.8699999999999999-0.44999999999999996-1.3800000000000001-1.065-1.3800000000000001-1.665s0.51-1.23 1.3800000000000001-1.665A1.5 1.5 0 0 0 42 9.75V6a1.5 1.5 0 0 0-0.735-1.29l-7.5-4.5a1.5 1.5 0 0 0-1.6800000000000002 0.09A9.075 9.075 0 0 1 27 2.25 10.5 10.5 0 0 1 21.84 0.255a1.5 1.5 0 0 0-1.755 0A9.075 9.075 0 0 1 15 2.25 9.57 9.57 0 0 1 9.915000000000001 0.315 1.5 1.5 0 0 0 9 0Z"></path></g><path fill="#222" d="M40.5 7.5H1.5A0.75 0.75 0 0 1 1.5 6H40.5a0.75 0.75 0 0 1 0 1.5Z"></path></svg>