<svg xmlns="http://www.w3.org/2000/svg" viewBox="0 0 42 33" height="33" width="42"><title>mx-state-4.svg</title><g><path fill="#ffffff" d="M20.88 32.235C20.07 32.115 0.75 28.964999999999996 0.75 14.25V1.5A0.75 0.75 0 0 1 1.5 0.75H40.5a0.75 0.75 0 0 1 0.75 0.75V14.25c0.21000000000000002 12.135-16.77 17.445-20.13 18h-0.24Z"></path><path fill="#222" d="M40.5 1.5V14.25c0.195 11.370000000000001-15.600000000000001 16.62-19.5 17.25C16.905 30.869999999999997 1.5 26.880000000000003 1.5 14.25V1.5H40.5m0-1.5H1.5A1.5 1.5 0 0 0 0 1.5V14.25c0 5.865 3.09 10.845 9 14.399999999999999A35.04 35.04 0 0 0 20.775 33h0.46499999999999997a36 36 0 0 0 11.850000000000001-4.8149999999999995C39 24.39 42.089999999999996 19.5 42 14.22V1.5a1.5 1.5 0 0 0-1.5-1.5Z"></path></g><path fill="#222" d="M0 4.5L42 4.5 42 6 0 6z"></path></svg>