<svg xmlns="http://www.w3.org/2000/svg" viewBox="0 0 27 33" height="33" width="27"><title>mx-state-2.svg</title><g><path fill="#ffffff" d="M13.5 32.25l-0.18 0C9 31.14 0.75 25.98 0.75 14.25V1.5A0.75 0.75 0 0 1 1.5 0.75H25.5a0.75 0.75 0 0 1 0.75 0.75V14.25a19.215 19.215 0 0 1-12.555 18Z"></path><path fill="#222" d="M25.5 1.5V14.25A18.450000000000003 18.450000000000003 0 0 1 13.5 31.5c-2.52-0.63-12-4.62-12-17.25V1.5H25.5m0-1.5H1.5A1.5 1.5 0 0 0 0 1.5V14.25A19.41 19.41 0 0 0 5.505 28.5a17.64 17.64 0 0 0 7.635 4.5 1.5 1.5 0 0 0 0.75 0A19.815 19.815 0 0 0 27 14.235V1.5a1.5 1.5 0 0 0-1.5-1.5Z"></path></g><path fill="#222" d="M0 4.5L27 4.5 27 6 0 6z"></path></svg>