<svg xmlns="http://www.w3.org/2000/svg" width="35" height="33" viewBox="0 0 35 33">
  <title>mx-state-3</title>
  <g>
    <path d="M17.36,32.24C11.69,31.16,1,26,1,14.25V1.5A.75.75,0,0,1,1.75.75h31.5A.75.75,0,0,1,34,1.5V14.25c.15,11.19-12,17.1-16.35,18h-.29Z" fill="#fff"/>
    <path d="M33.25,1.5V14.25C33.4,25.62,20.65,30.87,17.5,31.5c-3.31-.63-15.75-4.62-15.75-17.25V1.5h31.5m0-1.5H1.75A1.5,1.5,0,0,0,.25,1.5V14.25c0,12.24,11.1,17.61,17,18.75h.58a26.61,26.61,0,0,0,9.75-4.89c4.78-3.81,7.2-8.61,7.2-13.88V1.5A1.5,1.5,0,0,0,33.28,0Z" fill="#222"/>
  </g>
  <path d="M.25,4.5h34.5V6H.25Z" fill="#222"/>
</svg>
