<svg xmlns="http://www.w3.org/2000/svg" viewBox="0 0 27 30" height="30" width="27"><title>nz-state-2.svg</title><g><path fill="#cc2929" d="M13.5 29.25H13.335C9.855 28.5 0.81 24.33 0.75 15c0-4.5 1.6350000000000002-9.24 3.195-10.995000000000001A0.75 0.75 0 0 1 4.5 3.75H22.5a0.75 0.75 0 0 1 0.5249999999999999 0.22499999999999998C24.81 5.745 26.25 10.695 26.25 15c0 8.774999999999999-8.22 13.14-12.57 14.22Z"></path><path fill="#ffffff" d="M22.5 4.5c1.5 1.5 3 6.12 3 10.5 0 9-9 12.75-12 13.5-3-0.6900000000000001-12-4.5-12-13.5C1.5 10.620000000000001 3 6.12 4.5 4.5H22.5m0-1.5H4.5a1.5 1.5 0 0 0-1.125 0.51C1.6949999999999998 5.415 0 10.23 0 15c0 9.81 9.524999999999999 14.115 13.169999999999998 15L13.5 30a1.5 1.5 0 0 0 0.36 0c4.5-1.1400000000000001 13.14-5.7299999999999995 13.14-15 0-4.5-1.5-9.629999999999999-3.435-11.565A1.5 1.5 0 0 0 22.5 3Z"></path></g><path fill="none" d="M0 0L27 0 27 30 0 30z"></path></svg>