<svg xmlns="http://www.w3.org/2000/svg" width="35" height="30" viewBox="0 0 35 30">
  <title>nz-state-3</title>
  <g>
    <path d="M18.25,29.24h-.17C15.25,28.57,1,24.8,1,15,1,8.72,2.74,5.55,4.21,4a.75.75,0,0,1,.54-.24h25.5a.75.75,0,0,1,.52.22C32.28,5.46,34,8.47,34,15c0,9.84-13,13.58-15.57,14.22Z" fill="#cc2929"/>
    <path d="M30.25,4.49c1.5,1.5,3,4.59,3,10.5,0,9-12,12.75-15,13.5-3-.69-16.5-4.5-16.5-13.5,0-5.91,1.59-9,3-10.5h25.5m0-1.5H4.75a1.5,1.5,0,0,0-1.1.48C2.1,5.13.25,8.47.25,15,.25,25.39,15,29.28,17.92,30h.33a1.5,1.5,0,0,0,.36,0,32.77,32.77,0,0,0,9-3.84c4.69-3,7.14-6.84,7.14-11.16,0-6.7-1.87-10-3.43-11.56A1.5,1.5,0,0,0,30.25,3Z" fill="#fff"/>
  </g>
  <path d="M.25,0h34.5V30H.25Z" fill="none"/>
</svg>
