<svg id="Layer_1" data-name="Layer 1" xmlns="http://www.w3.org/2000/svg" width="15.718" height="8.758" viewBox="0 0 15.718 8.758">
  <title>oneway-small</title>
  <g opacity="0.65" >
    <path d="M14.635,4.868,9.835,1.82V3.97h-7.8a.8.8,0,0,0-.85.85.789.789,0,0,0,.85.85h7.8V7.82Z" transform="translate(-0.185 -0.434)" fill="#fff"/>
    <path d="M8.835,8.661V6.67h-6.8A1.791,1.791,0,0,1,.185,4.82a1.791,1.791,0,0,1,1.85-1.85h6.8V.965A.53.53,0,0,1,9.65.517l5.929,3.765a.7.7,0,0,1-.009,1.184L9.643,9.112A.53.53,0,0,1,8.835,8.661Zm2-3.991V6.031l1.913-1.177L10.835,3.64Z" transform="translate(-0.185 -0.434)" fill="#fff"/>
  </g>
  <path d="M14.635,4.868,9.835,1.82V3.97h-7.8a.8.8,0,0,0-.85.85.789.789,0,0,0,.85.85h7.8V7.82Z" transform="translate(-0.185 -0.434)" fill="#2e5ae5"/>
</svg>
