<svg xmlns="http://www.w3.org/2000/svg" viewBox="0 0 27 39" height="39" width="27"><title>pe-national-2.svg</title><path fill="none" d="M0 0L27 0 27 39 0 39z"></path><path fill="#ffffff" d="M9 29.25A6.555 6.555 0 0 1 13.5 31.5a6.57 6.57 0 0 1 4.5-2.25c1.5-0.24 7.5-0.75 7.5-6.75s-3-6-3-10.5c0-3 0.5249999999999999-4.335 3-6L22.5 1.5a6.449999999999999 6.449999999999999 0 0 1-4.5 1.5A6.720000000000001 6.720000000000001 0 0 1 13.5 1.5 6.8100000000000005 6.8100000000000005 0 0 1 9 3 6.449999999999999 6.449999999999999 0 0 1 4.5 1.5L1.5 6A6.5249999999999995 6.5249999999999995 0 0 1 4.5 12c0 4.5-3 4.5-3 10.5S7.59 29.025000000000002 9 29.25Z"></path><path fill="#cc2929" d="M18 3A6.720000000000001 6.720000000000001 0 0 1 13.5 1.5 6.8100000000000005 6.8100000000000005 0 0 1 9 3 6.449999999999999 6.449999999999999 0 0 1 4.5 1.5L1.5 6A6.3149999999999995 6.3149999999999995 0 0 1 4.38 10.5H22.575000000000003A5.5200000000000005 5.5200000000000005 0 0 1 25.5 6L22.5 1.5A6.449999999999999 6.449999999999999 0 0 1 18 3Z"></path><path fill="#222" d="M22.5 1.5l3 4.5c-2.4749999999999996 1.665-3 3-3 6 0 4.5 3 4.5 3 10.5s-6 6.51-7.5 6.75A6.57 6.57 0 0 0 13.5 31.5a6.555 6.555 0 0 0-4.5-2.25C7.59 29.025000000000002 1.5 28.5 1.5 22.5s3-6 3-10.5A6.5249999999999995 6.5249999999999995 0 0 0 1.5 6L4.5 1.5A6.449999999999999 6.449999999999999 0 0 0 9 3 6.8100000000000005 6.8100000000000005 0 0 0 13.5 1.5a6.720000000000001 6.720000000000001 0 0 0 4.5 1.5 6.449999999999999 6.449999999999999 0 0 0 4.5-1.5M4.5 0H4.32a1.5 1.5 0 0 0-1.08 0.66l-3 4.5A1.5 1.5 0 0 0 0.63 7.215 5.055 5.055 0 0 1 3 12a6.42 6.42 0 0 1-1.155 3.7350000000000003A11.91 11.91 0 0 0 0 22.5c0 4.62 2.8499999999999996 7.38 8.459999999999999 8.19l0.30000000000000004 0a5.085 5.085 0 0 1 3.495 1.605 1.5 1.5 0 0 0 2.505 0 5.025 5.025 0 0 1 3.495-1.605l0.28500000000000003 0C24.150000000000002 29.849999999999998 27 27.105 27 22.5a12.149999999999999 12.149999999999999 0 0 0-1.8599999999999999-6.84A6.39 6.39 0 0 1 24 12c0-2.625 0.42000000000000004-3.465 2.34-4.755a1.5 1.5 0 0 0 0.42000000000000004-2.085l-3-4.5a1.5 1.5 0 0 0-1.0499999999999998-0.66H22.5a1.5 1.5 0 0 0-0.99 0.375A4.9799999999999995 4.9799999999999995 0 0 1 18 1.5 5.3100000000000005 5.3100000000000005 0 0 1 14.504999999999999 0.39a1.5 1.5 0 0 0-2.0250000000000004 0A5.3549999999999995 5.3549999999999995 0 0 1 9 1.5 5.01 5.01 0 0 1 5.5200000000000005 0.405 1.5 1.5 0 0 0 4.5 0Z"></path></svg>