<svg xmlns="http://www.w3.org/2000/svg" viewBox="0 0 33 39" height="39" width="33"><title>pe-national-3.svg</title><path fill="none" d="M0 0L33 0 33 39 0 39z"></path><path fill="#ffffff" d="M12 29.25A6.555 6.555 0 0 1 16.5 31.5a6.57 6.57 0 0 1 4.5-2.25c1.5-0.24 10.5-0.75 10.5-6.75s-3-6-3-10.5c0-3 0.5249999999999999-4.335 3-6L28.5 1.5a10.11 10.11 0 0 1-6 2.25A8.82 8.82 0 0 1 16.5 1.5 9 9 0 0 1 10.5 3.75 10.5 10.5 0 0 1 4.5 1.5L1.5 6A6.5249999999999995 6.5249999999999995 0 0 1 4.5 12c0 4.5-3 4.5-3 10.5S10.59 29.025000000000002 12 29.25Z"></path><path fill="#cc2929" d="M22.5 3.75A8.82 8.82 0 0 1 16.5 1.5 9 9 0 0 1 10.5 3.75 10.5 10.5 0 0 1 4.5 1.5L1.5 6A6.3149999999999995 6.3149999999999995 0 0 1 4.38 10.5H28.575000000000003A5.5200000000000005 5.5200000000000005 0 0 1 31.5 6L28.5 1.5A10.11 10.11 0 0 1 22.5 3.75Z"></path><path fill="#222" d="M28.5 1.5l3 4.5c-2.4749999999999996 1.665-3 3-3 6 0 4.5 3 4.5 3 10.5s-9 6.51-10.5 6.75A6.57 6.57 0 0 0 16.5 31.5a6.555 6.555 0 0 0-4.5-2.25C10.59 29.025000000000002 1.5 28.5 1.5 22.5s3-6 3-10.5A6.5249999999999995 6.5249999999999995 0 0 0 1.5 6L4.5 1.5A10.5 10.5 0 0 0 10.5 3.75 9 9 0 0 0 16.5 1.5a8.82 8.82 0 0 0 6 2.25A10.11 10.11 0 0 0 28.5 1.5M4.5 0a1.5 1.5 0 0 0-1.2449999999999999 0.675l-3 4.5A1.5 1.5 0 0 0 0.63 7.215 5.055 5.055 0 0 1 3 12a6.42 6.42 0 0 1-1.155 3.7350000000000003A11.91 11.91 0 0 0 0 22.5c0 4.5 3.7800000000000002 7.2749999999999995 11.25 8.16l0.51 0a5.085 5.085 0 0 1 3.495 1.605 1.5 1.5 0 0 0 2.505 0 5.025 5.025 0 0 1 3.495-1.605l0.5249999999999999 0C29.22 29.744999999999997 33 27 33 22.5a12.149999999999999 12.149999999999999 0 0 0-1.8599999999999999-6.84A6.39 6.39 0 0 1 30 12c0-2.625 0.42000000000000004-3.465 2.34-4.755a1.5 1.5 0 0 0 0.42000000000000004-2.085l-3-4.5A1.5 1.5 0 0 0 27.674999999999997 0.24l-0.405 0.27A8.040000000000001 8.040000000000001 0 0 1 22.5 2.25 7.334999999999999 7.334999999999999 0 0 1 17.505 0.39a1.5 1.5 0 0 0-2.0250000000000004 0A7.5 7.5 0 0 1 10.5 2.25 7.7250000000000005 7.7250000000000005 0 0 1 6 0.66L5.265 0.21000000000000002A1.5 1.5 0 0 0 4.5 0Z"></path></svg>