<svg xmlns="http://www.w3.org/2000/svg" width="44" height="33" viewBox="0 0 44 33">
  <title>pe-regional-4</title>
  <g>
    <path d="M21.86,32.24C19.75,31.83,1,27.85,1,14.25V1.5A.75.75,0,0,1,1.75.75h40.5A.75.75,0,0,1,43,1.5V14.25c.17,11.43-16.41,17.1-20.85,18h-.29Z" fill="#fff"/>
    <path d="M42.25,1.5V14.25C42.4,25.62,25.15,30.87,22,31.5c-3.32-.63-20.25-4.62-20.25-17.25V1.5h40.5m0-1.5H1.75A1.5,1.5,0,0,0,.25,1.5V14.25C.25,28.5,19.52,32.55,21.72,33h.58c.21,0,21.65-5,21.45-18.74V1.5A1.5,1.5,0,0,0,42.25,0Z" fill="#222"/>
  </g>
  <path d="M.25,4.5h43.5V6H.25Z" fill="#222"/>
</svg>
