<svg xmlns="http://www.w3.org/2000/svg" viewBox="0 0 48 30" height="30" width="48"><title>ro-communal-4.svg</title><path fill="none" d="M0 0L48 0 48 30 0 30z"></path><g><path fill="#ffe666" d="M23.835 29.235c-0.645-0.135-15.78-3.4050000000000002-18.855-4.5C2.895 24 0.75 22.725 0.75 19.5V3.75h46.5V19.5c0 3.2249999999999996-2.145 4.5-4.245 5.205-3 1.125-18.21 4.3950000000000005-18.855 4.5l-0.165 0Z"></path><path fill="#222" d="M46.5 4.5V19.5c0 2.835-1.9500000000000002 3.84-3.75 4.5-3 1.1099999999999999-18.75 4.5-18.75 4.5S8.31 25.11 5.25 24C3.4499999999999997 23.34 1.5 22.335 1.5 19.5V4.5H46.5m1.5-1.5H0V19.5a6.165000000000001 6.165000000000001 0 0 0 4.74 5.91c3.12 1.1400000000000001 18.299999999999997 4.425000000000001 18.945 4.5L24 30l0.315 0c0.645-0.135 15.825000000000001-3.42 18.945-4.5A6.165000000000001 6.165000000000001 0 0 0 48 19.5V3Z"></path></g></svg>