<svg xmlns="http://www.w3.org/2000/svg" viewBox="0 0 30 30" height="30" width="30"><title>ro-communal-2.svg</title><path fill="none" d="M0 0L30 0 30 30 0 30z"></path><g><path fill="#ffe666" d="M14.715 29.19c-0.07500000000000001 0-8.084999999999999-3.4050000000000002-10.5-4.5A5.1450000000000005 5.1450000000000005 0 0 1 0.75 19.5V3.75h28.5V19.5a5.1450000000000005 5.1450000000000005 0 0 1-3.435 5.1899999999999995c-2.43 1.1099999999999999-10.5 4.5-10.5 4.5l-0.28500000000000003 0.12Z"></path><path fill="#222" d="M28.5 4.5V19.5a4.5 4.5 0 0 1-3 4.5c-2.445 1.1099999999999999-10.5 4.5-10.5 4.5s-8.055-3.3899999999999997-10.5-4.5a4.5 4.5 0 0 1-3-4.5V4.5H28.5m1.5-1.5H0V19.5a6 6 0 0 0 3.885 5.865c2.445 1.1099999999999999 10.215 4.38 10.5 4.5l0.585 0.24 0.585-0.24c0.33-0.135 8.100000000000001-3.4050000000000002 10.5-4.5A6 6 0 0 0 30 19.5V3Z"></path></g></svg>