<svg xmlns="http://www.w3.org/2000/svg" viewBox="0 0 39 30" height="30" width="39"><title>ro-county-3.svg</title><path fill="none" d="M0 0L39 0 39 30 0 30z"></path><g><path fill="#3b4ba6" d="M19.305 29.22c-0.51-0.135-12.645-3.42-15.120000000000001-4.5A5.1450000000000005 5.1450000000000005 0 0 1 0.75 19.5V3.75h37.5V19.5a5.1450000000000005 5.1450000000000005 0 0 1-3.435 5.1899999999999995c-2.4749999999999996 1.125-14.595 4.41-15.120000000000001 4.5l-0.195 0Z"></path><path fill="#ffffff" d="M37.5 4.5V19.5a4.5 4.5 0 0 1-3 4.5c-2.445 1.1099999999999999-15 4.5-15 4.5S6.945 25.11 4.5 24a4.5 4.5 0 0 1-3-4.5V4.5H37.5m1.5-1.5H0V19.5a6 6 0 0 0 3.885 5.865c2.4899999999999998 1.1400000000000001 13.934999999999999 4.2299999999999995 15.225000000000001 4.59L19.5 30l0.39-0.10500000000000001c1.29-0.34500000000000003 12.75-3.4499999999999997 15.225000000000001-4.59A6 6 0 0 0 39 19.5V3Z"></path></g></svg>