<svg xmlns="http://www.w3.org/2000/svg" viewBox="0 0 48 30" height="30" width="48"><title>ro-county-4.svg</title><path fill="none" d="M0 0L48 0 48 30 0 30z"></path><g><path fill="#3b4ba6" d="M23.85 29.235c-0.705-0.135-17.16-3.42-19.665-4.5A5.1450000000000005 5.1450000000000005 0 0 1 0.75 19.5V3.75h46.5V19.5a5.1450000000000005 5.1450000000000005 0 0 1-3.435 5.1899999999999995c-2.505 1.1400000000000001-18.96 4.41-19.665 4.5l-0.15000000000000002 0Z"></path><path fill="#ffffff" d="M46.5 4.5V19.5a4.5 4.5 0 0 1-3 4.5c-2.445 1.1099999999999999-19.5 4.5-19.5 4.5S6.945 25.11 4.5 24a4.5 4.5 0 0 1-3-4.5V4.5H46.5m1.5-1.5H0V19.5a6 6 0 0 0 3.885 5.865c2.535 1.155 18 4.26 19.830000000000002 4.6049999999999995L24 30l0.28500000000000003 0c1.77-0.34500000000000003 17.294999999999998-3.4499999999999997 19.830000000000002-4.6049999999999995A6 6 0 0 0 48 19.5V3Z"></path></g></svg>