<svg xmlns="http://www.w3.org/2000/svg" viewBox="0 0 30 30" height="30" width="30"><title>ro-national-2.svg</title><g><path fill="#cc2929" d="M15 29.25a0.75 0.75 0 0 1-0.63-0.39A6.345000000000001 6.345000000000001 0 0 0 9 26.25c-4.785 0-8.25-3.165-8.25-7.5A8.31 8.31 0 0 1 1.5 15.18 6.945 6.945 0 0 0 2.25 12 6.404999999999999 6.404999999999999 0 0 0 0.885 7.9350000000000005a0.75 0.75 0 0 1 0.09-0.96l6-6A0.75 0.75 0 0 1 7.92 0.8699999999999999 13.919999999999998 13.919999999999998 0 0 0 15.24 3.75h0A12.149999999999999 12.149999999999999 0 0 0 21.330000000000002 1.35l0.795-0.48a0.75 0.75 0 0 1 0.915 0.10500000000000001l6 6a0.75 0.75 0 0 1 0.09 0.96A6.404999999999999 6.404999999999999 0 0 0 27.75 12 6.945 6.945 0 0 0 28.5 15.18a8.31 8.31 0 0 1 0.8250000000000001 3.54c0 4.365-3.465 7.5-8.25 7.5a6.404999999999999 6.404999999999999 0 0 0-5.37 2.67 0.75 0.75 0 0 1-0.63 0.33Z"></path><path fill="#ffffff" d="M22.5 1.5l6 6a7.1850000000000005 7.1850000000000005 0 0 0-1.5 4.5 7.68 7.68 0 0 0 0.75 3.51 7.5 7.5 0 0 1 0.75 3.2249999999999996C28.5 22.845 25.11 25.5 21 25.5a7.154999999999999 7.154999999999999 0 0 0-6 3 7.050000000000001 7.050000000000001 0 0 0-6-3c-4.11 0-7.5-2.6550000000000002-7.5-6.779999999999999a7.5 7.5 0 0 1 0.75-3.2249999999999996A7.68 7.68 0 0 0 3 12 7.1850000000000005 7.1850000000000005 0 0 0 1.5 7.5L7.5 1.5a14.595 14.595 0 0 0 7.74 3h0C18 4.5 20.52 2.685 22.5 1.5m0-1.5a1.5 1.5 0 0 0-0.78 0.21000000000000002L21 0.705A11.655 11.655 0 0 1 15.315000000000001 3 13.274999999999999 13.274999999999999 0 0 1 8.355 0.27 1.5 1.5 0 0 0 7.5 0a1.5 1.5 0 0 0-1.065 0.43499999999999994l-6 6A1.5 1.5 0 0 0 0.27 8.370000000000001 5.655 5.655 0 0 1 1.5 12 6.165000000000001 6.165000000000001 0 0 1 0.8999999999999999 14.865 9 9 0 0 0 0 18.72C0 23.445 3.87 27 9 27a5.64 5.64 0 0 1 4.695 2.235A1.5 1.5 0 0 0 15 30h0a1.5 1.5 0 0 0 1.2449999999999999-0.675A5.61 5.61 0 0 1 21 27c5.13 0 9-3.555 9-8.28a9 9 0 0 0-0.8999999999999999-3.87A6.165000000000001 6.165000000000001 0 0 1 28.5 12a5.655 5.655 0 0 1 1.23-3.63 1.5 1.5 0 0 0-0.165-1.92l-6-6A1.5 1.5 0 0 0 22.5 0Z"></path></g></svg>