<svg xmlns="http://www.w3.org/2000/svg" viewBox="0 0 39 30" height="30" width="39"><title>ro-national-3.svg</title><g><path fill="#cc2929" d="M19.5 29.25a0.75 0.75 0 0 1-0.63-0.39A6.345000000000001 6.345000000000001 0 0 0 13.5 26.25c-4.74 0-12.75-1.59-12.75-7.5A8.31 8.31 0 0 1 1.5 15.18 6.945 6.945 0 0 0 2.25 12 6.404999999999999 6.404999999999999 0 0 0 0.885 7.9350000000000005a0.75 0.75 0 0 1 0.09-0.96l6-6A0.75 0.75 0 0 1 7.92 0.8699999999999999 21.855 21.855 0 0 0 19.23 3.75H19.5A22.5 22.5 0 0 0 31.11 0.855a0.75 0.75 0 0 1 0.915 0.10500000000000001l6 6a0.75 0.75 0 0 1 0.09 0.96A6.404999999999999 6.404999999999999 0 0 0 36.75 12 6.945 6.945 0 0 0 37.5 15.18a8.31 8.31 0 0 1 0.8250000000000001 3.54c0 6-8.01 7.5-12.75 7.5a6.404999999999999 6.404999999999999 0 0 0-5.37 2.67 0.75 0.75 0 0 1-0.63 0.33Z"></path><path fill="#ffffff" d="M31.5 1.5l6 6a7.1850000000000005 7.1850000000000005 0 0 0-1.5 4.5 7.68 7.68 0 0 0 0.75 3.51 7.5 7.5 0 0 1 0.75 3.2249999999999996C37.5 24 30 25.5 25.5 25.5a7.154999999999999 7.154999999999999 0 0 0-6 3 7.050000000000001 7.050000000000001 0 0 0-6-3c-4.5 0-12-1.5-12-6.779999999999999a7.5 7.5 0 0 1 0.75-3.2249999999999996A7.68 7.68 0 0 0 3 12 7.1850000000000005 7.1850000000000005 0 0 0 1.5 7.5L7.5 1.5a22.5 22.5 0 0 0 11.73 3H19.5a23.355 23.355 0 0 0 12-3m0-1.5a1.5 1.5 0 0 0-0.78 0.21000000000000002A21.93 21.93 0 0 1 19.5 3h-0.27A21 21 0 0 1 8.34 0.255 1.5 1.5 0 0 0 6.4350000000000005 0.43499999999999994l-6 6A1.5 1.5 0 0 0 0.27 8.370000000000001 5.655 5.655 0 0 1 1.5 12 6.165000000000001 6.165000000000001 0 0 1 0.8999999999999999 14.865 9 9 0 0 0 0 18.72C0 25.259999999999998 8.49 27 13.5 27a5.64 5.64 0 0 1 4.695 2.235A1.5 1.5 0 0 0 19.5 30h0a1.5 1.5 0 0 0 1.2449999999999999-0.675A5.61 5.61 0 0 1 25.5 27c10.649999999999999 0 13.5-5.205 13.5-8.28a9 9 0 0 0-0.8999999999999999-3.87A6.165000000000001 6.165000000000001 0 0 1 37.5 12a5.655 5.655 0 0 1 1.23-3.63 1.5 1.5 0 0 0-0.165-1.92l-6-6A1.5 1.5 0 0 0 31.5 0Z"></path></g></svg>