<svg xmlns="http://www.w3.org/2000/svg" viewBox="0 0 33 24" height="24" width="33"><title>si-motorway-2.svg</title><g><g><path fill="#0e8c38" d="M4.3950000000000005 20.28A3.96 3.96 0 0 1 0.75 16.5V7.5a3.96 3.96 0 0 1 3.6450000000000005-3.75L16.5 0.75l12.120000000000001 3A3.96 3.96 0 0 1 32.25 7.5v9a3.96 3.96 0 0 1-3.6450000000000005 3.75l-12.120000000000001 3Z"></path><path fill="#ffffff" d="M16.5 1.5l12 3a3.2249999999999996 3.2249999999999996 0 0 1 3 3v9a3.2249999999999996 3.2249999999999996 0 0 1-3 3l-12 3L4.5 19.5a3.2249999999999996 3.2249999999999996 0 0 1-3-3V7.5A3.2249999999999996 3.2249999999999996 0 0 1 4.5 4.5l12-3m0-1.5L16.125 0 4.29 3A4.755 4.755 0 0 0 0 7.5v9a4.755 4.755 0 0 0 4.29 4.5l11.834999999999999 3L16.5 24l0.36-0.09 11.865-3A4.755 4.755 0 0 0 33 16.5V7.5a4.755 4.755 0 0 0-4.29-4.5L16.845 0 16.5 0Z"></path></g><g><path fill="#0e8c38" d="M4.3950000000000005 20.28A3.96 3.96 0 0 1 0.75 16.5V7.5a3.96 3.96 0 0 1 3.6450000000000005-3.75L16.5 0.75l12.120000000000001 3A3.96 3.96 0 0 1 32.25 7.5v9a3.96 3.96 0 0 1-3.6450000000000005 3.75l-12.120000000000001 3Z"></path><path fill="#ffffff" d="M16.5 1.5l12 3a3.2249999999999996 3.2249999999999996 0 0 1 3 3v9a3.2249999999999996 3.2249999999999996 0 0 1-3 3l-12 3L4.5 19.5a3.2249999999999996 3.2249999999999996 0 0 1-3-3V7.5A3.2249999999999996 3.2249999999999996 0 0 1 4.5 4.5l12-3m0-1.5L16.125 0 4.29 3A4.755 4.755 0 0 0 0 7.5v9a4.755 4.755 0 0 0 4.29 4.5l11.834999999999999 3L16.5 24l0.36-0.09 11.865-3A4.755 4.755 0 0 0 33 16.5V7.5a4.755 4.755 0 0 0-4.29-4.5L16.845 0 16.5 0Z"></path></g></g></svg>