<svg xmlns="http://www.w3.org/2000/svg" viewBox="0 0 48 21" height="21" width="48"><title>sk-road-4.svg</title><g><path fill="#3b4ba6" d="M4.5600000000000005 0.885L43.56 0.885A3.75 3.75 0 0 1 47.31 4.635L47.31 16.634999999999998A3.75 3.75 0 0 1 43.56 20.384999999999998L4.5600000000000005 20.384999999999998A3.75 3.75 0 0 1 0.81 16.634999999999998L0.81 4.635A3.75 3.75 0 0 1 4.5600000000000005 0.885"></path><path fill="#ffffff" d="M43.5 1.6350000000000002a3 3 0 0 1 3 3v12a3 3 0 0 1-3 3H4.5a3 3 0 0 1-3-3v-12a3 3 0 0 1 3-3H43.5m0-1.5H4.5a4.5 4.5 0 0 0-4.5 4.5v12a4.5 4.5 0 0 0 4.5 4.5H43.5a4.5 4.5 0 0 0 4.5-4.5v-12a4.5 4.5 0 0 0-4.5-4.5Z"></path></g></svg>