<svg xmlns="http://www.w3.org/2000/svg" viewBox="0 0 48 30" height="30" width="48"><title>us-highway-duplex-4.svg</title><g><path fill="#ffffff" d="M24 27.75a0.75 0.75 0 0 1-0.615-0.33c-0.5549999999999999-0.8250000000000001-2.2199999999999998-1.2449999999999999-4.9350000000000005-1.2449999999999999-0.6900000000000001 0-1.335 0-1.92 0l-1.2000000000000002 0H15l-0.63 0c-2.91-0.12-9-0.39-11.129999999999999-2.7C-0.72 19.335 0.8400000000000001 14.76 2.34 11.67S2.235 7.005 1.0499999999999998 5.85a0.855 0.855 0 0 1-0.255-0.6000000000000001 0.795 0.795 0 0 1 0.24-0.585l4.5-3.75A0.75 0.75 0 0 1 6 0.75a0.75 0.75 0 0 1 0.36 0.09A20.265 20.265 0 0 0 15 3 21 21 0 0 0 23.655 0.8400000000000001a0.75 0.75 0 0 1 0.6900000000000001 0A21.27 21.27 0 0 0 33 3 21 21 0 0 0 41.64 0.8400000000000001a0.75 0.75 0 0 1 0.8250000000000001 0.09l4.5 3.75a0.75 0.75 0 0 1 0 1.1099999999999999c-1.2449999999999999 1.2000000000000002-2.8649999999999998 2.7750000000000004-1.35 5.88s3 7.665000000000001-0.8699999999999999 11.850000000000001c-2.175 2.325-8.22 2.58-11.129999999999999 2.7l-0.63 0h-0.405l-1.155 0-1.815 0c-2.805 0-4.5 0.405-5.04 1.23a0.75 0.75 0 0 1-0.615 0.33Z"></path><path fill="#222" d="M42 1.5l4.5 3.75c-1.17 1.1400000000000001-3.285 3.09-1.5 6.75s2.535 7.5-0.75 10.995000000000001C42.089999999999996 25.29 35.144999999999996 25.395 33 25.5h-0.36c-0.72 0-1.7999999999999998 0-3 0-2.235 0-4.7700000000000005 0.22499999999999998-5.67 1.5-0.8999999999999999-1.335-3.3600000000000003-1.5-5.550000000000001-1.5-1.23 0-2.37 0.07500000000000001-3.1049999999999995 0.07500000000000001H15c-2.145-0.10500000000000001-9.09-0.21000000000000002-11.25-2.505C0.46499999999999997 19.5 1.215 15.674999999999999 3 12S2.67 6.39 1.5 5.25L6 1.5a21 21 0 0 0 9 2.25A21.884999999999998 21.884999999999998 0 0 0 24 1.5a22.095 22.095 0 0 0 9 2.25A21.63 21.63 0 0 0 42 1.5m0-1.5a1.5 1.5 0 0 0-0.705 0.18A20.115000000000002 20.115000000000002 0 0 1 33 2.25 20.775 20.775 0 0 1 24.674999999999997 0.165a1.5 1.5 0 0 0-1.365 0A20.549999999999997 20.549999999999997 0 0 1 15 2.25 19.5 19.5 0 0 1 6.705 0.18 1.5 1.5 0 0 0 5.04 0.34500000000000003l-4.5 3.75A1.5 1.5 0 0 0 0.44999999999999996 6.33l0 0C1.6500000000000001 7.5 3 8.73 1.665 11.34 0 14.625-1.5750000000000002 19.5 2.6550000000000002 24c2.0999999999999996 2.235 6.84 2.73 11.64 3l0.63 0h0.42000000000000004L16.5 27c0.5700000000000001 0 1.215 0 1.8900000000000001 0 3.33 0 4.125 0.645 4.305 0.915A1.5 1.5 0 0 0 24 28.5h0a1.5 1.5 0 0 0 1.2449999999999999-0.66c0.135-0.21000000000000002 0.885-0.8999999999999999 4.425000000000001-0.8999999999999999L31.5 27l1.17 0h0.44999999999999996l0.63 0c4.800000000000001-0.21000000000000002 9.540000000000001-0.705 11.64-3 4.245-4.5 2.61-9.405 1.0050000000000001-12.690000000000001-1.275-2.625 0-3.8549999999999995 1.1400000000000001-4.949999999999999l0 0a1.5 1.5 0 0 0-0.09-2.235l-4.5-3.75A1.5 1.5 0 0 0 42 0Z"></path></g><path fill="none" d="M0 0L48 0 48 30 0 30z"></path><path fill="none" d="M0 0L48 0 48 30 0 30z"></path></svg>