<svg xmlns="http://www.w3.org/2000/svg" viewBox="0 0 30 57" height="57" width="30"><title>us-highway-bypass-2.svg</title><path fill="#ffffff" d="M1.3800000000000001 0H28.619999999999997A1.32 1.32 0 0 1 30 1.29V10.709999999999999a1.32 1.32 0 0 1-1.3800000000000001 1.29H1.3800000000000001A1.32 1.32 0 0 1 0 10.709999999999999V1.29A1.32 1.32 0 0 1 1.3800000000000001 0Z"></path><path fill="none" d="M0 0L30 0 30 57 0 57z"></path><g><path fill="#ffffff" d="M15 41.25a0.75 0.75 0 0 1-0.5700000000000001-0.255A5.3100000000000005 5.3100000000000005 0 0 0 10.5 39.75a9.540000000000001 9.540000000000001 0 0 1-7.26-2.73c-3.915-4.17-2.37-8.76-0.8699999999999999-11.850000000000001s-0.12-4.68-1.305-5.835a0.8400000000000001 0.8400000000000001 0 0 1-0.255-0.6000000000000001 0.78 0.78 0 0 1 0.24-0.5700000000000001l4.5-3.75A0.75 0.75 0 0 1 6 14.25h0.09a0.75 0.75 0 0 1 0.51 0.30000000000000004A5.07 5.07 0 0 0 10.5 16.5 5.475 5.475 0 0 0 14.43 14.504999999999999 0.75 0.75 0 0 1 15 14.25h0a0.75 0.75 0 0 1 0.5700000000000001 0.255A5.34 5.34 0 0 0 19.5 16.5a5.295 5.295 0 0 0 3.96-1.98 0.75 0.75 0 0 1 1.0499999999999998-0.10500000000000001l4.5 3.75a0.75 0.75 0 0 1 0 1.1099999999999999c-1.2449999999999999 1.2000000000000002-2.8649999999999998 2.7750000000000004-1.35 5.8950000000000005s3 7.665000000000001-0.8699999999999999 11.850000000000001a9.465 9.465 0 0 1-7.1850000000000005 2.73c-1.785 0.09-3.165 0.24-4.050000000000001 1.2449999999999999a0.75 0.75 0 0 1-0.5700000000000001 0.255Z"></path><path fill="#222" d="M24 15l4.5 3.7350000000000003A5.175000000000001 5.175000000000001 0 0 0 27 25.5c1.7999999999999998 3.6750000000000003 2.535 7.5-0.75 10.995000000000001A8.805 8.805 0 0 1 19.5 39a6 6 0 0 0-4.5 1.5 6 6 0 0 0-4.5-1.5 8.805 8.805 0 0 1-6.75-2.505C0.46499999999999997 33 1.215 29.174999999999997 3 25.5s-0.34500000000000003-5.625-1.5-6.765L6 15a5.79 5.79 0 0 0 4.5 2.25A6.195 6.195 0 0 0 15 15a6 6 0 0 0 4.5 2.25A6 6 0 0 0 24 15m0-1.5a1.5 1.5 0 0 0-1.155 0.54A4.5 4.5 0 0 1 19.5 15.75a4.6049999999999995 4.6049999999999995 0 0 1-3.33-1.7249999999999999 1.5 1.5 0 0 0-2.265 0A4.725 4.725 0 0 1 10.5 15.75 4.32 4.32 0 0 1 7.1850000000000005 14.100000000000001 1.5 1.5 0 0 0 6.165000000000001 13.5H6a1.5 1.5 0 0 0-0.96 0.34500000000000003l-4.5 3.7350000000000003A1.5 1.5 0 0 0 0.44999999999999996 19.815l0 0c1.1400000000000001 1.1099999999999999 2.43 2.355 1.155 4.965-0.9299999999999999 1.8900000000000001-3.7350000000000003 7.6499999999999995 0.99 12.690000000000001A10.215 10.215 0 0 0 10.350000000000001 40.5h0.07500000000000001a4.800000000000001 4.800000000000001 0 0 1 3.4499999999999997 0.99 1.5 1.5 0 0 0 2.25 0 4.800000000000001 4.800000000000001 0 0 1 3.4499999999999997-0.99h0.07500000000000001a10.215 10.215 0 0 0 7.695-3c4.74-5.04 1.935-10.8 1.0050000000000001-12.690000000000001-1.275-2.625 0-3.87 1.155-4.9799999999999995a1.5 1.5 0 0 0 0.48-1.155 1.5 1.5 0 0 0-0.51-1.125l-4.5-3.7350000000000003A1.5 1.5 0 0 0 24 13.5Z"></path></g><g><path fill="#222" d="M9.135 5.88l0.405 0.24 0.28500000000000003 0.24a1.98 1.98 0 0 1 0.42000000000000004 0.6900000000000001 2.58 2.58 0 0 1 0.135 0.855A2.835 2.835 0 0 1 10.185 9a2.205 2.205 0 0 1-0.5549999999999999 0.81 2.505 2.505 0 0 1-0.8699999999999999 0.51A3.375 3.375 0 0 1 7.62 10.5H3.87V1.5H7.5a3.54 3.54 0 0 1 1.1400000000000001 0.18 2.535 2.535 0 0 1 0.8699999999999999 0.495A2.19 2.19 0 0 1 10.05 3a2.565 2.565 0 0 1 0.195 1.02A2.04 2.04 0 0 1 9.135 5.88Zm-1.7999999999999998-0.75a1.23 1.23 0 0 0 0.855-0.27 0.96 0.96 0 0 0 0.315-0.75 0.96 0.96 0 0 0-0.315-0.75A1.23 1.23 0 0 0 7.334999999999999 3H5.625V5.13ZM7.5 8.91a1.2000000000000002 1.2000000000000002 0 0 0 0.855-0.30000000000000004 1.065 1.065 0 0 0 0.315-0.81 1.035 1.035 0 0 0-0.315-0.81A1.215 1.215 0 0 0 7.5 6.705H5.625V8.91Z"></path><path fill="#222" d="M15.585 6.795V10.5H13.845V6.795L11.145 1.5H13.049999999999999L14.73 5.115 16.38 1.5h1.905Z"></path><path fill="#222" d="M25.799999999999997 4.29a2.895 2.895 0 0 1-0.195 1.08 2.5949999999999998 2.5949999999999998 0 0 1-1.5 1.5 3.33 3.33 0 0 1-1.2449999999999999 0.22499999999999998H21.12V10.5H19.365000000000002V1.5h3.4799999999999995a3.3600000000000003 3.3600000000000003 0 0 1 1.2449999999999999 0.22499999999999998 2.685 2.685 0 0 1 0.9299999999999999 0.6000000000000001 2.6550000000000002 2.6550000000000002 0 0 1 0.585 0.8999999999999999A2.895 2.895 0 0 1 25.799999999999997 4.29ZM24 4.29a1.2000000000000002 1.2000000000000002 0 0 0-0.34500000000000003-0.8999999999999999A1.29 1.29 0 0 0 22.755 3H21.12V5.5200000000000005h1.6350000000000002a1.305 1.305 0 0 0 0.9450000000000001-0.33A1.17 1.17 0 0 0 24 4.29Z"></path><path fill="#222" d="M24.450000000000003 10.5V8.61h1.875V10.5Z"></path></g></svg>