<svg xmlns="http://www.w3.org/2000/svg" viewBox="0 0 30 57" height="57" width="30"><title>us-highway-truck-2.svg</title><path fill="#ffffff" d="M1.3800000000000001 0H28.619999999999997A1.32 1.32 0 0 1 30 1.29V10.709999999999999a1.32 1.32 0 0 1-1.3800000000000001 1.29H1.3800000000000001A1.32 1.32 0 0 1 0 10.709999999999999V1.29A1.32 1.32 0 0 1 1.3800000000000001 0Z"></path><path fill="none" d="M0 0L30 0 30 57 0 57z"></path><g><path fill="#ffffff" d="M15 41.25a0.75 0.75 0 0 1-0.5700000000000001-0.255A5.3100000000000005 5.3100000000000005 0 0 0 10.5 39.75a9.540000000000001 9.540000000000001 0 0 1-7.26-2.73c-3.915-4.17-2.37-8.76-0.8699999999999999-11.850000000000001s-0.12-4.68-1.305-5.835a0.8400000000000001 0.8400000000000001 0 0 1-0.255-0.6000000000000001 0.78 0.78 0 0 1 0.24-0.5700000000000001l4.5-3.75A0.75 0.75 0 0 1 6 14.25h0.09a0.75 0.75 0 0 1 0.51 0.30000000000000004A5.085 5.085 0 0 0 10.5 16.5 5.475 5.475 0 0 0 14.43 14.504999999999999 0.75 0.75 0 0 1 15 14.25h0a0.75 0.75 0 0 1 0.5700000000000001 0.255A5.34 5.34 0 0 0 19.5 16.5a5.295 5.295 0 0 0 3.96-1.98 0.75 0.75 0 0 1 1.0499999999999998-0.10500000000000001l4.5 3.75a0.75 0.75 0 0 1 0 1.1099999999999999c-1.2449999999999999 1.2000000000000002-2.8649999999999998 2.7750000000000004-1.35 5.8950000000000005s3 7.665000000000001-0.8699999999999999 11.850000000000001a9.465 9.465 0 0 1-7.1850000000000005 2.73c-1.785 0.09-3.165 0.24-4.050000000000001 1.2449999999999999A0.75 0.75 0 0 1 15 41.25Z"></path><path fill="#222" d="M24 15l4.5 3.7350000000000003A5.175000000000001 5.175000000000001 0 0 0 27 25.5c1.7999999999999998 3.6750000000000003 2.535 7.5-0.75 10.995000000000001A8.805 8.805 0 0 1 19.5 39a6 6 0 0 0-4.5 1.5 6 6 0 0 0-4.5-1.5 8.805 8.805 0 0 1-6.75-2.505C0.46499999999999997 33 1.215 29.174999999999997 3 25.5s-0.34500000000000003-5.625-1.5-6.765L6 15a5.79 5.79 0 0 0 4.5 2.25A6.195 6.195 0 0 0 15 15a6 6 0 0 0 4.5 2.25A6 6 0 0 0 24 15m0-1.5a1.5 1.5 0 0 0-1.155 0.54A4.5 4.5 0 0 1 19.5 15.75a4.6049999999999995 4.6049999999999995 0 0 1-3.33-1.7249999999999999 1.5 1.5 0 0 0-2.265 0A4.725 4.725 0 0 1 10.5 15.75 4.32 4.32 0 0 1 7.1850000000000005 14.100000000000001 1.5 1.5 0 0 0 6.165000000000001 13.5H6a1.5 1.5 0 0 0-0.96 0.34500000000000003l-4.5 3.7350000000000003A1.5 1.5 0 0 0 0.44999999999999996 19.815l0 0c1.1400000000000001 1.1099999999999999 2.43 2.355 1.155 4.965-0.9299999999999999 1.8900000000000001-3.7350000000000003 7.6499999999999995 0.99 12.690000000000001A10.215 10.215 0 0 0 10.350000000000001 40.5h0.07500000000000001a4.800000000000001 4.800000000000001 0 0 1 3.4499999999999997 0.99 1.5 1.5 0 0 0 2.25 0 4.800000000000001 4.800000000000001 0 0 1 3.4499999999999997-0.99h0.07500000000000001a10.215 10.215 0 0 0 7.695-3c4.74-5.04 1.935-10.8 1.0050000000000001-12.690000000000001-1.275-2.625 0-3.87 1.155-4.9799999999999995a1.5 1.5 0 0 0 0.48-1.155 1.5 1.5 0 0 0-0.51-1.125l-4.5-3.7350000000000003A1.5 1.5 0 0 0 24 13.5Z"></path></g><g><path fill="#222" d="M4.0200000000000005 2.7750000000000004V10.5H2.5949999999999998V2.7750000000000004h-1.5V1.5H5.5200000000000005v1.275Z"></path><path fill="#222" d="M9.93 10.5L8.745000000000001 6.795H7.949999999999999V10.5H6.540000000000001V1.5H8.82a2.205 2.205 0 0 1 1.77 0.63A3.1049999999999995 3.1049999999999995 0 0 1 11.100000000000001 4.14a4.1850000000000005 4.1850000000000005 0 0 1-0.21000000000000002 1.4249999999999998 1.665 1.665 0 0 1-0.8250000000000001 0.915L11.399999999999999 10.5ZM9.69 4.14a4.365 4.365 0 0 0 0-0.5249999999999999 1.5 1.5 0 0 0-0.12-0.43499999999999994 0.675 0.675 0 0 0-0.27-0.30000000000000004 0.855 0.855 0 0 0-0.44999999999999996-0.10500000000000001H7.949999999999999V5.5200000000000005h0.8699999999999999a0.8699999999999999 0.8699999999999999 0 0 0 0.44999999999999996-0.10500000000000001 0.675 0.675 0 0 0 0.27-0.30000000000000004 1.5 1.5 0 0 0 0.12-0.43499999999999994A4.3950000000000005 4.3950000000000005 0 0 0 9.69 4.14Z"></path><path fill="#222" d="M16.935 8.265a2.52 2.52 0 0 1-0.165 0.9299999999999999 2.19 2.19 0 0 1-0.44999999999999996 0.72A2.235 2.235 0 0 1 14.655 10.5a2.25 2.25 0 0 1-1.6800000000000002-0.66 2.175 2.175 0 0 1-0.44999999999999996-0.72 2.505 2.505 0 0 1-0.165-0.9299999999999999V1.5h1.41V8.34A0.9299999999999999 0.9299999999999999 0 0 0 14.04 9a0.885 0.885 0 0 0 0.63 0.24A0.8699999999999999 0.8699999999999999 0 0 0 15.285 9a0.9450000000000001 0.9450000000000001 0 0 0 0.255-0.72V1.5h1.41Z"></path><path fill="#222" d="M22.830000000000002 8.084999999999999a3.495 3.495 0 0 1-0.21000000000000002 1.095 2.085 2.085 0 0 1-0.5249999999999999 0.81 1.965 1.965 0 0 1-0.675 0.43499999999999994 2.4899999999999998 2.4899999999999998 0 0 1-0.885 0.135A2.2199999999999998 2.2199999999999998 0 0 1 19.5 10.350000000000001a2.31 2.31 0 0 1-0.6900000000000001-0.5549999999999999 2.0100000000000002 2.0100000000000002 0 0 1-0.36-0.585 3.7199999999999998 3.7199999999999998 0 0 1-0.195-0.78 8.745000000000001 8.745000000000001 0 0 1-0.09-1.0499999999999998q0-0.6000000000000001 0-1.395t0-1.395a8.745000000000001 8.745000000000001 0 0 1 0.09-1.0499999999999998 3.7199999999999998 3.7199999999999998 0 0 1 0.195-0.78 2.0100000000000002 2.0100000000000002 0 0 1 0.36-0.585A2.31 2.31 0 0 1 19.5 1.62a2.205 2.205 0 0 1 1.0499999999999998-0.22499999999999998 2.4899999999999998 2.4899999999999998 0 0 1 0.8999999999999999 0.15000000000000002 2.0250000000000004 2.0250000000000004 0 0 1 0.675 0.43499999999999994 1.995 1.995 0 0 1 0.51 0.795 3.63 3.63 0 0 1 0.195 1.095h-1.41a3.3449999999999998 3.3449999999999998 0 0 0 0-0.48 1.02 1.02 0 0 0-0.15000000000000002-0.39A0.75 0.75 0 0 0 21 2.7600000000000002a0.8400000000000001 0.8400000000000001 0 0 0-0.405-0.09 0.78 0.78 0 0 0-0.405 0.09 0.795 0.795 0 0 0-0.255 0.24 2.235 2.235 0 0 0-0.27 1.035Q19.5 4.755 19.5 6t0 1.935a2.235 2.235 0 0 0 0.27 1.035 0.795 0.795 0 0 0 0.255 0.24 0.78 0.78 0 0 0 0.405 0.09A0.8400000000000001 0.8400000000000001 0 0 0 21 9.209999999999999 0.75 0.75 0 0 0 21.195 9a1.155 1.155 0 0 0 0.15000000000000002-0.405 3.3600000000000003 3.3600000000000003 0 0 0 0-0.48Z"></path><path fill="#222" d="M27.555 10.5l-1.5-3.69-0.675 1.3800000000000001V10.5H24V1.5h1.41V5.715L27.375 1.5h1.4249999999999998L27 5.22 29.07 10.5Z"></path></g></svg>