<svg xmlns="http://www.w3.org/2000/svg" viewBox="0 0 30 30" height="30" width="30"><title>us-highway-2.svg</title><path fill="none" d="M0 0L30 0 30 30 0 30z"></path><g><path fill="#ffffff" d="M15 27.75a0.75 0.75 0 0 1-0.5700000000000001-0.255A5.385 5.385 0 0 0 10.5 26.25a9.540000000000001 9.540000000000001 0 0 1-7.26-2.73C-0.72 19.335 0.8250000000000001 14.76 2.34 11.67S2.2199999999999998 6.99 1.035 5.835a0.8400000000000001 0.8400000000000001 0 0 1-0.255-0.6000000000000001 0.78 0.78 0 0 1 0.24-0.5700000000000001l4.5-3.7350000000000003A0.75 0.75 0 0 1 6 0.75h0.09a0.75 0.75 0 0 1 0.51 0.30000000000000004A5.085 5.085 0 0 0 10.5 3 5.475 5.475 0 0 0 14.43 1.0050000000000001a0.75 0.75 0 0 1 1.1400000000000001 0A5.34 5.34 0 0 0 19.5 3 5.295 5.295 0 0 0 23.43 1.02a0.75 0.75 0 0 1 1.0499999999999998-0.09l4.5 3.7350000000000003a0.75 0.75 0 0 1 0 1.1099999999999999c-1.2449999999999999 1.2000000000000002-2.8649999999999998 2.7750000000000004-1.35 5.8950000000000005s3 7.665000000000001-0.8699999999999999 11.850000000000001a9.465 9.465 0 0 1-7.1850000000000005 2.73 5.475 5.475 0 0 0-4.050000000000001 1.2449999999999999A0.75 0.75 0 0 1 15 27.75Z"></path><path fill="#222" d="M24 1.5l4.5 3.7350000000000003A5.175000000000001 5.175000000000001 0 0 0 27 12c1.7999999999999998 3.6750000000000003 2.535 7.5-0.75 10.995000000000001A8.805 8.805 0 0 1 19.5 25.5a6 6 0 0 0-4.5 1.5 6 6 0 0 0-4.5-1.5 8.805 8.805 0 0 1-6.75-2.505C0.46499999999999997 19.5 1.215 15.674999999999999 3 12S2.67 6.375 1.5 5.235L6 1.5A5.79 5.79 0 0 0 10.5 3.75 6.195 6.195 0 0 0 15 1.5a6 6 0 0 0 4.5 2.25A6 6 0 0 0 24 1.5m0-1.5a1.5 1.5 0 0 0-1.155 0.54A4.5 4.5 0 0 1 19.5 2.25 4.6049999999999995 4.6049999999999995 0 0 1 16.14 0.5249999999999999a1.5 1.5 0 0 0-2.265 0A4.725 4.725 0 0 1 10.5 2.25 4.32 4.32 0 0 1 7.1850000000000005 0.6000000000000001 1.5 1.5 0 0 0 6.165000000000001 0H6a1.5 1.5 0 0 0-0.96 0.34500000000000003l-4.5 3.7350000000000003A1.5 1.5 0 0 0 0.44999999999999996 6.3149999999999995l0 0C1.6500000000000001 7.5 3 8.73 1.665 11.34c-0.9299999999999999 1.8900000000000001-3.7350000000000003 7.6499999999999995 0.99 12.690000000000001A10.215 10.215 0 0 0 10.350000000000001 27h0.07500000000000001a4.800000000000001 4.800000000000001 0 0 1 3.4499999999999997 0.99 1.5 1.5 0 0 0 2.25 0 4.800000000000001 4.800000000000001 0 0 1 3.4499999999999997-0.99h0.07500000000000001a10.215 10.215 0 0 0 7.695-3c4.74-5.04 1.935-10.8 1.0050000000000001-12.690000000000001-1.275-2.625 0-3.87 1.155-4.9799999999999995A1.5 1.5 0 0 0 30 5.205a1.5 1.5 0 0 0-0.51-1.125l-4.5-3.7350000000000003A1.5 1.5 0 0 0 24 0Z"></path></g></svg>