<svg xmlns="http://www.w3.org/2000/svg" viewBox="0 0 57 30" height="30" width="57"><title>us-highway-duplex-5.svg</title><g><path fill="#ffffff" d="M28.5 27.75a0.75 0.75 0 0 1-0.615-0.33c-0.315-0.46499999999999997-1.5-1.2449999999999999-6.404999999999999-1.2449999999999999-0.915 0-1.7999999999999998 0-2.52 0l-1.35 0h-0.405l-0.855 0c-5.445-0.21000000000000002-11.25-0.6900000000000001-13.14-2.7C-0.72 19.335 0.8400000000000001 14.76 2.34 11.67S2.235 7.005 1.0499999999999998 5.85a0.855 0.855 0 0 1-0.255-0.6000000000000001 0.795 0.795 0 0 1 0.24-0.585l4.5-3.75A0.75 0.75 0 0 1 6.449999999999999 0.8999999999999999c2.67 1.995 8.445 2.8499999999999996 10.8 2.8499999999999996S25.259999999999998 3 28.049999999999997 0.8999999999999999a0.75 0.75 0 0 1 0.915 0C31.740000000000002 3 37.5 3.75 39.75 3.75s8.084999999999999-0.855 10.785-2.8499999999999996a0.75 0.75 0 0 1 0.9299999999999999 0l4.5 3.75a0.75 0.75 0 0 1 0 1.1099999999999999c-1.2449999999999999 1.2000000000000002-2.8649999999999998 2.7750000000000004-1.35 5.88s3 7.665000000000001-0.8699999999999999 11.850000000000001c-1.8900000000000001 2.0100000000000002-7.709999999999999 2.4899999999999998-13.14 2.7l-0.855 0h-0.43499999999999994l-1.305 0-2.3850000000000002 0c-4.9799999999999995 0-6.24 0.765-6.555 1.23a0.75 0.75 0 0 1-0.615 0.33Z"></path><path fill="#222" d="M51 1.5l4.5 3.75c-1.17 1.1400000000000001-3.285 3.09-1.5 6.75s2.535 7.5-0.75 10.995000000000001c-2.16 2.295-11.355 2.3850000000000002-13.5 2.505h-0.39c-0.795 0-2.175 0-3.69 0-2.88 0-6.285 0.22499999999999998-7.17 1.5-0.8999999999999999-1.335-4.1850000000000005-1.5-7.02-1.5-1.59 0-3 0.07500000000000001-3.87 0.07500000000000001H17.25c-2.145-0.10500000000000001-11.34-0.21000000000000002-13.5-2.505C0.46499999999999997 19.5 1.215 15.674999999999999 3 12S2.67 6.39 1.5 5.25L6 1.5c3 2.205 9 3 11.25 3S25.5 3.795 28.5 1.5c3 2.295 9 3 11.25 3S48 3.705 51 1.5m0-1.5a1.5 1.5 0 0 0-0.885 0.30000000000000004C47.535000000000004 2.19 42 3 39.75 3S31.89 2.205 29.415 0.315a1.5 1.5 0 0 0-1.83 0C25.11 2.205 19.634999999999998 3 17.25 3S9.42 2.19 6.8999999999999995 0.30000000000000004a1.5 1.5 0 0 0-1.8599999999999999 0l-4.5 3.75A1.5 1.5 0 0 0 0.44999999999999996 6.33l0 0C1.6500000000000001 7.5 3 8.73 1.665 11.34 0 14.625-1.5750000000000002 19.5 2.6550000000000002 24c2.07 2.205 7.785 2.715 13.665 3l0.855 0h0.43499999999999994l1.365 0c0.72 0 1.59 0 2.505 0 5.1 0 5.745 0.8699999999999999 5.775 0.915A1.5 1.5 0 0 0 28.5 28.5h0a1.5 1.5 0 0 0 1.2449999999999999-0.66c0-0.09 0.8250000000000001-0.8999999999999999 6-0.8999999999999999l2.37 0 1.32 0h0.46499999999999997l0.855 0c5.88-0.22499999999999998 11.595-0.735 13.665-3 4.245-4.5 2.61-9.405 1.0050000000000001-12.690000000000001-1.275-2.625 0-3.8549999999999995 1.1400000000000001-4.949999999999999l0 0a1.5 1.5 0 0 0-0.09-2.235l-4.5-3.75A1.5 1.5 0 0 0 51 0Z"></path></g><path fill="none" d="M0 0L48 0 48 30 0 30z"></path><path fill="none" d="M0 0L57 0 57 30 0 30z"></path></svg>