<svg xmlns="http://www.w3.org/2000/svg" viewBox="0 0 39 57" height="57" width="39"><title>us-highway-truck-3.svg</title><g><path fill="#ffffff" d="M19.5 41.25a0.75 0.75 0 0 1-0.5700000000000001-0.255c-0.855-0.9750000000000001-4.62-1.17-6-1.23l-0.5700000000000001 0c-2.4000000000000004-0.12-6.885-0.33-9.120000000000001-2.715-3.915-4.17-2.37-8.76-0.8699999999999999-11.850000000000001S2.235 20.505 1.0499999999999998 19.35a0.855 0.855 0 0 1-0.255-0.6000000000000001 0.795 0.795 0 0 1 0.24-0.585l4.5-3.75a0.75 0.75 0 0 1 1.02 0A9.69 9.69 0 0 0 12.75 16.5a9.84 9.84 0 0 0 6.209999999999999-2.0250000000000004A0.75 0.75 0 0 1 19.5 14.25h0a0.75 0.75 0 0 1 0.5249999999999999 0.22499999999999998A9.78 9.78 0 0 0 26.25 16.5a9.615 9.615 0 0 0 6.195-2.0250000000000004 0.75 0.75 0 0 1 1.02 0l4.5 3.75a0.75 0.75 0 0 1 0 1.1099999999999999c-1.2449999999999999 1.2000000000000002-2.8649999999999998 2.7750000000000004-1.35 5.88s3 7.665000000000001-0.8699999999999999 11.850000000000001c-2.235 2.3850000000000002-6.720000000000001 2.5949999999999998-9.120000000000001 2.715l-0.5700000000000001 0c-1.4249999999999998 0-5.1899999999999995 0.255-6 1.23A0.75 0.75 0 0 1 19.5 41.25Z"></path><path fill="#222" d="M33 15l4.5 3.75c-1.17 1.1400000000000001-3.285 3.09-1.5 6.75s2.535 7.5-0.75 10.995000000000001c-2.16 2.295-6.855 2.3850000000000002-9 2.505-1.7399999999999998 0.09-5.64 0.24-6.75 1.5-1.1099999999999999-1.26-5.01-1.41-6.75-1.5-2.145-0.10500000000000001-6.84-0.21000000000000002-9-2.505C0.46499999999999997 33 1.215 29.174999999999997 3 25.5s-0.34500000000000003-5.61-1.5-6.75L6 15a10.41 10.41 0 0 0 6.75 2.25A10.5 10.5 0 0 0 19.5 15a10.5 10.5 0 0 0 6.75 2.25A10.26 10.26 0 0 0 33 15m0-1.5a1.5 1.5 0 0 0-1.08 0.44999999999999996 9 9 0 0 1-5.655 1.7999999999999998 9.149999999999999 9.149999999999999 0 0 1-5.6850000000000005-1.815A1.5 1.5 0 0 0 19.5 13.5h0a1.5 1.5 0 0 0-1.065 0.44999999999999996A9.165000000000001 9.165000000000001 0 0 1 12.75 15.75 9 9 0 0 1 7.0649999999999995 13.950000000000001a1.5 1.5 0 0 0-2.0250000000000004-0.10500000000000001l-4.5 3.75A1.5 1.5 0 0 0 0.44999999999999996 19.830000000000002l0 0c1.1400000000000001 1.095 2.415 2.34 1.1400000000000001 4.949999999999999C0 28.125-1.5750000000000002 33 2.6550000000000002 37.5c2.445 2.61 7.125 2.835 9.629999999999999 3h0.5549999999999999c4.2299999999999995 0.21000000000000002 5.28 0.705 5.5200000000000005 0.99A1.5 1.5 0 0 0 19.5 42h0a1.5 1.5 0 0 0 1.125-0.51c0.24-0.27 1.29-0.765 5.5200000000000005-0.99h0.5549999999999999c2.505-0.12 7.1850000000000005-0.34500000000000003 9.629999999999999-3 4.245-4.5 2.61-9.405 1.0050000000000001-12.690000000000001-1.275-2.625 0-3.8549999999999995 1.1400000000000001-4.949999999999999l0 0a1.5 1.5 0 0 0-0.09-2.235l-4.5-3.75A1.5 1.5 0 0 0 33 13.5Z"></path></g><path fill="none" d="M0 13.5L39 13.5 39 43.5 0 43.5z"></path><path fill="none" d="M0 0L39 0 39 57 0 57z"></path><path fill="#ffffff" d="M5.88 0H33.12A1.32 1.32 0 0 1 34.5 1.29V10.709999999999999a1.32 1.32 0 0 1-1.3800000000000001 1.29H5.88A1.32 1.32 0 0 1 4.5 10.709999999999999V1.29A1.32 1.32 0 0 1 5.88 0Z"></path><g><path fill="#222" d="M8.52 2.7750000000000004V10.5H7.095000000000001V2.7750000000000004h-1.5V1.5H10.02v1.275Z"></path><path fill="#222" d="M14.43 10.5L13.245000000000001 6.795H12.450000000000001V10.5H11.040000000000001V1.5H13.32a2.205 2.205 0 0 1 1.77 0.63 3.1049999999999995 3.1049999999999995 0 0 1 0.5249999999999999 2.0250000000000004 4.1850000000000005 4.1850000000000005 0 0 1-0.21000000000000002 1.4249999999999998 1.665 1.665 0 0 1-0.8250000000000001 0.915L15.899999999999999 10.5ZM14.190000000000001 4.14a4.365 4.365 0 0 0 0-0.5249999999999999 1.5 1.5 0 0 0-0.12-0.43499999999999994 0.675 0.675 0 0 0-0.27-0.30000000000000004 0.855 0.855 0 0 0-0.44999999999999996-0.10500000000000001H12.450000000000001V5.5200000000000005h0.8699999999999999a0.8699999999999999 0.8699999999999999 0 0 0 0.44999999999999996-0.10500000000000001 0.675 0.675 0 0 0 0.27-0.30000000000000004 1.5 1.5 0 0 0 0.12-0.43499999999999994A4.3950000000000005 4.3950000000000005 0 0 0 14.190000000000001 4.14Z"></path><path fill="#222" d="M21.435 8.265a2.52 2.52 0 0 1-0.165 0.9299999999999999 2.19 2.19 0 0 1-0.44999999999999996 0.72 2.46 2.46 0 0 1-3.3449999999999998 0 2.175 2.175 0 0 1-0.44999999999999996-0.72 2.505 2.505 0 0 1-0.165-0.9299999999999999V1.5h1.41V8.34a0.9299999999999999 0.9299999999999999 0 0 0 0.255 0.72 0.885 0.885 0 0 0 0.63 0.24A0.8699999999999999 0.8699999999999999 0 0 0 19.785 9a0.9450000000000001 0.9450000000000001 0 0 0 0.255-0.72V1.5h1.41Z"></path><path fill="#222" d="M27.33 8.084999999999999a3.495 3.495 0 0 1-0.21000000000000002 1.095 2.085 2.085 0 0 1-0.5249999999999999 0.81 1.965 1.965 0 0 1-0.675 0.43499999999999994 2.4899999999999998 2.4899999999999998 0 0 1-0.885 0.135A2.2199999999999998 2.2199999999999998 0 0 1 24 10.350000000000001a2.31 2.31 0 0 1-0.6900000000000001-0.5549999999999999 2.0100000000000002 2.0100000000000002 0 0 1-0.36-0.585 3.7199999999999998 3.7199999999999998 0 0 1-0.195-0.78 8.745000000000001 8.745000000000001 0 0 1-0.09-1.0499999999999998q0-0.6000000000000001 0-1.395t0-1.395a8.745000000000001 8.745000000000001 0 0 1 0.09-1.0499999999999998 3.7199999999999998 3.7199999999999998 0 0 1 0.195-0.78 2.0100000000000002 2.0100000000000002 0 0 1 0.36-0.585A2.31 2.31 0 0 1 24 1.62a2.205 2.205 0 0 1 1.0499999999999998-0.22499999999999998 2.4899999999999998 2.4899999999999998 0 0 1 0.8999999999999999 0.15000000000000002 2.0250000000000004 2.0250000000000004 0 0 1 0.675 0.43499999999999994 1.995 1.995 0 0 1 0.51 0.795 3.63 3.63 0 0 1 0.195 1.095h-1.41a3.3449999999999998 3.3449999999999998 0 0 0 0-0.48 1.02 1.02 0 0 0-0.15000000000000002-0.39A0.75 0.75 0 0 0 25.5 2.7600000000000002a0.8400000000000001 0.8400000000000001 0 0 0-0.405-0.09 0.78 0.78 0 0 0-0.405 0.09 0.795 0.795 0 0 0-0.255 0.24 2.235 2.235 0 0 0-0.27 1.035Q24 4.755 24 6t0 1.935a2.235 2.235 0 0 0 0.27 1.035 0.795 0.795 0 0 0 0.255 0.24 0.78 0.78 0 0 0 0.405 0.09A0.8400000000000001 0.8400000000000001 0 0 0 25.5 9.209999999999999 0.75 0.75 0 0 0 25.695 9a1.155 1.155 0 0 0 0.15000000000000002-0.405 3.3600000000000003 3.3600000000000003 0 0 0 0-0.48Z"></path><path fill="#222" d="M32.055 10.5l-1.5-3.69-0.675 1.3800000000000001V10.5H28.5V1.5h1.41V5.715L31.875 1.5h1.4249999999999998L31.5 5.22 33.57 10.5Z"></path></g></svg>