<svg xmlns="http://www.w3.org/2000/svg" viewBox="0 0 39 30" height="30" width="39"><title>us-highway-3.svg</title><g><path fill="#ffffff" d="M19.5 27.75a0.75 0.75 0 0 1-0.5700000000000001-0.255c-0.855-0.9750000000000001-4.635-1.17-6-1.23l-0.5549999999999999 0c-2.4000000000000004-0.12-6.885-0.33-9.120000000000001-2.715C-0.72 19.335 0.8400000000000001 14.76 2.34 11.67S2.235 7.005 1.0499999999999998 5.85a0.855 0.855 0 0 1-0.255-0.6000000000000001 0.795 0.795 0 0 1 0.24-0.585l4.5-3.75a0.75 0.75 0 0 1 1.02 0A9.69 9.69 0 0 0 12.75 3 9.84 9.84 0 0 0 18.96 0.9750000000000001 0.75 0.75 0 0 1 19.5 0.75h0a0.75 0.75 0 0 1 0.5249999999999999 0.22499999999999998A9.78 9.78 0 0 0 26.25 3 9.615 9.615 0 0 0 32.445 0.9750000000000001a0.75 0.75 0 0 1 1.02 0l4.5 3.75a0.75 0.75 0 0 1 0 1.1099999999999999c-1.2449999999999999 1.2000000000000002-2.8649999999999998 2.7750000000000004-1.35 5.88s3 7.665000000000001-0.8699999999999999 11.850000000000001c-2.235 2.3850000000000002-6.720000000000001 2.5949999999999998-9.120000000000001 2.715l-0.5549999999999999 0c-1.4249999999999998 0-5.1899999999999995 0.255-6 1.23A0.75 0.75 0 0 1 19.5 27.75Z"></path><path fill="#222" d="M33 1.5l4.5 3.75c-1.17 1.1400000000000001-3.285 3.09-1.5 6.75s2.535 7.5-0.75 10.995000000000001c-2.16 2.295-6.855 2.3850000000000002-9 2.505-1.7399999999999998 0.09-5.64 0.24-6.75 1.5-1.1099999999999999-1.26-5.01-1.41-6.75-1.5-2.145-0.10500000000000001-6.84-0.21000000000000002-9-2.505C0.46499999999999997 19.5 1.215 15.674999999999999 3 12S2.67 6.39 1.5 5.25L6 1.5A10.41 10.41 0 0 0 12.75 3.75 10.5 10.5 0 0 0 19.5 1.5a10.5 10.5 0 0 0 6.75 2.25A10.26 10.26 0 0 0 33 1.5m0-1.5a1.5 1.5 0 0 0-1.08 0.44999999999999996A9 9 0 0 1 26.25 2.25 9.149999999999999 9.149999999999999 0 0 1 20.565 0.43499999999999994 1.5 1.5 0 0 0 19.5 0h0a1.5 1.5 0 0 0-1.065 0.44999999999999996A9.165000000000001 9.165000000000001 0 0 1 12.75 2.25 9 9 0 0 1 7.0649999999999995 0.44999999999999996 1.5 1.5 0 0 0 5.04 0.34500000000000003l-4.5 3.75A1.5 1.5 0 0 0 0.44999999999999996 6.33l0 0C1.6500000000000001 7.5 3 8.73 1.665 11.34 0 14.625-1.5750000000000002 19.5 2.6550000000000002 24c2.445 2.61 7.125 2.835 9.629999999999999 3h0.5549999999999999c4.2299999999999995 0.21000000000000002 5.28 0.705 5.5200000000000005 0.99A1.5 1.5 0 0 0 19.5 28.5h0a1.5 1.5 0 0 0 1.125-0.51c0.24-0.27 1.29-0.765 5.5200000000000005-0.99h0.5549999999999999c2.505-0.12 7.1850000000000005-0.34500000000000003 9.629999999999999-3 4.245-4.5 2.61-9.405 1.0050000000000001-12.690000000000001-1.275-2.625 0-3.8549999999999995 1.1400000000000001-4.949999999999999l0 0a1.5 1.5 0 0 0-0.09-2.235l-4.5-3.75A1.5 1.5 0 0 0 33 0Z"></path></g><path fill="none" d="M0 0L39 0 39 30 0 30z"></path><path fill="none" d="M0 0L39 0 39 30 0 30z"></path></svg>