<svg xmlns="http://www.w3.org/2000/svg" width="48" height="30" viewBox="0 0 48 30">
  <title>us-highway-bet</title>
  <g>
    <path d="M15,25.5c1.74.09,7.5-.7,9,1.5,1.45-2.16,7.26-1.41,9-1.5,2.14-.11,9.1-.21,11.25-2.5,3.29-3.5,2.55-7.32.75-11s.33-5.61,1.5-6.75L42,1.5a21.63,21.63,0,0,1-9,2.25A22.09,22.09,0,0,1,24,1.5a21.89,21.89,0,0,1-9,2.25A21,21,0,0,1,6,1.5L1.5,5.25C2.67,6.39,4.8,8.34,3,12s-2.55,7.5.74,11C5.91,25.29,12.86,25.39,15,25.5Z" fill="#fff"/>
    <path d="M42,1.5,46.5,5.25C45.33,6.39,43.21,8.34,45,12s2.54,7.5-.75,11c-2.15,2.29-9.11,2.39-11.25,2.5h-.37c-.71,0-1.8-.06-3-.06-2.23,0-4.77.23-5.67,1.56-.9-1.33-3.36-1.57-5.55-1.57-1.23,0-2.37.08-3.11.08H15c-2.14-.11-9.09-.21-11.25-2.5C.46,19.5,1.21,15.68,3,12S2.67,6.39,1.5,5.25L6,1.5a21,21,0,0,0,9,2.25A21.89,21.89,0,0,0,24,1.5a22.09,22.09,0,0,0,9,2.25A21.63,21.63,0,0,0,42,1.5M42,0a1.5,1.5,0,0,0-.7.17A20.12,20.12,0,0,1,33,2.25,20.77,20.77,0,0,1,24.68.16a1.5,1.5,0,0,0-1.37,0A20.55,20.55,0,0,1,15,2.25,19.43,19.43,0,0,1,6.71.18,1.5,1.5,0,0,0,5,.35L.54,4.1A1.5,1.5,0,0,0,.45,6.33l.07.07c1.13,1.1,2.42,2.34,1.14,4.95-1.6,3.28-3.25,8.17,1,12.69C4.76,26.26,9.49,26.76,14.3,27l.63,0h.42l1.22,0c.57,0,1.21,0,1.89,0,3.33,0,4.12.64,4.31.91A1.5,1.5,0,0,0,24,28.5h0a1.5,1.5,0,0,0,1.24-.66c.14-.21.88-.89,4.42-.89.64,0,1.25,0,1.79,0l1.17,0h.44l.63,0c4.8-.21,9.54-.71,11.64-2.94,4.25-4.52,2.61-9.41,1-12.69-1.28-2.62,0-3.86,1.14-5l.06-.06a1.5,1.5,0,0,0-.09-2.23L42.94.35A1.5,1.5,0,0,0,42,0Z" fill="#222"/>
  </g>
  <rect width="48" height="30" fill="none"/>
  <rect width="48" height="30" fill="none"/>
</svg>
