<svg xmlns="http://www.w3.org/2000/svg" viewBox="0 0 39 57" height="57" width="39"><title>us-highway-bypass-3.svg</title><g><path fill="#ffffff" d="M19.5 41.25a0.75 0.75 0 0 1-0.5700000000000001-0.255c-0.855-0.9750000000000001-4.62-1.17-6-1.23l-0.5700000000000001 0c-2.4000000000000004-0.12-6.885-0.33-9.120000000000001-2.715-3.915-4.17-2.37-8.76-0.8699999999999999-11.850000000000001S2.235 20.505 1.0499999999999998 19.35a0.855 0.855 0 0 1-0.255-0.6000000000000001 0.795 0.795 0 0 1 0.24-0.585l4.5-3.75a0.75 0.75 0 0 1 1.02 0A9.69 9.69 0 0 0 12.75 16.5a9.84 9.84 0 0 0 6.209999999999999-2.0250000000000004A0.75 0.75 0 0 1 19.5 14.25h0a0.75 0.75 0 0 1 0.5249999999999999 0.22499999999999998A9.78 9.78 0 0 0 26.25 16.5a9.615 9.615 0 0 0 6.195-2.0250000000000004 0.75 0.75 0 0 1 1.02 0l4.5 3.75a0.75 0.75 0 0 1 0 1.1099999999999999c-1.2449999999999999 1.2000000000000002-2.8649999999999998 2.7750000000000004-1.35 5.88s3 7.665000000000001-0.8699999999999999 11.850000000000001c-2.235 2.3850000000000002-6.720000000000001 2.5949999999999998-9.120000000000001 2.715l-0.5700000000000001 0c-1.4249999999999998 0-5.1899999999999995 0.255-6 1.23A0.75 0.75 0 0 1 19.5 41.25Z"></path><path fill="#222" d="M33 15l4.5 3.75c-1.17 1.1400000000000001-3.285 3.09-1.5 6.75s2.535 7.5-0.75 10.995000000000001c-2.16 2.295-6.855 2.3850000000000002-9 2.505-1.7399999999999998 0.09-5.64 0.24-6.75 1.5-1.1099999999999999-1.26-5.01-1.41-6.75-1.5-2.145-0.10500000000000001-6.84-0.21000000000000002-9-2.505C0.46499999999999997 33 1.215 29.174999999999997 3 25.5s-0.34500000000000003-5.61-1.5-6.75L6 15a10.41 10.41 0 0 0 6.75 2.25A10.5 10.5 0 0 0 19.5 15a10.5 10.5 0 0 0 6.75 2.25A10.26 10.26 0 0 0 33 15m0-1.5a1.5 1.5 0 0 0-1.08 0.44999999999999996 9 9 0 0 1-5.655 1.7999999999999998 9.149999999999999 9.149999999999999 0 0 1-5.6850000000000005-1.815A1.5 1.5 0 0 0 19.5 13.5h0a1.5 1.5 0 0 0-1.065 0.44999999999999996A9.165000000000001 9.165000000000001 0 0 1 12.75 15.75 9 9 0 0 1 7.08 13.950000000000001a1.5 1.5 0 0 0-2.0250000000000004-0.10500000000000001l-4.5 3.75a1.5 1.5 0 0 0-0.09 2.235l0 0c1.1400000000000001 1.095 2.415 2.34 1.1400000000000001 4.949999999999999C0 28.125-1.5750000000000002 33 2.67 37.5c2.445 2.61 7.125 2.835 9.629999999999999 3h0.5549999999999999c4.2299999999999995 0.21000000000000002 5.28 0.705 5.5200000000000005 0.99A1.5 1.5 0 0 0 19.5 42h0a1.5 1.5 0 0 0 1.125-0.51c0.24-0.27 1.29-0.765 5.5200000000000005-0.99h0.5549999999999999c2.505-0.12 7.1850000000000005-0.34500000000000003 9.629999999999999-3 4.245-4.5 2.61-9.405 1.0050000000000001-12.690000000000001-1.275-2.625 0-3.8549999999999995 1.1400000000000001-4.949999999999999l0 0a1.5 1.5 0 0 0-0.09-2.235l-4.5-3.75A1.5 1.5 0 0 0 33 13.5Z"></path></g><path fill="none" d="M0 13.5L39 13.5 39 43.5 0 43.5z"></path><path fill="none" d="M0 0L39 0 39 57 0 57z"></path><path fill="#ffffff" d="M1.3800000000000001 0H37.62A1.32 1.32 0 0 1 39 1.29V10.709999999999999a1.32 1.32 0 0 1-1.3800000000000001 1.29H1.3800000000000001A1.32 1.32 0 0 1 0 10.709999999999999V1.29A1.32 1.32 0 0 1 1.3800000000000001 0Z"></path><g><path fill="#222" d="M7.574999999999999 7.904999999999999A4.725 4.725 0 0 1 7.5 9.149999999999999a1.755 1.755 0 0 1-0.44999999999999996 0.765 1.77 1.77 0 0 1-0.705 0.43499999999999994A3.4050000000000002 3.4050000000000002 0 0 1 5.235 10.5H3V1.5H5.25a3.51 3.51 0 0 1 1.0499999999999998 0.135 1.62 1.62 0 0 1 0.6900000000000001 0.42000000000000004A1.755 1.755 0 0 1 7.5 2.7750000000000004 3.93 3.93 0 0 1 7.5 3.9000000000000004 3.33 3.33 0 0 1 7.5 4.755a1.62 1.62 0 0 1-0.42000000000000004 0.705l-0.21000000000000002 0.18-0.255 0.135a1.665 1.665 0 0 1 0.495 0.33 1.62 1.62 0 0 1 0.42000000000000004 0.75A4.62 4.62 0 0 1 7.574999999999999 7.904999999999999Zm-1.5-3.915A1.5 1.5 0 0 0 5.91 3a0.99 0.99 0 0 0-0.795-0.27H4.41V5.22h0.705a0.96 0.96 0 0 0 0.795-0.28500000000000003A1.5 1.5 0 0 0 6.135 3.99Zm0 3.8249999999999997a1.785 1.785 0 0 0-0.255-1.08 0.9750000000000001 0.9750000000000001 0 0 0-0.8250000000000001-0.315H4.41V9.209999999999999H5.1a1.0050000000000001 1.0050000000000001 0 0 0 0.8250000000000001-0.315A1.77 1.77 0 0 0 6.165000000000001 7.8149999999999995Z"></path><path fill="#222" d="M11.100000000000001 6.959999999999999V10.5H9.69V6.959999999999999L7.949999999999999 1.5h1.5l0.885 3.555L11.28 1.5h1.5Z"></path><path fill="#222" d="M12.299999999999999 7.5V6.209999999999999H14.850000000000001V7.5Z"></path><path fill="#222" d="M20.115000000000002 4.245A3.2249999999999996 3.2249999999999996 0 0 1 19.5 6.3149999999999995a2.16 2.16 0 0 1-1.77 0.66h-0.8400000000000001V10.5h-1.41V1.5h2.25A2.16 2.16 0 0 1 19.5 2.175 3.255 3.255 0 0 1 20.115000000000002 4.245Zm-1.41 0a2.505 2.505 0 0 0-0.195-1.065 0.75 0.75 0 0 0-0.75-0.39h-0.795V5.6850000000000005h0.795a0.765 0.765 0 0 0 0.75-0.39A2.46 2.46 0 0 0 18.705000000000002 4.245Z"></path><path fill="#222" d="M24.299999999999997 10.5L24 8.7H21.855L21.495 10.5h-1.5l2.205-9h1.3800000000000001l2.175 9Zm-1.395-6.8100000000000005L22.125 7.5h1.5Z"></path><path fill="#222" d="M31.005000000000003 7.995a4.905 4.905 0 0 1-0.12 1.17 1.6500000000000001 1.6500000000000001 0 0 1-0.46499999999999997 0.81 2.085 2.085 0 0 1-0.705 0.43499999999999994 3 3 0 0 1-1.035 0.165A2.355 2.355 0 0 1 27 9.975000000000001a1.755 1.755 0 0 1-0.44999999999999996-0.765 4.32 4.32 0 0 1-0.12-1.155h1.41a2.91 2.91 0 0 0 0 0.6000000000000001 0.8999999999999999 0.8999999999999999 0 0 0 0.195 0.405 0.8250000000000001 0.8250000000000001 0 0 0 0.255 0.165 0.9750000000000001 0.9750000000000001 0 0 0 0.39 0A0.855 0.855 0 0 0 29.355 9a0.8999999999999999 0.8999999999999999 0 0 0 0.195-0.39 3 3 0 0 0 0-0.6000000000000001 4.62 4.62 0 0 0 0-0.585 1.02 1.02 0 0 0-0.12-0.39 0.885 0.885 0 0 0-0.255-0.27 2.0250000000000004 2.0250000000000004 0 0 0-0.43499999999999994-0.21000000000000002l-1.065-0.43499999999999994a2.7 2.7 0 0 1-0.585-0.315 1.365 1.365 0 0 1-0.39-0.43499999999999994 2.04 2.04 0 0 1-0.21000000000000002-0.63 4.8149999999999995 4.8149999999999995 0 0 1 0-0.885 3 3 0 0 1 0.18-1.095 2.0250000000000004 2.0250000000000004 0 0 1 0.5549999999999999-0.81 2.235 2.235 0 0 1 0.675-0.39 2.43 2.43 0 0 1 0.8699999999999999-0.15000000000000002 2.25 2.25 0 0 1 1.62 0.54 1.815 1.815 0 0 1 0.495 0.8250000000000001 4.11 4.11 0 0 1 0.135 1.125h-1.41a3.5250000000000004 3.5250000000000004 0 0 0 0-0.54A0.885 0.885 0 0 0 29.31 3a0.735 0.735 0 0 0-0.63-0.27 0.8400000000000001 0.8400000000000001 0 0 0-0.36 0 0.765 0.765 0 0 0-0.24 0.18 1.335 1.335 0 0 0-0.24 0.885 3.615 3.615 0 0 0 0 0.46499999999999997 0.81 0.81 0 0 0 0.10500000000000001 0.315 0.795 0.795 0 0 0 0.22499999999999998 0.24 1.71 1.71 0 0 0 0.39 0.195l1.065 0.43499999999999994a3 3 0 0 1 0.675 0.36 1.5 1.5 0 0 1 0.42000000000000004 0.495 2.25 2.25 0 0 1 0.21000000000000002 0.6900000000000001A6.449999999999999 6.449999999999999 0 0 1 31.005000000000003 7.995Z"></path><path fill="#222" d="M36.57 7.995a4.905 4.905 0 0 1-0.12 1.17 1.6500000000000001 1.6500000000000001 0 0 1-0.46499999999999997 0.81 2.085 2.085 0 0 1-0.705 0.43499999999999994 3 3 0 0 1-1.035 0.165 2.355 2.355 0 0 1-1.7399999999999998-0.585 1.755 1.755 0 0 1-0.44999999999999996-0.765 4.32 4.32 0 0 1-0.12-1.155h1.41a2.91 2.91 0 0 0 0 0.6000000000000001 0.8999999999999999 0.8999999999999999 0 0 0 0.195 0.405 0.8250000000000001 0.8250000000000001 0 0 0 0.255 0.165 0.9750000000000001 0.9750000000000001 0 0 0 0.39 0A0.855 0.855 0 0 0 34.92 9a0.8999999999999999 0.8999999999999999 0 0 0 0.195-0.39 3 3 0 0 0 0-0.6000000000000001 4.62 4.62 0 0 0 0-0.585 1.02 1.02 0 0 0-0.12-0.39 0.885 0.885 0 0 0-0.255-0.27 2.0250000000000004 2.0250000000000004 0 0 0-0.43499999999999994-0.21000000000000002l-1.065-0.43499999999999994a2.7 2.7 0 0 1-0.585-0.315 1.365 1.365 0 0 1-0.39-0.43499999999999994 2.04 2.04 0 0 1-0.21000000000000002-0.63 4.8149999999999995 4.8149999999999995 0 0 1 0-0.885 3 3 0 0 1 0.18-1.095 2.0250000000000004 2.0250000000000004 0 0 1 0.5549999999999999-0.81 2.235 2.235 0 0 1 0.675-0.39 2.43 2.43 0 0 1 0.8699999999999999-0.15000000000000002 2.25 2.25 0 0 1 1.62 0.54 1.815 1.815 0 0 1 0.495 0.8250000000000001 4.11 4.11 0 0 1 0.135 1.125H35.099999999999994a3.5250000000000004 3.5250000000000004 0 0 0 0-0.54A0.885 0.885 0 0 0 34.89 3a0.735 0.735 0 0 0-0.63-0.27 0.8400000000000001 0.8400000000000001 0 0 0-0.36 0 0.765 0.765 0 0 0-0.24 0.18 1.335 1.335 0 0 0-0.24 0.885 3.615 3.615 0 0 0 0 0.46499999999999997 0.81 0.81 0 0 0 0.10500000000000001 0.315 0.795 0.795 0 0 0 0.22499999999999998 0.24 1.71 1.71 0 0 0 0.39 0.195l1.065 0.43499999999999994a3 3 0 0 1 0.675 0.36 1.5 1.5 0 0 1 0.42000000000000004 0.495 2.25 2.25 0 0 1 0.21000000000000002 0.6900000000000001A6.449999999999999 6.449999999999999 0 0 1 36.57 7.995Z"></path></g></svg>