<svg xmlns="http://www.w3.org/2000/svg" viewBox="0 0 39 60" height="60" width="39"><title>us-interstate-truck-3.svg</title><path fill="#ffffff" d="M34.5 15a8.16 8.16 0 0 1 3 6v3c0 13.905-18 18-18 18S1.5 38.01 1.5 24V21a8.100000000000001 8.100000000000001 0 0 1 3-6 10.2 10.2 0 0 0 7.5 3 10.5 10.5 0 0 0 7.5-3 10.59 10.59 0 0 0 7.5 3 10.365 10.365 0 0 0 7.5-3M4.5 13.5a1.5 1.5 0 0 0-0.8699999999999999 0.28500000000000003A9.57 9.57 0 0 0 0 21v3c0 6.27 3.3600000000000003 11.64 9.72 15.524999999999999A34.410000000000004 34.410000000000004 0 0 0 19.169999999999998 43.5L19.5 43.5l0.33 0a34.755 34.755 0 0 0 9.45-3.96C35.64 35.61 39 30.255000000000003 39 24V21a9.629999999999999 9.629999999999999 0 0 0-3.63-7.23 1.5 1.5 0 0 0-1.995 0.22499999999999998A8.850000000000001 8.850000000000001 0 0 1 27 16.5a9 9 0 0 1-6.39-2.52A1.5 1.5 0 0 0 19.5 13.5h0a1.5 1.5 0 0 0-1.1099999999999999 0.495A9 9 0 0 1 12 16.5 8.850000000000001 8.850000000000001 0 0 1 5.64 14.024999999999999 1.5 1.5 0 0 0 4.5 13.5Z"></path><path fill="#3b4ba6" d="M1.5 24c0 13.98 18 18 18 18s18-4.08 18-18V22.5H1.5Z"></path><path fill="#cc2929" d="M1.5 21a8.084999999999999 8.084999999999999 0 0 1 3-6 10.2 10.2 0 0 0 7.5 3 10.5 10.5 0 0 0 7.5-3 10.59 10.59 0 0 0 7.5 3 10.365 10.365 0 0 0 7.5-3 8.145 8.145 0 0 1 3 6Z"></path><path fill="#ffffff" d="M1.5 21L37.5 21 37.5 22.5 1.5 22.5z"></path><path fill="none" d="M0 0L39 0 39 60 0 60z"></path><path fill="#ffffff" d="M5.88 0H33.12A1.32 1.32 0 0 1 34.5 1.29V10.709999999999999a1.32 1.32 0 0 1-1.3800000000000001 1.29H5.88A1.32 1.32 0 0 1 4.5 10.709999999999999V1.29A1.32 1.32 0 0 1 5.88 0Z"></path><g><path fill="#222" d="M8.52 2.7750000000000004V10.5H7.095000000000001V2.7750000000000004h-1.5V1.5H10.02v1.275Z"></path><path fill="#222" d="M14.43 10.5L13.245000000000001 6.795H12.450000000000001V10.5H11.040000000000001V1.5H13.32a2.205 2.205 0 0 1 1.77 0.63 3.1049999999999995 3.1049999999999995 0 0 1 0.5249999999999999 2.0250000000000004 4.1850000000000005 4.1850000000000005 0 0 1-0.21000000000000002 1.4249999999999998 1.665 1.665 0 0 1-0.8250000000000001 0.915L15.899999999999999 10.5ZM14.190000000000001 4.14a4.365 4.365 0 0 0 0-0.5249999999999999 1.5 1.5 0 0 0-0.12-0.43499999999999994 0.675 0.675 0 0 0-0.27-0.30000000000000004 0.855 0.855 0 0 0-0.44999999999999996-0.10500000000000001H12.450000000000001V5.5200000000000005h0.8699999999999999a0.8699999999999999 0.8699999999999999 0 0 0 0.44999999999999996-0.10500000000000001 0.675 0.675 0 0 0 0.27-0.30000000000000004 1.5 1.5 0 0 0 0.12-0.43499999999999994A4.3950000000000005 4.3950000000000005 0 0 0 14.190000000000001 4.14Z"></path><path fill="#222" d="M21.435 8.265a2.52 2.52 0 0 1-0.165 0.9299999999999999 2.19 2.19 0 0 1-0.44999999999999996 0.72 2.46 2.46 0 0 1-3.3449999999999998 0 2.175 2.175 0 0 1-0.44999999999999996-0.72 2.505 2.505 0 0 1-0.165-0.9299999999999999V1.5h1.41V8.34a0.9299999999999999 0.9299999999999999 0 0 0 0.255 0.72 0.885 0.885 0 0 0 0.63 0.24A0.8699999999999999 0.8699999999999999 0 0 0 19.785 9a0.9450000000000001 0.9450000000000001 0 0 0 0.255-0.72V1.5h1.41Z"></path><path fill="#222" d="M27.33 8.084999999999999a3.495 3.495 0 0 1-0.21000000000000002 1.095 2.085 2.085 0 0 1-0.5249999999999999 0.81 1.965 1.965 0 0 1-0.675 0.43499999999999994 2.4899999999999998 2.4899999999999998 0 0 1-0.885 0.135A2.2199999999999998 2.2199999999999998 0 0 1 24 10.350000000000001a2.31 2.31 0 0 1-0.6900000000000001-0.5549999999999999 2.0100000000000002 2.0100000000000002 0 0 1-0.36-0.585 3.7199999999999998 3.7199999999999998 0 0 1-0.195-0.78 8.745000000000001 8.745000000000001 0 0 1-0.09-1.0499999999999998q0-0.6000000000000001 0-1.395t0-1.395a8.745000000000001 8.745000000000001 0 0 1 0.09-1.0499999999999998 3.7199999999999998 3.7199999999999998 0 0 1 0.195-0.78 2.0100000000000002 2.0100000000000002 0 0 1 0.36-0.585A2.31 2.31 0 0 1 24 1.62a2.205 2.205 0 0 1 1.0499999999999998-0.22499999999999998 2.4899999999999998 2.4899999999999998 0 0 1 0.8999999999999999 0.15000000000000002 2.0250000000000004 2.0250000000000004 0 0 1 0.675 0.43499999999999994 1.995 1.995 0 0 1 0.51 0.795 3.63 3.63 0 0 1 0.195 1.095h-1.41a3.3449999999999998 3.3449999999999998 0 0 0 0-0.48 1.02 1.02 0 0 0-0.15000000000000002-0.39A0.75 0.75 0 0 0 25.5 2.7600000000000002a0.8400000000000001 0.8400000000000001 0 0 0-0.405-0.09 0.78 0.78 0 0 0-0.405 0.09 0.795 0.795 0 0 0-0.255 0.24 2.235 2.235 0 0 0-0.27 1.035Q24 4.755 24 6t0 1.935a2.235 2.235 0 0 0 0.27 1.035 0.795 0.795 0 0 0 0.255 0.24 0.78 0.78 0 0 0 0.405 0.09A0.8400000000000001 0.8400000000000001 0 0 0 25.5 9.209999999999999 0.75 0.75 0 0 0 25.695 9a1.155 1.155 0 0 0 0.15000000000000002-0.405 3.3600000000000003 3.3600000000000003 0 0 0 0-0.48Z"></path><path fill="#222" d="M32.055 10.5l-1.5-3.69-0.675 1.3800000000000001V10.5H28.5V1.5h1.41V5.715L31.875 1.5h1.4249999999999998L31.5 5.22 33.57 10.5Z"></path></g></svg>