<svg xmlns="http://www.w3.org/2000/svg" viewBox="0 0 57 33" height="33" width="57"><title>us-interstate-duplex-5.svg</title><path fill="#ffffff" d="M52.5 1.5a7.7250000000000005 7.7250000000000005 0 0 1 3 6s0 2.25 0 3c0 13.89-27 18-27 18S1.5 24.48 1.5 10.5V7.5A8.084999999999999 8.084999999999999 0 0 1 4.5 1.5s3.75 3 12 3c9.75 0 12-3 12-3s2.25 3 12 3c8.295 0 12-3 12-3M28.5 0A1.5 1.5 0 0 0 27.299999999999997 0.6000000000000001h0S25.065 3 16.5 3C9 3 5.46 0.34500000000000003 5.43 0.315A1.5 1.5 0 0 0 4.5 0a1.5 1.5 0 0 0-0.8699999999999999 0.27A9.555 9.555 0 0 0 0 7.5V10.5C0 25.589999999999996 27.119999999999997 29.759999999999998 28.275000000000002 30h0.43499999999999994C29.880000000000003 29.759999999999998 57 25.5 57 10.5c0-1.71 0-2.55 0-3h0A9.24 9.24 0 0 0 53.37 0.28500000000000003a1.5 1.5 0 0 0-1.7999999999999998 0S48 3 40.5 3C31.905 3 29.685 0.585 29.67 0.5549999999999999A1.5 1.5 0 0 0 28.5 0Z"></path><path fill="#3b4ba6" d="M1.5 10.5c0 13.98 27 18 27 18S55.5 24.375 55.5 10.5V9H1.5Z"></path><path fill="#cc2929" d="M1.5 7.5A8.084999999999999 8.084999999999999 0 0 1 4.5 1.5s3.75 3 12 3c9.75 0 12-3 12-3s2.25 3 12 3c8.295 0 12-3 12-3a8.145 8.145 0 0 1 3 6Z"></path><path fill="#ffffff" d="M1.5 7.5L55.5 7.5 55.5 9 1.5 9z"></path><path fill="none" d="M0 0L57 0 57 33 0 33z"></path></svg>