<svg xmlns="http://www.w3.org/2000/svg" viewBox="0 0 30 60" height="60" width="30"><title>us-interstate-truck-2.svg</title><path fill="#ffffff" d="M1.3800000000000001 0H28.619999999999997A1.32 1.32 0 0 1 30 1.29V10.709999999999999a1.32 1.32 0 0 1-1.3800000000000001 1.29H1.3800000000000001A1.32 1.32 0 0 1 0 10.709999999999999V1.29A1.32 1.32 0 0 1 1.3800000000000001 0Z"></path><path fill="#ffffff" d="M25.5 15a11.61 11.61 0 0 1 3 6v3c0 13.919999999999998-13.5 18-13.5 18S1.5 38.055 1.5 24V21a11.115 11.115 0 0 1 3-6 6.105 6.105 0 0 0 5.34 3A6 6 0 0 0 15 15a6 6 0 0 0 5.1899999999999995 3A6.12 6.12 0 0 0 25.5 15m0-1.5h-0.22499999999999998a1.5 1.5 0 0 0-1.1099999999999999 0.78A4.6049999999999995 4.6049999999999995 0 0 1 20.19 16.5a4.41 4.41 0 0 1-3.8549999999999995-2.19A1.5 1.5 0 0 0 15 13.5h0a1.5 1.5 0 0 0-1.335 0.8250000000000001A4.5 4.5 0 0 1 9.795 16.5 4.6049999999999995 4.6049999999999995 0 0 1 5.775 14.294999999999998 1.5 1.5 0 0 0 4.68 13.5H4.5a1.5 1.5 0 0 0-1.0499999999999998 0.42000000000000004A12.450000000000001 12.450000000000001 0 0 0 0 21v3C0 39 14.43 43.394999999999996 14.580000000000002 43.5a1.5 1.5 0 0 0 0.855 0c0.15000000000000002 0 14.565000000000001-4.5 14.565000000000001-19.395V21a12.84 12.84 0 0 0-3.435-7.050000000000001A1.5 1.5 0 0 0 25.5 13.5Z"></path><path fill="#3b4ba6" d="M1.5 24c0 14.01 13.5 18 13.5 18s13.5-4.035 13.5-18V22.5H1.5Z"></path><path fill="#cc2929" d="M1.5 21a11.115 11.115 0 0 1 3-6 6.105 6.105 0 0 0 5.34 3A6 6 0 0 0 15 15a6 6 0 0 0 5.1899999999999995 3A6.12 6.12 0 0 0 25.5 15a11.61 11.61 0 0 1 3 6Z"></path><path fill="#ffffff" d="M1.5 21L28.5 21 28.5 22.5 1.5 22.5z"></path><path fill="none" d="M0 0L30 0 30 60 0 60z"></path><g><path fill="#222" d="M4.0200000000000005 2.7750000000000004V10.5H2.5949999999999998V2.7750000000000004h-1.5V1.5H5.5200000000000005v1.275Z"></path><path fill="#222" d="M9.93 10.5L8.745000000000001 6.795H7.949999999999999V10.5H6.540000000000001V1.5H8.82a2.205 2.205 0 0 1 1.77 0.63A3.1049999999999995 3.1049999999999995 0 0 1 11.100000000000001 4.14a4.1850000000000005 4.1850000000000005 0 0 1-0.21000000000000002 1.4249999999999998 1.665 1.665 0 0 1-0.8250000000000001 0.915L11.399999999999999 10.5ZM9.69 4.14a4.365 4.365 0 0 0 0-0.5249999999999999 1.5 1.5 0 0 0-0.12-0.43499999999999994 0.675 0.675 0 0 0-0.27-0.30000000000000004 0.855 0.855 0 0 0-0.44999999999999996-0.10500000000000001H7.949999999999999V5.5200000000000005h0.8699999999999999a0.8699999999999999 0.8699999999999999 0 0 0 0.44999999999999996-0.10500000000000001 0.675 0.675 0 0 0 0.27-0.30000000000000004 1.5 1.5 0 0 0 0.12-0.43499999999999994A4.3950000000000005 4.3950000000000005 0 0 0 9.69 4.14Z"></path><path fill="#222" d="M16.935 8.265a2.52 2.52 0 0 1-0.165 0.9299999999999999 2.19 2.19 0 0 1-0.44999999999999996 0.72A2.235 2.235 0 0 1 14.655 10.5a2.25 2.25 0 0 1-1.6800000000000002-0.66 2.175 2.175 0 0 1-0.44999999999999996-0.72 2.505 2.505 0 0 1-0.165-0.9299999999999999V1.5h1.41V8.34A0.9299999999999999 0.9299999999999999 0 0 0 14.04 9a0.885 0.885 0 0 0 0.63 0.24A0.8699999999999999 0.8699999999999999 0 0 0 15.285 9a0.9450000000000001 0.9450000000000001 0 0 0 0.255-0.72V1.5h1.41Z"></path><path fill="#222" d="M22.830000000000002 8.084999999999999a3.495 3.495 0 0 1-0.21000000000000002 1.095 2.085 2.085 0 0 1-0.5249999999999999 0.81 1.965 1.965 0 0 1-0.675 0.43499999999999994 2.4899999999999998 2.4899999999999998 0 0 1-0.885 0.135A2.2199999999999998 2.2199999999999998 0 0 1 19.5 10.350000000000001a2.31 2.31 0 0 1-0.6900000000000001-0.5549999999999999 2.0100000000000002 2.0100000000000002 0 0 1-0.36-0.585 3.7199999999999998 3.7199999999999998 0 0 1-0.195-0.78 8.745000000000001 8.745000000000001 0 0 1-0.09-1.0499999999999998q0-0.6000000000000001 0-1.395t0-1.395a8.745000000000001 8.745000000000001 0 0 1 0.09-1.0499999999999998 3.7199999999999998 3.7199999999999998 0 0 1 0.195-0.78 2.0100000000000002 2.0100000000000002 0 0 1 0.36-0.585A2.31 2.31 0 0 1 19.5 1.62a2.205 2.205 0 0 1 1.0499999999999998-0.22499999999999998 2.4899999999999998 2.4899999999999998 0 0 1 0.8999999999999999 0.15000000000000002 2.0250000000000004 2.0250000000000004 0 0 1 0.675 0.43499999999999994 1.995 1.995 0 0 1 0.51 0.795 3.63 3.63 0 0 1 0.195 1.095h-1.41a3.3449999999999998 3.3449999999999998 0 0 0 0-0.48 1.02 1.02 0 0 0-0.15000000000000002-0.39A0.75 0.75 0 0 0 21 2.7600000000000002a0.8400000000000001 0.8400000000000001 0 0 0-0.405-0.09 0.78 0.78 0 0 0-0.405 0.09 0.795 0.795 0 0 0-0.255 0.24 2.235 2.235 0 0 0-0.27 1.035Q19.5 4.755 19.5 6t0 1.935a2.235 2.235 0 0 0 0.27 1.035 0.795 0.795 0 0 0 0.255 0.24 0.78 0.78 0 0 0 0.405 0.09A0.8400000000000001 0.8400000000000001 0 0 0 21 9.209999999999999 0.75 0.75 0 0 0 21.195 9a1.155 1.155 0 0 0 0.15000000000000002-0.405 3.3600000000000003 3.3600000000000003 0 0 0 0-0.48Z"></path><path fill="#222" d="M27.555 10.5l-1.5-3.69-0.675 1.3800000000000001V10.5H24V1.5h1.41V5.715L27.375 1.5h1.4249999999999998L27 5.22 29.07 10.5Z"></path></g></svg>