<svg xmlns="http://www.w3.org/2000/svg" viewBox="0 0 39 30" height="30" width="39"><title>us-interstate-business-3.svg</title><path fill="#ffffff" d="M34.5 1.5a8.16 8.16 0 0 1 3 6V10.5c0 13.905-18 18-18 18S1.5 24.509999999999998 1.5 10.5V7.5A8.100000000000001 8.100000000000001 0 0 1 4.5 1.5 10.2 10.2 0 0 0 12 4.5a10.5 10.5 0 0 0 7.5-3 10.59 10.59 0 0 0 7.5 3 10.365 10.365 0 0 0 7.5-3M4.5 0a1.5 1.5 0 0 0-0.8699999999999999 0.28500000000000003A9.57 9.57 0 0 0 0 7.5V10.5c0 6.27 3.3600000000000003 11.64 9.72 15.524999999999999A34.410000000000004 34.410000000000004 0 0 0 19.169999999999998 30L19.5 30l0.33 0a34.755 34.755 0 0 0 9.45-3.96C35.64 22.11 39 16.755 39 10.5V7.5A9.629999999999999 9.629999999999999 0 0 0 35.37 0.28500000000000003a1.5 1.5 0 0 0-1.995 0.22499999999999998A8.850000000000001 8.850000000000001 0 0 1 27 3 9 9 0 0 1 20.61 0.495 1.5 1.5 0 0 0 19.5 0h0a1.5 1.5 0 0 0-1.1099999999999999 0.495A9 9 0 0 1 12 3 8.850000000000001 8.850000000000001 0 0 1 5.64 0.5249999999999999 1.5 1.5 0 0 0 4.5 0Z"></path><path fill="#0e8c38" d="M1.5 10.5c0 13.98 18 18 18 18S37.5 24.375 37.5 10.5V9H1.5Z"></path><path fill="#0e8c38" d="M1.5 7.5A8.084999999999999 8.084999999999999 0 0 1 4.5 1.5 10.2 10.2 0 0 0 12 4.5a10.5 10.5 0 0 0 7.5-3 10.59 10.59 0 0 0 7.5 3 10.365 10.365 0 0 0 7.5-3 8.145 8.145 0 0 1 3 6Z"></path><path fill="#ffffff" d="M1.5 7.5L37.5 7.5 37.5 9 1.5 9z"></path><path fill="none" d="M0 0L39 0 39 33 0 33z"></path></svg>