<svg xmlns="http://www.w3.org/2000/svg" viewBox="0 0 48 33" height="33" width="48"><title>us-interstate-duplex-4.svg</title><path fill="#3b4ba6" d="M1.5 10.5c0 13.98 22.5 18 22.5 18S46.5 24.375 46.5 10.5V9H1.5Z"></path><path fill="#cc2929" d="M1.5 7.5A8.084999999999999 8.084999999999999 0 0 1 4.5 1.5 12.149999999999999 12.149999999999999 0 0 0 12.75 4.5 21.855 21.855 0 0 0 24 1.5a21.855 21.855 0 0 0 11.25 3A12.254999999999999 12.254999999999999 0 0 0 43.5 1.5a8.145 8.145 0 0 1 3 6Z"></path><path fill="#ffffff" d="M1.5 7.5L46.5 7.5 46.5 9 1.5 9z"></path><path fill="#ffffff" d="M43.5 1.5a8.16 8.16 0 0 1 3 6c0 0.75 0 2.31 0 3-0.255 13.875-22.875 18-22.875 18S1.5 24.48 1.5 10.5V7.5A8.084999999999999 8.084999999999999 0 0 1 4.5 1.5 12.149999999999999 12.149999999999999 0 0 0 12.75 4.5 21.855 21.855 0 0 0 24 1.5a21.855 21.855 0 0 0 11.25 3A12.254999999999999 12.254999999999999 0 0 0 43.5 1.5m0-1.5a1.5 1.5 0 0 0-1.0499999999999998 0.43499999999999994A10.725000000000001 10.725000000000001 0 0 1 35.25 3 20.625 20.625 0 0 1 24.825000000000003 0.255a1.5 1.5 0 0 0-1.665 0A20.625 20.625 0 0 1 12.75 3 10.620000000000001 10.620000000000001 0 0 1 5.5649999999999995 0.44999999999999996 1.5 1.5 0 0 0 3.63 0.28500000000000003 9.555 9.555 0 0 0 0 7.5V10.5c0 6.33 4.11 11.7 11.895 15.57A47.79 47.79 0 0 0 23.355 30l0.27 0 0.27 0a50.519999999999996 50.519999999999996 0 0 0 11.73-3.9000000000000004C43.605000000000004 22.169999999999998 47.88 16.799999999999997 48 10.5c0-0.42000000000000004 0-1.185 0-1.875 0-0.43499999999999994 0-0.855 0-1.1400000000000001A9.66 9.66 0 0 0 44.37 0.28500000000000003 1.5 1.5 0 0 0 43.5 0Z"></path><path fill="none" d="M0 0L48 0 48 33 0 33z"></path></svg>