<svg xmlns="http://www.w3.org/2000/svg" viewBox="0 0 30 33" height="33" width="30"><title>us-interstate-2.svg</title><path fill="#ffffff" d="M25.5 1.5a11.61 11.61 0 0 1 3 6V10.5c0 13.919999999999998-13.5 18-13.5 18S1.5 24.555 1.5 10.5V7.5A11.115 11.115 0 0 1 4.5 1.5 6.105 6.105 0 0 0 9.795 4.5 6 6 0 0 0 15 1.5a6 6 0 0 0 5.1899999999999995 3A6.12 6.12 0 0 0 25.5 1.5m0-1.5h-0.22499999999999998a1.5 1.5 0 0 0-1.1099999999999999 0.78A4.6049999999999995 4.6049999999999995 0 0 1 20.19 3 4.41 4.41 0 0 1 16.335 0.81 1.5 1.5 0 0 0 15 0h0a1.5 1.5 0 0 0-1.335 0.8250000000000001A4.5 4.5 0 0 1 9.795 3 4.6049999999999995 4.6049999999999995 0 0 1 5.775 0.795 1.5 1.5 0 0 0 4.68 0H4.5a1.5 1.5 0 0 0-1.0499999999999998 0.42000000000000004A12.450000000000001 12.450000000000001 0 0 0 0 7.5V10.5C0 25.5 14.43 29.895 14.580000000000002 30a1.5 1.5 0 0 0 0.855 0c0.15000000000000002 0 14.565000000000001-4.5 14.565000000000001-19.395V7.5A12.84 12.84 0 0 0 26.565 0.44999999999999996 1.5 1.5 0 0 0 25.5 0Z"></path><path fill="#3b4ba6" d="M1.5 10.5c0 14.01 13.5 18 13.5 18s13.5-4.035 13.5-18V9H1.5Z"></path><path fill="#cc2929" d="M1.5 7.5A11.115 11.115 0 0 1 4.5 1.5 6.105 6.105 0 0 0 9.795 4.5 6 6 0 0 0 15 1.5a6 6 0 0 0 5.1899999999999995 3A6.12 6.12 0 0 0 25.5 1.5a11.61 11.61 0 0 1 3 6Z"></path><path fill="#ffffff" d="M1.5 7.5L28.5 7.5 28.5 9 1.5 9z"></path><path fill="none" d="M0 0L30 0 30 33 0 33z"></path></svg>