<svg xmlns="http://www.w3.org/2000/svg" viewBox="0 0 30 30" height="30" width="30"><title>za-national-2.svg</title><g><path fill="#3b4ba6" d="M7.5 26.25a0.75 0.75 0 0 1-0.6900000000000001-0.46499999999999997l-6-15a0.75 0.75 0 0 1 0.28500000000000003-0.8999999999999999l13.5-9a0.75 0.75 0 0 1 0.8250000000000001 0l13.5 9a0.75 0.75 0 0 1 0.28500000000000003 0.8999999999999999l-6 15a0.75 0.75 0 0 1-0.6900000000000001 0.46499999999999997Z"></path><path fill="#ffffff" d="M15 1.5l13.5 9L22.5 25.5H7.5L1.5 10.5l13.5-9m0-1.5a1.5 1.5 0 0 0-0.8250000000000001 0.255l-13.5 9a1.5 1.5 0 0 0-0.5549999999999999 1.7999999999999998l6 15A1.5 1.5 0 0 0 7.5 27H22.5a1.5 1.5 0 0 0 1.395-0.9450000000000001l6-15a1.5 1.5 0 0 0-0.5549999999999999-1.7999999999999998l-13.5-9A1.5 1.5 0 0 0 15 0Z"></path></g><path fill="none" d="M0 0L30 0 30 30 0 30z"></path></svg>