<svg xmlns="http://www.w3.org/2000/svg" viewBox="0 0 36 30" height="30" width="36"><title>za-national-3.svg</title><g><path fill="#3b4ba6" d="M7.5 26.25a0.75 0.75 0 0 1-0.6900000000000001-0.46499999999999997l-6-15a0.75 0.75 0 0 1 0.34500000000000003-0.9299999999999999l16.5-9a0.75 0.75 0 0 1 0.72 0l16.5 9a0.75 0.75 0 0 1 0.34500000000000003 0.9299999999999999l-6 15a0.75 0.75 0 0 1-0.6900000000000001 0.46499999999999997Z"></path><path fill="#ffffff" d="M18 1.5L34.5 10.5 28.5 25.5H7.5L1.5 10.5 18 1.5m0-1.5a1.5 1.5 0 0 0-0.72 0.18l-16.5 9A1.5 1.5 0 0 0 0.10500000000000001 11.055l6 15A1.5 1.5 0 0 0 7.5 27H28.5a1.5 1.5 0 0 0 1.395-0.9450000000000001l6-15a1.5 1.5 0 0 0-0.675-1.875l-16.5-9A1.5 1.5 0 0 0 18 0Z"></path></g><path fill="none" d="M0 0L36 0 36 30 0 30z"></path></svg>