<svg xmlns="http://www.w3.org/2000/svg" viewBox="0 0 36 36" height="36" width="36"><title>za-provincial-3.svg</title><g><path fill="#0e8c38" d="M18 35.25a0.75 0.75 0 0 1-0.5249999999999999-0.22499999999999998l-16.5-16.5a0.75 0.75 0 0 1 0-1.065l16.5-16.5a0.75 0.75 0 0 1 1.065 0l16.5 16.5a0.75 0.75 0 0 1 0 1.065l-16.5 16.5A0.75 0.75 0 0 1 18 35.25Z"></path><path fill="#ffffff" d="M18 1.5L34.5 18 18 34.5 1.5 18 18 1.5m0-1.5a1.5 1.5 0 0 0-1.065 0.43499999999999994l-16.5 16.5a1.5 1.5 0 0 0 0 2.1149999999999998l16.5 16.5a1.5 1.5 0 0 0 2.1149999999999998 0l16.5-16.5a1.5 1.5 0 0 0 0-2.1149999999999998l-16.5-16.5A1.5 1.5 0 0 0 18 0Z"></path></g></svg>