<svg xmlns="http://www.w3.org/2000/svg" width="36" height="36" viewBox="0 0 36 36"><title>hatch</title><g id="background_colors" data-name="background colors"><rect width="36" height="36" fill="#f2ede9"/></g><g id="fills"><path d="M36,2.25A2.2531,2.2531,0,0,1,33.75,0a2.25,2.25,0,1,1,4.5,0A2.2531,2.2531,0,0,1,36,2.25Zm0-4A1.7521,1.7521,0,0,0,34.25,0,1.7521,1.7521,0,0,0,36,1.75,1.7521,1.7521,0,0,0,37.75,0,1.7521,1.7521,0,0,0,36-1.75Z" fill="#7f7f7f"/><path d="M36,11.25A2.25,2.25,0,1,1,38.25,9,2.2531,2.2531,0,0,1,36,11.25Zm0-4A1.75,1.75,0,1,0,37.75,9,1.7521,1.7521,0,0,0,36,7.25Z" fill="#7f7f7f"/><path d="M36,20.25A2.25,2.25,0,1,1,38.25,18,2.2531,2.2531,0,0,1,36,20.25Zm0-4A1.75,1.75,0,1,0,37.75,18,1.7521,1.7521,0,0,0,36,16.25Z" fill="#7f7f7f"/><path d="M36,29.25A2.25,2.25,0,1,1,38.25,27,2.2531,2.2531,0,0,1,36,29.25Zm0-4A1.75,1.75,0,1,0,37.75,27,1.7521,1.7521,0,0,0,36,25.25Z" fill="#7f7f7f"/><path d="M36,38.25A2.25,2.25,0,1,1,38.25,36,2.2531,2.2531,0,0,1,36,38.25Zm0-4A1.75,1.75,0,1,0,37.75,36,1.7521,1.7521,0,0,0,36,34.25Z" fill="#7f7f7f"/><path d="M18,2.25A2.2531,2.2531,0,0,1,15.75,0a2.25,2.25,0,1,1,4.5,0A2.2531,2.2531,0,0,1,18,2.25Zm0-4A1.7521,1.7521,0,0,0,16.25,0,1.7521,1.7521,0,0,0,18,1.75,1.7521,1.7521,0,0,0,19.75,0,1.7521,1.7521,0,0,0,18-1.75Z" fill="#7f7f7f"/><path d="M18,11.25A2.25,2.25,0,1,1,20.25,9,2.2531,2.2531,0,0,1,18,11.25Zm0-4A1.75,1.75,0,1,0,19.75,9,1.7521,1.7521,0,0,0,18,7.25Z" fill="#7f7f7f"/><path d="M18,20.25A2.25,2.25,0,1,1,20.25,18,2.2531,2.2531,0,0,1,18,20.25Zm0-4A1.75,1.75,0,1,0,19.75,18,1.7521,1.7521,0,0,0,18,16.25Z" fill="#7f7f7f"/><path d="M18,29.25A2.25,2.25,0,1,1,20.25,27,2.2531,2.2531,0,0,1,18,29.25Zm0-4A1.75,1.75,0,1,0,19.75,27,1.7521,1.7521,0,0,0,18,25.25Z" fill="#7f7f7f"/><path d="M18,38.25A2.25,2.25,0,1,1,20.25,36,2.2531,2.2531,0,0,1,18,38.25Zm0-4A1.75,1.75,0,1,0,19.75,36,1.7521,1.7521,0,0,0,18,34.25Z" fill="#7f7f7f"/><path d="M0,2.25A2.2531,2.2531,0,0,1-2.25,0,2.2531,2.2531,0,0,1,0-2.25,2.2531,2.2531,0,0,1,2.25,0,2.2531,2.2531,0,0,1,0,2.25Zm0-4A1.7521,1.7521,0,0,0-1.75,0,1.7521,1.7521,0,0,0,0,1.75,1.7521,1.7521,0,0,0,1.75,0,1.7521,1.7521,0,0,0,0-1.75Z" fill="#7f7f7f"/><path d="M0,11.25a2.25,2.25,0,1,1,0-4.5A2.2531,2.2531,0,0,1,2.25,9,2.2531,2.2531,0,0,1,0,11.25Zm0-4a1.75,1.75,0,1,0,0,3.5A1.7521,1.7521,0,0,0,1.75,9,1.7521,1.7521,0,0,0,0,7.25Z" fill="#7f7f7f"/><path d="M0,20.25a2.25,2.25,0,0,1,0-4.5A2.2531,2.2531,0,0,1,2.25,18,2.2531,2.2531,0,0,1,0,20.25Zm0-4a1.75,1.75,0,0,0,0,3.5A1.7521,1.7521,0,0,0,1.75,18,1.7521,1.7521,0,0,0,0,16.25Z" fill="#7f7f7f"/><path d="M0,29.25a2.25,2.25,0,0,1,0-4.5A2.2531,2.2531,0,0,1,2.25,27,2.2531,2.2531,0,0,1,0,29.25Zm0-4a1.75,1.75,0,0,0,0,3.5A1.7521,1.7521,0,0,0,1.75,27,1.7521,1.7521,0,0,0,0,25.25Z" fill="#7f7f7f"/><path d="M0,38.25a2.25,2.25,0,0,1,0-4.5A2.2531,2.2531,0,0,1,2.25,36,2.2531,2.2531,0,0,1,0,38.25Zm0-4a1.75,1.75,0,0,0,0,3.5A1.7521,1.7521,0,0,0,1.75,36,1.7521,1.7521,0,0,0,0,34.25Z" fill="#7f7f7f"/><path d="M27,6.25A2.25,2.25,0,1,1,29.25,4,2.2531,2.2531,0,0,1,27,6.25Zm0-4A1.75,1.75,0,1,0,28.75,4,1.7521,1.7521,0,0,0,27,2.25Z" fill="#7f7f7f"/><path d="M27,15.25A2.25,2.25,0,1,1,29.25,13,2.2531,2.2531,0,0,1,27,15.25Zm0-4A1.75,1.75,0,1,0,28.75,13,1.7521,1.7521,0,0,0,27,11.25Z" fill="#7f7f7f"/><path d="M27,24.25A2.25,2.25,0,1,1,29.25,22,2.2531,2.2531,0,0,1,27,24.25Zm0-4A1.75,1.75,0,1,0,28.75,22,1.7521,1.7521,0,0,0,27,20.25Z" fill="#7f7f7f"/><path d="M27,33.25A2.25,2.25,0,1,1,29.25,31,2.2531,2.2531,0,0,1,27,33.25Zm0-4A1.75,1.75,0,1,0,28.75,31,1.7521,1.7521,0,0,0,27,29.25Z" fill="#7f7f7f"/><path d="M9,6.25A2.25,2.25,0,1,1,11.25,4,2.2531,2.2531,0,0,1,9,6.25Zm0-4A1.75,1.75,0,1,0,10.75,4,1.7521,1.7521,0,0,0,9,2.25Z" fill="#7f7f7f"/><path d="M9,15.25A2.25,2.25,0,1,1,11.25,13,2.2531,2.2531,0,0,1,9,15.25Zm0-4A1.75,1.75,0,1,0,10.75,13,1.7521,1.7521,0,0,0,9,11.25Z" fill="#7f7f7f"/><path d="M9,24.25A2.25,2.25,0,1,1,11.25,22,2.2531,2.2531,0,0,1,9,24.25Zm0-4A1.75,1.75,0,1,0,10.75,22,1.7521,1.7521,0,0,0,9,20.25Z" fill="#7f7f7f"/><path d="M9,33.25A2.25,2.25,0,1,1,11.25,31,2.2531,2.2531,0,0,1,9,33.25Zm0-4A1.75,1.75,0,1,0,10.75,31,1.7521,1.7521,0,0,0,9,29.25Z" fill="#7f7f7f"/></g></svg>