<?xml version="1.0" encoding="UTF-8"?>
<svg width="200px" height="57px" viewBox="0 0 200 57" version="1.1" xmlns="http://www.w3.org/2000/svg" xmlns:xlink="http://www.w3.org/1999/xlink">
    <!-- Generator: Sketch 42 (36781) - http://www.bohemiancoding.com/sketch -->
    <title>photostories_logo@1x</title>
    <desc>Created with Sketch.</desc>
    <defs></defs>
    <g id="Symbols" stroke="none" stroke-width="1" fill="none" fill-rule="evenodd">
        <g id="photostories_logo">
            <g id="logo">
                <path d="M76.5344371,1.90911782 L76.5344371,30.1474323 L71.1073586,30.1474323 L71.1073586,15.4569797 L65.0018953,30.1474323 L62.0489261,30.1474323 L55.9434627,15.4569797 L55.9434627,30.1474323 L50.5163842,30.1474323 L50.5163842,1.90911782 L56.1030827,1.90911782 L63.5254107,19.7008882 L70.9477386,1.90911782 L76.5344371,1.90911782 L76.5344371,1.90911782 Z M100.218669,8.07094657 L104.967362,8.07094657 L104.967362,9.90725315 C105.286604,9.25434088 105.925077,8.69665335 106.882802,8.23417382 C107.840526,7.7716943 108.891347,7.540458 110.035296,7.540458 C111.126038,7.540458 112.150256,7.7920975 113.10798,8.29538404 C114.065705,8.79867058 114.89705,9.53998694 115.602042,10.5193553 C116.307034,11.4987238 116.865698,12.7093138 117.278051,14.1511617 C117.690405,15.5930096 117.896579,17.238868 117.896579,19.0887861 C117.896579,20.9931135 117.697056,22.6661761 117.298004,24.108024 C116.898952,25.549872 116.353589,26.760462 115.661899,27.7398304 C114.970209,28.7191988 114.152165,29.4537141 113.207742,29.9433983 C112.26332,30.4330825 111.232451,30.6779209 110.115106,30.6779209 C108.91795,30.6779209 107.953589,30.487491 107.221994,30.1066255 C106.490399,29.72576 105.964989,29.2496853 105.645747,28.6783871 L105.645747,37.4789735 L100.218669,38.6692137 L100.218669,8.07094657 L100.218669,8.07094657 Z M108.758336,25.4138421 C111.392079,25.4138421 112.70893,23.3191133 112.70893,19.1295929 C112.70893,17.089242 112.383043,15.5385986 111.731258,14.4776162 C111.079473,13.4166338 110.141715,12.8861505 108.917956,12.8861505 C108.013439,12.8861505 107.261902,13.2058007 106.663324,13.8451106 C106.064746,14.4844205 105.605844,15.239339 105.286602,16.1098887 L105.286602,22.3941379 C105.659051,23.400711 106.157858,24.1556295 106.783039,24.658916 C107.408221,25.1622026 108.066646,25.4138421 108.758336,25.4138421 L108.758336,25.4138421 L108.758336,25.4138421 Z M125.717957,8.07094657 L125.717957,30.1474323 L120.250973,30.1474323 L120.250973,8.07094657 L125.717957,8.07094657 L125.717957,8.07094657 Z M120.250973,3.17412902 C120.250973,2.38519336 120.503702,1.70508661 121.009168,1.13378838 C121.514634,0.56249014 122.166409,0.276845307 122.964512,0.276845307 C123.709409,0.276845307 124.354533,0.56249014 124.899904,1.13378838 C125.445275,1.70508661 125.717957,2.38519336 125.717957,3.17412902 C125.717957,3.93586001 125.445275,4.58196141 124.899904,5.11245263 C124.354533,5.64294386 123.709409,5.90818549 122.964512,5.90818549 C122.166409,5.90818549 121.514634,5.64294386 121.009168,5.11245263 C120.503702,4.58196141 120.250973,3.93586001 120.250973,3.17412902 L120.250973,3.17412902 L120.250973,3.17412902 Z M128.551211,2.27637914 L133.978289,0.399265745 L133.978289,30.1474323 L128.551211,30.1474323 L128.551211,2.27637914 L128.551211,2.27637914 Z M136.811544,2.27637914 L142.238622,0.399265745 L142.238622,30.1474323 L136.811544,30.1474323 L136.811544,2.27637914 L136.811544,2.27637914 Z M171.687446,8.07094657 L171.687446,9.58079865 C172.059894,8.95509105 172.671765,8.45861313 173.523075,8.09134998 C174.374386,7.72408682 175.265589,7.540458 176.19671,7.540458 C176.808589,7.540458 177.400507,7.63567295 177.972482,7.82610569 C178.544456,8.01653844 178.990057,8.32938754 179.309299,8.76466239 L177.353954,13.7022867 C176.688868,13.1037838 175.957284,12.8045369 175.15918,12.8045369 C174.494093,12.8045369 173.888874,13.0561764 173.343503,13.5594629 C172.798132,14.0627494 172.352531,14.8448722 172.006686,15.9058546 L172.006686,30.1474323 L166.579607,30.1474323 L166.579607,8.07094657 L171.687446,8.07094657 L171.687446,8.07094657 Z M158.299128,28.5376093 C156.853034,29.8219002 155.16824,30.7131005 153.370072,30.7131005 C147.14226,30.7131005 144.531772,25.5432247 144.531772,19.1658598 C144.531772,12.7884948 147.14226,7.61861906 153.370072,7.61861906 C155.305792,7.61861906 156.950935,8.44941575 158.299128,9.69684537 L158.299128,7.91792175 L163.829599,7.91792175 L163.829599,30.4137978 L158.299128,30.4137978 L158.299128,28.5376093 L158.299128,28.5376093 Z M158.299128,22.9622656 C157.606639,24.495648 156.382405,25.453275 154.613015,25.4845709 C151.267043,25.5437524 149.983372,22.7275876 149.923067,19.2267318 C149.862761,15.725876 151.048658,12.8660317 154.39463,12.8068506 C156.119586,12.7763408 157.518179,13.8934 158.299128,15.6905039 L158.299128,22.9622656 L158.299128,22.9622656 Z M92.5471163,28.5376093 C91.1010223,29.8219002 89.4162284,30.7131005 87.6180603,30.7131005 C81.3902482,30.7131005 78.7797605,25.5432247 78.7797605,19.1658598 C78.7797605,12.7884948 81.3902482,7.61861906 87.6180603,7.61861906 C89.5537802,7.61861906 91.1989232,8.44941575 92.5471163,9.69684537 L92.5471163,7.91792175 L98.0775872,7.91792175 L98.0775872,30.4137978 L92.5471163,30.4137978 L92.5471163,28.5376093 L92.5471163,28.5376093 L92.5471163,28.5376093 Z M92.5471163,22.9622656 C91.8546271,24.495648 90.6303936,25.453275 88.8610032,25.4845709 C85.5150309,25.5437524 84.2313604,22.7275876 84.1710549,19.2267318 C84.1107495,15.725876 85.2966457,12.8660317 88.642618,12.8068506 C90.3675742,12.7763408 91.7661673,13.8934 92.5471163,15.6905039 L92.5471163,22.9622656 L92.5471163,22.9622656 L92.5471163,22.9622656 Z M189.324922,37.9823404 L183.658414,37.9823404 L187.050338,28.2295121 L179.94725,8.07094657 L185.932998,8.07094657 L189.963402,20.8842858 L193.993806,8.07094657 L199.859839,8.07094657 L189.324922,37.9823404 L189.324922,37.9823404 Z" id="Mapillary" fill="#474A4E"></path>
                <path d="M16.724829,32.0640558 C13.7062402,30.4939622 10.3465463,29.6865846 6.94119076,29.7129219 C5.0115101,29.7308772 3.09189826,29.9923898 1.22825966,30.4912061 C0.944582186,30.5824877 0.634162624,30.5328164 0.393471006,30.3576287 C0.152779388,30.182441 0.0109839633,29.902967 0.0121509296,29.6060597 L0.0121509296,2.65017067 C0.0119874483,2.26175474 0.254290746,1.91417344 0.619748889,1.77857835 C2.66838579,1.14862651 4.79730004,0.815209147 6.94119076,0.788553291 C10.7757899,0.742908145 14.5446649,1.78200071 17.8098254,3.78507543 C18.0981167,3.97651185 18.2704097,4.29951565 18.2683038,4.64460132 L18.2683038,31.1799012 C18.2656821,31.5448295 18.0688384,31.8809693 17.7512085,32.0629185 C17.4335785,32.2448677 17.0428647,32.2453007 16.724829,32.0640558 L16.724829,32.0640558 Z M38.1841069,2.65008802 L38.1841069,29.6060597 C38.1852739,29.902967 38.0434784,30.182441 37.8027868,30.3576287 C37.5620952,30.5328164 37.2516756,30.5824877 36.9679982,30.4912061 C35.1043596,29.9923898 33.1847477,29.7308772 31.2550671,29.7129219 C27.8497127,29.6865947 24.4900212,30.4939717 21.4714288,32.0640558 C21.1533675,32.2453147 20.7626189,32.2448658 20.4449783,32.0628765 C20.1273377,31.8808872 19.9305172,31.5446937 19.927954,31.1797359 L19.927954,4.64460132 C19.9258481,4.29951565 20.0981411,3.97651185 20.3864324,3.78507543 C23.6515929,1.78200071 27.4204679,0.742908145 31.2550671,0.788553291 C33.3990112,0.815219622 35.5279788,1.14863657 37.5766749,1.77857835 C37.9420522,1.91424766 38.1842721,2.26180427 38.1841069,2.65017067 L38.1841069,2.65008802 Z" id="Shape" fill="#36AF6D" fill-rule="nonzero"></path>
                <path d="M82.9271697,40.764495 C84.1955698,40.764495 85.21214,41.0940253 85.9769106,41.753096 C86.7416813,42.4121666 87.1240609,43.3821051 87.1240609,44.6629405 C87.1240609,45.9562113 86.7416813,46.9323673 85.9769106,47.591438 C85.21214,48.2505086 84.1955698,48.580039 82.9271697,48.580039 L79.8121438,48.580039 L79.8121438,53.672267 L77.9655117,53.672267 L77.9655117,40.764495 L82.9271697,40.764495 Z M79.8121438,46.8266711 L82.9644754,46.8266711 C83.6732872,46.8266711 84.248411,46.6556884 84.689864,46.3137178 C85.131317,45.9717471 85.3520402,45.4277111 85.3520402,44.6815934 C85.3520402,43.947911 85.1282082,43.4163101 84.6805376,43.0867747 C84.2328669,42.7572394 83.6608519,42.5924742 82.9644754,42.5924742 L79.8121438,42.5924742 L79.8121438,46.8266711 Z M94.8649935,47.6660494 C94.8649935,46.1613786 94.2991961,45.4090545 93.1675842,45.4090545 C92.6701724,45.4090545 92.2349436,45.5334056 91.8618847,45.7821115 C91.4888259,46.0308174 91.1717306,46.4598287 90.9105894,47.0691582 L90.9105894,53.672267 L89.0639573,53.672267 L89.0639573,40.7085364 L90.9105894,40.0743395 L90.9105894,44.7188991 C91.2339071,44.2960991 91.6162867,43.9883301 92.0577396,43.795583 C92.4991926,43.602836 92.9872706,43.5064639 93.5219883,43.5064639 C93.969659,43.5064639 94.3862351,43.5872921 94.7717293,43.7489509 C95.1572234,43.9106098 95.4960801,44.1499856 95.7883096,44.4670856 C96.080539,44.7841857 96.3074798,45.1790004 96.4691386,45.6515416 C96.6307974,46.1240828 96.7116256,46.6774451 96.7116256,47.3116452 L96.7116256,53.672267 L94.8649935,53.672267 L94.8649935,47.6660494 Z M103.333387,43.5064639 C103.942717,43.5064639 104.508514,43.6183798 105.030797,43.8422152 C105.553079,44.0660505 106.006961,44.3955809 106.392455,44.8308162 C106.777949,45.2660515 107.076391,45.8100875 107.287791,46.4629405 C107.499191,47.1157936 107.60489,47.8712264 107.60489,48.7292618 C107.60489,49.5872972 107.499191,50.3396213 107.287791,50.9862566 C107.076391,51.632892 106.777949,52.1738192 106.392455,52.6090545 C106.006961,53.0442899 105.553079,53.3738203 105.030797,53.5976556 C104.508514,53.8214909 103.942717,53.9334069 103.333387,53.9334069 C102.711623,53.9334069 102.142716,53.8214909 101.626652,53.5976556 C101.110587,53.3738203 100.659814,53.0442899 100.27432,52.6090545 C99.8888258,52.1738192 99.5903832,51.632892 99.3789832,50.9862566 C99.1675831,50.3396213 99.0618847,49.5872972 99.0618847,48.7292618 C99.0618847,47.8712264 99.1675831,47.1157936 99.3789832,46.4629405 C99.5903832,45.8100875 99.8888258,45.2660515 100.27432,44.8308162 C100.659814,44.3955809 101.110587,44.0660505 101.626652,43.8422152 C102.142716,43.6183798 102.711623,43.5064639 103.333387,43.5064639 Z M103.333387,45.3344431 C102.58727,45.3344431 101.993493,45.6173419 101.55204,46.1831478 C101.110587,46.7489537 100.889864,47.5976499 100.889864,48.7292618 C100.889864,49.8608737 101.110587,50.7095698 101.55204,51.2753758 C101.993493,51.8411817 102.58727,52.1240804 103.333387,52.1240804 C104.079505,52.1240804 104.67639,51.8411817 105.124061,51.2753758 C105.571732,50.7095698 105.795563,49.8608737 105.795563,48.7292618 C105.795563,47.5976499 105.571732,46.7489537 105.124061,46.1831478 C104.67639,45.6173419 104.079505,45.3344431 103.333387,45.3344431 Z M112.249449,53.7655312 C111.988308,53.7655312 111.727171,53.7157908 111.46603,53.6163084 C111.204889,53.5168261 110.97173,53.3707135 110.766548,53.1779665 C110.561366,52.9852194 110.3966,52.7458435 110.272247,52.4598317 C110.147894,52.1738199 110.085719,51.838072 110.085719,51.4525779 L110.085719,45.3344431 L108.873284,45.3344431 L108.873284,43.7676038 L110.085719,43.7676038 L110.085719,40.9883291 L111.951004,40.3541323 L111.951004,43.7676038 L113.946859,43.7676038 L113.946859,45.3344431 L111.951004,45.3344431 L111.951004,51.1354794 C111.951004,51.4214912 112.044267,51.6328881 112.230797,51.7696763 C112.417326,51.9064645 112.628723,51.9748576 112.864994,51.9748576 C113.126135,51.9748576 113.381054,51.9157909 113.62976,51.7976556 C113.878466,51.6795203 114.102298,51.5085375 114.301263,51.2847022 L113.909553,53.2805571 C113.772765,53.4173454 113.552042,53.5323701 113.247377,53.6256348 C112.942712,53.7188996 112.610073,53.7655312 112.249449,53.7655312 Z M120.120952,43.5064639 C120.730282,43.5064639 121.296079,43.6183798 121.818361,43.8422152 C122.340644,44.0660505 122.794525,44.3955809 123.180019,44.8308162 C123.565514,45.2660515 123.863956,45.8100875 124.075356,46.4629405 C124.286756,47.1157936 124.392455,47.8712264 124.392455,48.7292618 C124.392455,49.5872972 124.286756,50.3396213 124.075356,50.9862566 C123.863956,51.632892 123.565514,52.1738192 123.180019,52.6090545 C122.794525,53.0442899 122.340644,53.3738203 121.818361,53.5976556 C121.296079,53.8214909 120.730282,53.9334069 120.120952,53.9334069 C119.499187,53.9334069 118.930281,53.8214909 118.414216,53.5976556 C117.898152,53.3738203 117.447379,53.0442899 117.061885,52.6090545 C116.676391,52.1738192 116.377948,51.632892 116.166548,50.9862566 C115.955148,50.3396213 115.849449,49.5872972 115.849449,48.7292618 C115.849449,47.8712264 115.955148,47.1157936 116.166548,46.4629405 C116.377948,45.8100875 116.676391,45.2660515 117.061885,44.8308162 C117.447379,44.3955809 117.898152,44.0660505 118.414216,43.8422152 C118.930281,43.6183798 119.499187,43.5064639 120.120952,43.5064639 Z M120.120952,45.3344431 C119.374834,45.3344431 118.781058,45.6173419 118.339605,46.1831478 C117.898152,46.7489537 117.677429,47.5976499 117.677429,48.7292618 C117.677429,49.8608737 117.898152,50.7095698 118.339605,51.2753758 C118.781058,51.8411817 119.374834,52.1240804 120.120952,52.1240804 C120.86707,52.1240804 121.463955,51.8411817 121.911626,51.2753758 C122.359296,50.7095698 122.583128,49.8608737 122.583128,48.7292618 C122.583128,47.5976499 122.359296,46.7489537 121.911626,46.1831478 C121.463955,45.6173419 120.86707,45.3344431 120.120952,45.3344431 Z M129.764475,43.4505053 C130.473287,43.4505053 131.095043,43.5375511 131.62976,43.7116452 C132.164478,43.8857393 132.637012,44.1655293 133.047377,44.5510235 L132.245304,46.0432514 C132.108516,45.8815926 131.931316,45.7448064 131.713698,45.6328887 C131.496081,45.5209711 131.266031,45.4277078 131.023543,45.353096 C130.781054,45.2784842 130.541679,45.225635 130.305408,45.1945468 C130.069137,45.1634585 129.863958,45.1479146 129.689864,45.1479146 C129.229758,45.1479146 128.853596,45.2318516 128.561367,45.3997281 C128.269137,45.5676046 128.123025,45.813198 128.123025,46.1365157 C128.123025,46.3479157 128.172765,46.5188984 128.272247,46.649469 C128.37173,46.7800396 128.614214,46.9385873 128.999709,47.1251167 C129.235979,47.2370344 129.490899,47.3427328 129.764475,47.4422152 C130.038052,47.5416975 130.314733,47.6442872 130.594527,47.7499872 C130.874321,47.8556872 131.154111,47.9644944 131.433905,48.0764121 C131.7137,48.1883297 131.977946,48.3188984 132.226652,48.4681219 C132.624581,48.7168278 132.95722,49.0245967 133.224579,49.391438 C133.491938,49.7582792 133.625615,50.2277045 133.625615,50.7997281 C133.625615,51.4214929 133.510591,51.9313323 133.280538,52.3292618 C133.050485,52.7271912 132.755151,53.0411777 132.394527,53.2712307 C132.033904,53.5012837 131.626654,53.6629401 131.172766,53.7562048 C130.718877,53.8494695 130.261887,53.8961012 129.801781,53.8961012 C128.943746,53.8961012 128.19453,53.7904027 127.554113,53.5790027 C126.913695,53.3676027 126.332354,53.0691601 125.810071,52.6836659 L126.574838,51.1727851 C126.947897,51.4836675 127.420431,51.7292609 127.992455,51.9095727 C128.564478,52.0898845 129.148928,52.180039 129.745823,52.180039 C130.46707,52.180039 130.992453,52.0743406 131.321988,51.8629405 C131.651524,51.6515405 131.816289,51.365533 131.816289,51.0049095 C131.816289,50.7188977 131.744787,50.4888482 131.601781,50.314754 C131.458775,50.1406599 131.169659,49.9354806 130.734424,49.69921 C130.510588,49.574857 130.255669,49.4598323 129.969657,49.3541323 C129.683645,49.2484322 129.39142,49.1365163 129.092973,49.018381 C128.794526,48.9002457 128.496083,48.7727858 128.197636,48.6359975 C127.899189,48.4992093 127.613181,48.3375529 127.339605,48.1510235 C127.016287,47.9396234 126.758259,47.6784861 126.565512,47.3676038 C126.372765,47.0567214 126.276392,46.6650155 126.276392,46.1924742 C126.276392,45.6577565 126.3852,45.2163102 126.602817,44.8681219 C126.820435,44.5199336 127.100225,44.2401437 127.442196,44.0287437 C127.784166,43.8173436 128.160328,43.6681223 128.570693,43.5810753 C128.981058,43.4940282 129.378981,43.4505053 129.764475,43.4505053 Z M138.046341,53.7655312 C137.785199,53.7655312 137.524062,53.7157908 137.262921,53.6163084 C137.00178,53.5168261 136.768621,53.3707135 136.563439,53.1779665 C136.358257,52.9852194 136.193492,52.7458435 136.069139,52.4598317 C135.944786,52.1738199 135.88261,51.838072 135.88261,51.4525779 L135.88261,45.3344431 L134.670175,45.3344431 L134.670175,43.7676038 L135.88261,43.7676038 L135.88261,40.9883291 L137.747895,40.3541323 L137.747895,43.7676038 L139.74375,43.7676038 L139.74375,45.3344431 L137.747895,45.3344431 L137.747895,51.1354794 C137.747895,51.4214912 137.841158,51.6328881 138.027688,51.7696763 C138.214217,51.9064645 138.425614,51.9748576 138.661885,51.9748576 C138.923026,51.9748576 139.177946,51.9157909 139.426652,51.7976556 C139.675357,51.6795203 139.899189,51.5085375 140.098154,51.2847022 L139.706444,53.2805571 C139.569656,53.4173454 139.348933,53.5323701 139.044268,53.6256348 C138.739603,53.7188996 138.406964,53.7655312 138.046341,53.7655312 Z M145.917843,43.5064639 C146.527173,43.5064639 147.09297,43.6183798 147.615253,43.8422152 C148.137535,44.0660505 148.591416,44.3955809 148.976911,44.8308162 C149.362405,45.2660515 149.660847,45.8100875 149.872247,46.4629405 C150.083647,47.1157936 150.189346,47.8712264 150.189346,48.7292618 C150.189346,49.5872972 150.083647,50.3396213 149.872247,50.9862566 C149.660847,51.632892 149.362405,52.1738192 148.976911,52.6090545 C148.591416,53.0442899 148.137535,53.3738203 147.615253,53.5976556 C147.09297,53.8214909 146.527173,53.9334069 145.917843,53.9334069 C145.296078,53.9334069 144.727172,53.8214909 144.211108,53.5976556 C143.695043,53.3738203 143.24427,53.0442899 142.858776,52.6090545 C142.473282,52.1738192 142.174839,51.632892 141.963439,50.9862566 C141.752039,50.3396213 141.646341,49.5872972 141.646341,48.7292618 C141.646341,47.8712264 141.752039,47.1157936 141.963439,46.4629405 C142.174839,45.8100875 142.473282,45.2660515 142.858776,44.8308162 C143.24427,44.3955809 143.695043,44.0660505 144.211108,43.8422152 C144.727172,43.6183798 145.296078,43.5064639 145.917843,43.5064639 Z M145.917843,45.3344431 C145.171726,45.3344431 144.577949,45.6173419 144.136496,46.1831478 C143.695043,46.7489537 143.47432,47.5976499 143.47432,48.7292618 C143.47432,49.8608737 143.695043,50.7095698 144.136496,51.2753758 C144.577949,51.8411817 145.171726,52.1240804 145.917843,52.1240804 C146.663961,52.1240804 147.260846,51.8411817 147.708517,51.2753758 C148.156187,50.7095698 148.380019,49.8608737 148.380019,48.7292618 C148.380019,47.5976499 148.156187,46.7489537 147.708517,46.1831478 C147.260846,45.6173419 146.663961,45.3344431 145.917843,45.3344431 Z M154.292973,43.7676038 L154.292973,44.7188991 C154.491938,44.3334049 154.793489,44.0349623 155.197636,43.8235623 C155.601783,43.6121623 156.033903,43.5064639 156.494009,43.5064639 C156.75515,43.5064639 157.01007,43.5437692 157.258776,43.618381 C157.507482,43.6929927 157.718879,43.8173438 157.892973,43.991438 L157.22147,45.6515416 C156.860847,45.4028357 156.506446,45.2784846 156.158258,45.2784846 C155.362399,45.2784846 154.771731,45.8753698 154.386237,47.0691582 L154.386237,53.672267 L152.539605,53.672267 L152.539605,43.7676038 L154.292973,43.7676038 Z M161.586237,43.7676038 L161.586237,53.672267 L159.720952,53.672267 L159.720952,43.7676038 L161.586237,43.7676038 Z M159.683646,41.3240804 C159.683646,41.0505039 159.773801,40.8142369 159.954113,40.6152722 C160.134424,40.4163074 160.361365,40.3168266 160.634942,40.3168266 C160.908518,40.3168266 161.141676,40.4163074 161.334424,40.6152722 C161.527171,40.8142369 161.623543,41.0505039 161.623543,41.3240804 C161.623543,41.5852216 161.527171,41.8090536 161.334424,41.995583 C161.141676,42.1821125 160.908518,42.2753758 160.634942,42.2753758 C160.361365,42.2753758 160.134424,42.1821125 159.954113,41.995583 C159.773801,41.8090536 159.683646,41.5852216 159.683646,41.3240804 Z M168.263957,43.5064639 C168.873287,43.5064639 169.435975,43.6214886 169.95204,43.8515416 C170.468105,44.0815945 170.91266,44.4173425 171.285719,44.8587955 C171.658778,45.3002485 171.947894,45.8380669 172.153076,46.472267 C172.358259,47.106467 172.460848,47.8277033 172.460848,48.6359975 C172.460848,48.822527 172.429761,49.0401414 172.367584,49.2888473 L165.85774,49.2888473 C165.919916,50.2214944 166.184162,50.939622 166.650486,51.4432514 C167.116809,51.9468809 167.723021,52.1986918 168.469139,52.1986918 C168.891939,52.1986918 169.280536,52.1147549 169.634942,51.9468784 C169.989348,51.7790019 170.290899,51.5520611 170.539605,51.2660494 L171.714734,52.3106089 C171.391417,52.7831502 170.9251,53.1717473 170.315771,53.4764121 C169.706441,53.7810768 169.053598,53.9334069 168.357222,53.9334069 C167.747892,53.9334069 167.178986,53.8214909 166.650486,53.5976556 C166.121986,53.3738203 165.664995,53.0442899 165.279501,52.6090545 C164.894007,52.1738192 164.592456,51.632892 164.374838,50.9862566 C164.15722,50.3396213 164.048413,49.5872972 164.048413,48.7292618 C164.048413,47.8712264 164.151003,47.1157936 164.356185,46.4629405 C164.561368,45.8100875 164.850484,45.2660515 165.223543,44.8308162 C165.596602,44.3955809 166.041157,44.0660505 166.557222,43.8422152 C167.073286,43.6183798 167.642192,43.5064639 168.263957,43.5064639 Z M168.263957,45.222526 C167.592451,45.222526 167.054633,45.4432492 166.650486,45.8847022 C166.246339,46.3261552 166.000745,46.9758896 165.913698,47.833925 L170.595563,47.833925 C170.508516,46.9758896 170.259814,46.3261552 169.849449,45.8847022 C169.439085,45.4432492 168.910593,45.222526 168.263957,45.222526 Z M177.664994,43.4505053 C178.373805,43.4505053 178.995561,43.5375511 179.530278,43.7116452 C180.064996,43.8857393 180.53753,44.1655293 180.947895,44.5510235 L180.145823,46.0432514 C180.009034,45.8815926 179.831834,45.7448064 179.614216,45.6328887 C179.396599,45.5209711 179.166549,45.4277078 178.924061,45.353096 C178.681573,45.2784842 178.442197,45.225635 178.205926,45.1945468 C177.969656,45.1634585 177.764476,45.1479146 177.590382,45.1479146 C177.130276,45.1479146 176.754114,45.2318516 176.461885,45.3997281 C176.169655,45.5676046 176.023543,45.813198 176.023543,46.1365157 C176.023543,46.3479157 176.073283,46.5188984 176.172766,46.649469 C176.272248,46.7800396 176.514733,46.9385873 176.900227,47.1251167 C177.136497,47.2370344 177.391417,47.3427328 177.664994,47.4422152 C177.93857,47.5416975 178.215251,47.6442872 178.495045,47.7499872 C178.774839,47.8556872 179.054629,47.9644944 179.334424,48.0764121 C179.614218,48.1883297 179.878464,48.3188984 180.12717,48.4681219 C180.525099,48.7168278 180.857738,49.0245967 181.125097,49.391438 C181.392456,49.7582792 181.526133,50.2277045 181.526133,50.7997281 C181.526133,51.4214929 181.411109,51.9313323 181.181056,52.3292618 C180.951003,52.7271912 180.655669,53.0411777 180.295045,53.2712307 C179.934422,53.5012837 179.527172,53.6629401 179.073284,53.7562048 C178.619395,53.8494695 178.162405,53.8961012 177.702299,53.8961012 C176.844264,53.8961012 176.095049,53.7904027 175.454631,53.5790027 C174.814213,53.3676027 174.232872,53.0691601 173.710589,52.6836659 L174.475356,51.1727851 C174.848415,51.4836675 175.320949,51.7292609 175.892973,51.9095727 C176.464996,52.0898845 177.049446,52.180039 177.646341,52.180039 C178.367588,52.180039 178.892971,52.0743406 179.222506,51.8629405 C179.552042,51.6515405 179.716807,51.365533 179.716807,51.0049095 C179.716807,50.7188977 179.645305,50.4888482 179.502299,50.314754 C179.359293,50.1406599 179.070177,49.9354806 178.634942,49.69921 C178.411106,49.574857 178.156187,49.4598323 177.870175,49.3541323 C177.584163,49.2484322 177.291938,49.1365163 176.993491,49.018381 C176.695044,48.9002457 176.396601,48.7727858 176.098154,48.6359975 C175.799707,48.4992093 175.5137,48.3375529 175.240123,48.1510235 C174.916805,47.9396234 174.658777,47.6784861 174.46603,47.3676038 C174.273283,47.0567214 174.176911,46.6650155 174.176911,46.1924742 C174.176911,45.6577565 174.285718,45.2163102 174.503335,44.8681219 C174.720953,44.5199336 175.000743,44.2401437 175.342714,44.0287437 C175.684684,43.8173436 176.060846,43.6681223 176.471211,43.5810753 C176.881576,43.4940282 177.279499,43.4505053 177.664994,43.4505053 Z" id="Photostories" fill="#474A4E"></path>
            </g>
        </g>
    </g>
</svg>